<?xml version="1.0" encoding="UTF-8"?>
<svg version="1.1" xmlns="http://www.w3.org/2000/svg" width="256" height="256">
<path d="M0 0 C0.94875 0.51691406 1.8975 1.03382812 2.875 1.56640625 C9.07642315 5.12253484 14.56212756 9.37449265 20 14 C20.886875 14.73992188 21.77375 15.47984375 22.6875 16.2421875 C46.72088645 37.06657065 61.07324793 67.54035373 64 99 C66.30857109 135.00457901 55.1898302 167.7150408 31.56787109 194.98510742 C10.59524676 218.61971789 -19.53946335 233.31734665 -51 236 C-78.12528402 237.41433821 -102.2534633 232.1761875 -126 219 C-126.96164063 218.46890625 -127.92328125 217.9378125 -128.9140625 217.390625 C-155.29777164 201.66935879 -175.65655442 174.30122181 -183.62109375 144.69091797 C-192.07390457 110.99707482 -188.77779353 76.29674984 -171.37890625 45.86328125 C-167.75095468 39.82168629 -163.55098091 34.36905753 -159 29 C-158.36239746 28.23695557 -158.36239746 28.23695557 -157.71191406 27.45849609 C-144.2709681 11.50432585 -127.14770749 0.11590647 -108 -8 C-107.19046875 -8.36867188 -106.3809375 -8.73734375 -105.546875 -9.1171875 C-71.65169661 -23.22195528 -31.34616309 -17.15780732 0 0 Z " fill="#FB5D38" transform="translate(190,18)"/>
<path d="M0 0 C4.83298806 4.02748053 9.38110004 8.24379413 13.80859375 12.7109375 C14.72597069 13.63043686 14.72597069 13.63043686 15.66188049 14.56851196 C17.58947559 16.50164564 19.51353928 18.43824987 21.4375 20.375 C22.75432404 21.69684699 24.07137926 23.01846372 25.38867188 24.33984375 C28.59512373 27.55724299 31.79841629 30.77775681 35 34 C37.99943905 32.65427113 40.08076179 31.16462899 42.39160156 28.83544922 C43.35214447 27.87467972 43.35214447 27.87467972 44.33209229 26.89450073 C45.01140808 26.20486237 45.69072388 25.515224 46.390625 24.8046875 C47.09523865 24.09724396 47.79985229 23.38980042 48.52581787 22.66091919 C50.7719539 20.40360138 53.01103009 18.13942367 55.25 15.875 C56.77297717 14.34199047 58.29640939 12.80943285 59.8203125 11.27734375 C63.55216815 7.52345427 67.27825351 3.76391086 71 0 C75.90473901 4.11329871 80.5219528 8.38542461 85.02734375 12.9296875 C85.97801476 13.88248093 85.97801476 13.88248093 86.94789124 14.85452271 C88.94681406 16.85898716 90.94220784 18.86692214 92.9375 20.875 C94.30250133 22.24502389 95.6677336 23.61481774 97.03320312 24.984375 C100.35814211 28.32026543 103.67992353 31.65927036 107 35 C102.97251947 39.83298806 98.75620587 44.38110004 94.2890625 48.80859375 C93.67606293 49.42017838 93.06306335 50.031763 92.43148804 50.66188049 C90.49835436 52.58947559 88.56175013 54.51353928 86.625 56.4375 C85.30315301 57.75432404 83.98153628 59.07137926 82.66015625 60.38867188 C79.44275701 63.59512373 76.22224319 66.79841629 73 70 C74.34572887 72.99943905 75.83537101 75.08076179 78.16455078 77.39160156 C78.80506378 78.0319635 79.44557678 78.67232544 80.10549927 79.33209229 C80.79513763 80.01140808 81.484776 80.69072388 82.1953125 81.390625 C83.25647781 82.44754547 83.25647781 82.44754547 84.33908081 83.52581787 C86.59639862 85.7719539 88.86057633 88.01103009 91.125 90.25 C92.65800953 91.77297717 94.19056715 93.29640939 95.72265625 94.8203125 C99.47654573 98.55216815 103.23608914 102.27825351 107 106 C102.88670129 110.90473901 98.61457539 115.5219528 94.0703125 120.02734375 C93.43511688 120.66112442 92.79992126 121.29490509 92.14547729 121.94789124 C90.14101284 123.94681406 88.13307786 125.94220784 86.125 127.9375 C84.75497611 129.30250133 83.38518226 130.6677336 82.015625 132.03320312 C78.67973457 135.35814211 75.34072964 138.67992353 72 142 C67.16701194 137.97251947 62.61889996 133.75620587 58.19140625 129.2890625 C57.57982162 128.67606293 56.968237 128.06306335 56.33811951 127.43148804 C54.41052441 125.49835436 52.48646072 123.56175013 50.5625 121.625 C49.24567596 120.30315301 47.92862074 118.98153628 46.61132812 117.66015625 C43.40487627 114.44275701 40.20158371 111.22224319 37 108 C34.00056095 109.34572887 31.91923821 110.83537101 29.60839844 113.16455078 C28.9680365 113.80506378 28.32767456 114.44557678 27.66790771 115.10549927 C26.98859192 115.79513763 26.30927612 116.484776 25.609375 117.1953125 C24.90476135 117.90275604 24.20014771 118.61019958 23.47418213 119.33908081 C21.2280461 121.59639862 18.98896991 123.86057633 16.75 126.125 C15.22702283 127.65800953 13.70359061 129.19056715 12.1796875 130.72265625 C8.44783185 134.47654573 4.72174649 138.23608914 1 142 C-3.90473901 137.88670129 -8.5219528 133.61457539 -13.02734375 129.0703125 C-13.66112442 128.43511688 -14.29490509 127.79992126 -14.94789124 127.14547729 C-16.94681406 125.14101284 -18.94220784 123.13307786 -20.9375 121.125 C-22.30250133 119.75497611 -23.6677336 118.38518226 -25.03320312 117.015625 C-28.35814211 113.67973457 -31.67992353 110.34072964 -35 107 C-30.97251947 102.16701194 -26.75620587 97.61889996 -22.2890625 93.19140625 C-21.67606293 92.57982162 -21.06306335 91.968237 -20.43148804 91.33811951 C-18.49835436 89.41052441 -16.56175013 87.48646072 -14.625 85.5625 C-13.30315301 84.24567596 -11.98153628 82.92862074 -10.66015625 81.61132812 C-7.44275701 78.40487627 -4.22224319 75.20158371 -1 72 C-2.34572887 69.00056095 -3.83537101 66.91923821 -6.16455078 64.60839844 C-6.80506378 63.9680365 -7.44557678 63.32767456 -8.10549927 62.66790771 C-8.79513763 61.98859192 -9.484776 61.30927612 -10.1953125 60.609375 C-10.90275604 59.90476135 -11.61019958 59.20014771 -12.33908081 58.47418213 C-14.59639862 56.2280461 -16.86057633 53.98896991 -19.125 51.75 C-20.65800953 50.22702283 -22.19056715 48.70359061 -23.72265625 47.1796875 C-27.47654573 43.44783185 -31.23608914 39.72174649 -35 36 C-30.88670129 31.09526099 -26.61457539 26.4780472 -22.0703125 21.97265625 C-21.43511688 21.33887558 -20.79992126 20.70509491 -20.14547729 20.05210876 C-18.14101284 18.05318594 -16.13307786 16.05779216 -14.125 14.0625 C-12.75497611 12.69749867 -11.38518226 11.3322664 -10.015625 9.96679688 C-6.67973457 6.64185789 -3.34072964 3.32007647 0 0 Z " fill="#FEFDFC" transform="translate(92,57)"/>
<path d="M0 0 C0.94875 0.51691406 1.8975 1.03382812 2.875 1.56640625 C9.07642315 5.12253484 14.56212756 9.37449265 20 14 C20.886875 14.73992188 21.77375 15.47984375 22.6875 16.2421875 C46.72088645 37.06657065 61.07324793 67.54035373 64 99 C66.30857109 135.00457901 55.1898302 167.7150408 31.56787109 194.98510742 C10.59524676 218.61971789 -19.53946335 233.31734665 -51 236 C-78.12528402 237.41433821 -102.2534633 232.1761875 -126 219 C-126.96164063 218.46890625 -127.92328125 217.9378125 -128.9140625 217.390625 C-155.29777164 201.66935879 -175.65655442 174.30122181 -183.62109375 144.69091797 C-192.07390457 110.99707482 -188.77779353 76.29674984 -171.37890625 45.86328125 C-167.75095468 39.82168629 -163.55098091 34.36905753 -159 29 C-158.36239746 28.23695557 -158.36239746 28.23695557 -157.71191406 27.45849609 C-144.2709681 11.50432585 -127.14770749 0.11590647 -108 -8 C-107.19046875 -8.36867188 -106.3809375 -8.73734375 -105.546875 -9.1171875 C-71.65169661 -23.22195528 -31.34616309 -17.15780732 0 0 Z M-145 28 C-145.58136719 28.61101563 -146.16273438 29.22203125 -146.76171875 29.8515625 C-160.3581228 44.54315824 -169.60720278 61.77794626 -175 81 C-175.3196875 82.12019531 -175.639375 83.24039063 -175.96875 84.39453125 C-182.88672399 112.93117398 -176.69353065 144.86939798 -162 170 C-144.0899909 198.48889652 -117.7413933 216.93093095 -84.92822266 224.45996094 C-55.71925836 230.41695517 -25.46084894 224.03480541 0 209 C7.82483124 203.82031195 15.50552107 197.79621357 22 191 C22 190.34 22 189.68 22 189 C22.66 189 23.32 189 24 189 C25.29949705 187.68462197 25.29949705 187.68462197 26.57421875 185.921875 C27.32312378 184.93223755 27.32312378 184.93223755 28.0871582 183.92260742 C28.615271 183.20564697 29.14338379 182.48868652 29.6875 181.75 C30.22914795 181.01563721 30.7707959 180.28127441 31.32885742 179.5246582 C42.6997255 163.92182008 49.8523982 147.07930939 53 128 C53.18175781 126.93523437 53.36351562 125.87046875 53.55078125 124.7734375 C55.86221379 105.35740417 54.2021211 83.95181223 46 66 C45.73735352 65.41476563 45.47470703 64.82953125 45.20410156 64.2265625 C31.98299799 35.12552569 8.96699777 12.56865495 -21 1 C-63.14320162 -14.00442457 -113.7762457 -5.62558156 -145 28 Z " fill="#070402" transform="translate(190,18)"/>
<path d="M0 0 C2.99943905 1.34572887 5.08076179 2.83537101 7.39160156 5.16455078 C8.35214447 6.12532028 8.35214447 6.12532028 9.33209229 7.10549927 C10.01140808 7.79513763 10.69072388 8.484776 11.390625 9.1953125 C12.09523865 9.90275604 12.79985229 10.61019958 13.52581787 11.33908081 C15.7719539 13.59639862 18.01103009 15.86057633 20.25 18.125 C21.77297717 19.65800953 23.29640939 21.19056715 24.8203125 22.72265625 C28.55216815 26.47654573 32.27825351 30.23608914 36 34 C36.99 33.67 37.98 33.34 39 33 C39.495 35.475 39.495 35.475 40 38 C40.391875 37.34 40.78375 36.68 41.1875 36 C43 34 43 34 45.6875 33.75 C46.450625 33.8325 47.21375 33.915 48 34 C48 32.02 48 30.04 48 28 C52.59459459 26.85135135 52.59459459 26.85135135 54.875 27.6875 C58.51618993 28.22296911 60.97882251 25.91728571 64 24 C64 22.68 64 21.36 64 20 C64.99 19.34 65.98 18.68 67 18 C66.34 17.67 65.68 17.34 65 17 C65.66 15.68 66.32 14.36 67 13 C67.99 13 68.98 13 70 13 C70 13.66 70 14.32 70 15 C69.34 15 68.68 15 68 15 C70.6008458 17.87950786 72.21728897 19.21737013 76 20 C76.33 20.66 76.66 21.32 77 22 C76.34 22 75.68 22 75 22 C75 22.66 75 23.32 75 24 C75.66 24 76.32 24 77 24 C77.33 24.66 77.66 25.32 78 26 C78.99 26 79.98 26 81 26 C81.185625 26.9590625 81.185625 26.9590625 81.375 27.9375 C81.58125 28.618125 81.7875 29.29875 82 30 C82.66 30.33 83.32 30.66 84 31 C84 31.99 84 32.98 84 34 C83.34 34 82.68 34 82 34 C82 37.63 82 41.26 82 45 C78.72724974 45 76.153368 44.70074844 73 44 C73 44.99 73 45.98 73 47 C74.32 46.67 75.64 46.34 77 46 C77 49 77 49 76 51 C75.34 51 74.68 51 74 51 C74 51.66 74 52.32 74 53 C73.45730469 53.21914062 72.91460937 53.43828125 72.35546875 53.6640625 C71.28232422 54.13972656 71.28232422 54.13972656 70.1875 54.625 C69.12595703 55.07746094 69.12595703 55.07746094 68.04296875 55.5390625 C65.74153188 56.92748725 65.74153188 56.92748725 64.68359375 59.8984375 C62.52697225 63.87142468 59.83436315 65.1882569 55.875 67 C55.16778809 67.33539795 54.46057617 67.6707959 53.73193359 68.01635742 C22.82525239 82.33257184 -9.57077571 84.13981864 -41.875 72.75 C-51.96536164 68.54900622 -61.77317513 63.22231302 -70 56 C-66.89448334 56 -65.64738916 56.5393715 -63 58 C-62.67 57.34 -62.34 56.68 -62 56 C-63.485 55.505 -63.485 55.505 -65 55 C-65 54.34 -65 53.68 -65 53 C-65.78375 53.20625 -66.5675 53.4125 -67.375 53.625 C-68.24125 53.74875 -69.1075 53.8725 -70 54 C-72 52 -72 52 -72.125 48.375 C-72.08375 47.26125 -72.0425 46.1475 -72 45 C-72.99 44.67 -73.98 44.34 -75 44 C-75.33 44.99 -75.66 45.98 -76 47 C-77.9375 46.3125 -77.9375 46.3125 -80 45 C-80.86029934 42.20402714 -81 39.92828926 -81 37 C-80.34 37 -79.68 37 -79 37 C-78.855625 36.195625 -78.71125 35.39125 -78.5625 34.5625 C-78 32 -78 32 -77 31 C-75.33382885 30.95936168 -73.66611905 30.957279 -72 31 C-72 29.68 -72 28.36 -72 27 C-74.31 27 -76.62 27 -79 27 C-78.67 26.34 -78.34 25.68 -78 25 C-75.4375 24.375 -75.4375 24.375 -73 24 C-72.67 22.68 -72.34 21.36 -72 20 C-71.34 20 -70.68 20 -70 20 C-69.67 19.01 -69.34 18.02 -69 17 C-68.34 17 -67.68 17 -67 17 C-66.34 17.66 -65.68 18.32 -65 19 C-63.01178687 19.39764263 -61.01055661 19.73775349 -59 20 C-59.66 21.98 -60.32 23.96 -61 26 C-59.68 26 -58.36 26 -57 26 C-56.34 26.66 -55.68 27.32 -55 28 C-52.99363529 27.70740515 -50.99285937 27.37366113 -49 27 C-48.34 27.33 -47.68 27.66 -47 28 C-46.3125 31 -46.3125 31 -46 34 C-46.33 34.33 -46.66 34.66 -47 35 C-45.68 35 -44.36 35 -43 35 C-42.34 34.34 -41.68 33.68 -41 33 C-40.01 34.32 -39.02 35.64 -38 37 C-37.34 35.68 -36.68 34.36 -36 33 C-35.01 33 -34.02 33 -33 33 C-31.29693521 31.73397768 -31.29693521 31.73397768 -29.63012695 29.97070312 C-28.96966873 29.31001831 -28.30921051 28.6493335 -27.6287384 27.96862793 C-26.92238754 27.24679321 -26.21603668 26.5249585 -25.48828125 25.78125 C-24.76005661 25.04878052 -24.03183197 24.31631104 -23.28153992 23.56164551 C-20.95141304 21.21469173 -18.63191672 18.85753427 -16.3125 16.5 C-14.73701608 14.9094745 -13.16085266 13.31962177 -11.58398438 11.73046875 C-7.7147303 7.82809217 -3.85415989 3.91728183 0 0 Z " fill="#F8851F" transform="translate(127,164)"/>
<path d="M0 0 C1.30710938 1.07894531 1.30710938 1.07894531 2.640625 2.1796875 C21.55132634 18.48001596 33.84009187 40.78812338 39 65 C39.3403125 66.423125 39.3403125 66.423125 39.6875 67.875 C41.88609629 78.37940449 41.17637476 89.32525673 41 100 C40.67 100 40.34 100 40 100 C39.95101562 98.92363281 39.90203125 97.84726563 39.8515625 96.73828125 C39.40326468 87.71109896 38.57362887 78.91313226 37 70 C36.835 68.93136719 36.67 67.86273438 36.5 66.76171875 C36.14279999 64.05166917 36.14279999 64.05166917 35 62 C35.33 61.01 35.66 60.02 36 59 C35.34 58.67 34.68 58.34 34 58 C33.375 55.4375 33.375 55.4375 33 53 C32.01 53.495 32.01 53.495 31 54 C30.71125 53.38125 30.4225 52.7625 30.125 52.125 C29.06279958 49.86674235 29.06279958 49.86674235 27 48 C26.01 48.66 25.02 49.32 24 50 C24.31146472 51.89600369 24.62421717 53.79179587 24.9375 55.6875 C25.11152344 56.74324219 25.28554687 57.79898438 25.46484375 58.88671875 C25.79588435 60.81255346 26.15716248 62.73378618 26.56640625 64.64453125 C27.2562893 68.39227432 27 72.19796158 27 76 C26.01 76.495 26.01 76.495 25 77 C25 75.35 25 73.7 25 72 C24.34 72 23.68 72 23 72 C23.33 69.69 23.66 67.38 24 65 C23.34 65 22.68 65 22 65 C22.08701172 64.195625 22.08701172 64.195625 22.17578125 63.375 C23.26401589 44.4708096 11.71892279 26.29146996 -0.36328125 12.70996094 C-7.36656088 5.39328872 -16.16954547 -0.16219323 -25 -5 C-25.73992187 -5.42796875 -26.47984375 -5.8559375 -27.2421875 -6.296875 C-50.4032982 -18.93020811 -80.27649484 -20.40019664 -105.37158203 -13.33203125 C-122.85168116 -7.98509419 -137.20824479 1.03590079 -150 14 C-150.73734375 14.73863281 -151.4746875 15.47726563 -152.234375 16.23828125 C-162.7124226 27.34582396 -167.74348827 39.63427292 -172 54 C-172.33 54 -172.66 54 -173 54 C-172.67 51.36 -172.34 48.72 -172 46 C-172.99 46 -173.98 46 -175 46 C-175.6875 43.6875 -175.6875 43.6875 -176 41 C-174.5625 39.1875 -174.5625 39.1875 -173 38 C-173.66 38 -174.32 38 -175 38 C-175 38.66 -175 39.32 -175 40 C-176.485 40.99 -176.485 40.99 -178 42 C-179.99633033 45.25327905 -181.01447606 47.27619716 -180.9375 51.125 C-181 54 -181 54 -182.9375 55.875 C-185.92224064 58.95018733 -185.68202648 61.87493814 -186 66 C-186.33333333 67.33333333 -186.66666667 68.66666667 -187 70 C-187.17705973 71.35284699 -187.34258173 72.7072271 -187.5 74.0625 C-188 78 -188 78 -189 81 C-189.78767457 94.09737946 -188.17597027 107.29611893 -185 120 C-184.34 120 -183.68 120 -183 120 C-181.80045372 124.34835527 -182 128.50846285 -182 133 C-193.20042569 116.19936147 -193.3870219 88.10127545 -190.08984375 69.01953125 C-183.19700595 34.8992555 -163.71945892 8.13460283 -135 -11 C-133.85144531 -11.82177734 -133.85144531 -11.82177734 -132.6796875 -12.66015625 C-93.04466711 -39.29659469 -34.93637958 -28.97902006 0 0 Z " fill="#F10D06" transform="translate(203,39)"/>
<path d="M0 0 C4.83256305 0.41421969 6.82679218 2.46413986 10 6 C8.65427113 8.99943905 7.16462899 11.08076179 4.83544922 13.39160156 C3.87467972 14.35214447 3.87467972 14.35214447 2.89450073 15.33209229 C2.20486237 16.01140808 1.515224 16.69072388 0.8046875 17.390625 C0.09724396 18.09523865 -0.61019958 18.79985229 -1.33908081 19.52581787 C-3.59639862 21.7719539 -5.86057633 24.01103009 -8.125 26.25 C-9.65800953 27.77297717 -11.19056715 29.29640939 -12.72265625 30.8203125 C-16.47654573 34.55216815 -20.23608914 38.27825351 -24 42 C-20.12898221 46.65623472 -16.09037052 51.00067283 -11.7265625 55.1953125 C-10.56061689 56.33404081 -9.39526895 57.47338134 -8.23046875 58.61328125 C-6.41899194 60.38131026 -4.60406377 62.14511672 -2.77880859 63.89892578 C-0.99990879 65.61136015 0.76275515 67.33917909 2.5234375 69.0703125 C3.07333344 69.59126495 3.62322937 70.11221741 4.18978882 70.6489563 C6.60753719 73.04931185 7.93148693 74.42540894 8.34228516 77.87060547 C8.22933105 78.57330566 8.11637695 79.27600586 8 80 C7.01 80.495 7.01 80.495 6 81 C5.4121875 80.2265625 5.4121875 80.2265625 4.8125 79.4375 C4.214375 78.963125 3.61625 78.48875 3 78 C0.34533951 78.23043864 0.34533951 78.23043864 -2 79 C-2 76.33333333 -2 73.66666667 -2 71 C-6.455 71.495 -6.455 71.495 -11 72 C-11.33 71.01 -11.66 70.02 -12 69 C-13.32 69 -14.64 69 -16 69 C-15.67 67.35 -15.34 65.7 -15 64 C-18.47147842 63.25042843 -18.47147842 63.25042843 -22 63 C-22 62.01 -22 61.02 -22 60 C-22.45375 60.495 -22.9075 60.99 -23.375 61.5 C-25 63 -25 63 -27 63 C-27.33 64.98 -27.66 66.96 -28 69 C-28.99 68.505 -28.99 68.505 -30 68 C-31.485 68.495 -31.485 68.495 -33 69 C-31.02 69.33 -29.04 69.66 -27 70 C-27 71.32 -27 72.64 -27 74 C-27.94875 74.226875 -28.8975 74.45375 -29.875 74.6875 C-33.16154871 75.69639733 -33.16154871 75.69639733 -34.4375 78.5 C-35.27280484 80.98159334 -35.27280484 80.98159334 -34 83 C-34.66 83 -35.32 83 -36 83 C-35.21869929 85.49552484 -35.21869929 85.49552484 -34 88 C-32.515 88.495 -32.515 88.495 -31 89 C-30.67 88.34 -30.34 87.68 -30 87 C-28.68 87.33 -27.36 87.66 -26 88 C-26.33 90.31 -26.66 92.62 -27 95 C-23.94736336 95.98120464 -22.05263664 95.98120464 -19 95 C-19 95.99 -19 96.98 -19 98 C-18.01 98.495 -18.01 98.495 -17 99 C-17.495 100.485 -17.495 100.485 -18 102 C-18.721875 101.54625 -19.44375 101.0925 -20.1875 100.625 C-22.8402508 98.97109475 -22.8402508 98.97109475 -25.3125 98.2109375 C-28.68842297 96.68980942 -31.14589314 94.50736791 -33.8125 92 C-34.33875977 91.50870605 -34.86501953 91.01741211 -35.40722656 90.51123047 C-45.46877986 80.93890866 -59.33557523 65.01844376 -61.30078125 50.828125 C-61.3125 48.875 -61.3125 48.875 -61 46 C-60.34 46 -59.68 46 -59 46 C-58.690625 44.824375 -58.690625 44.824375 -58.375 43.625 C-57.92125 42.75875 -57.4675 41.8925 -57 41 C-56.01 40.731875 -55.02 40.46375 -54 40.1875 C-50.89618017 39.36495934 -50.89618017 39.36495934 -50.1640625 37.10546875 C-49.67735593 35.09163215 -49.3299003 33.04538185 -49 31 C-47.68 31 -46.36 31 -45 31 C-43.62131719 29.37064759 -42.28725907 27.70250393 -41 26 C-40.01 25.67 -39.02 25.34 -38 25 C-37.34 24.34 -36.68 23.68 -36 23 C-35.34 24.98 -34.68 26.96 -34 29 C-31.98386515 29.09293673 -31.98386515 29.09293673 -30.0625 28.4375 C-28 28 -28 28 -25 29 C-24.67 28.34 -24.34 27.68 -24 27 C-23.34 27 -22.68 27 -22 27 C-22.495 29.475 -22.495 29.475 -23 32 C-21.35 31.67 -19.7 31.34 -18 31 C-17.773125 30.071875 -17.54625 29.14375 -17.3125 28.1875 C-15.74902671 24.39049344 -14.44983343 23.98365422 -11 22 C-10.31246699 20.34183216 -9.64438717 18.67540664 -9 17 C-7 15.625 -7 15.625 -5 15 C-4.34 15.33 -3.68 15.66 -3 16 C-1.80712589 12.12315913 -1 9.08378077 -1 5 C-0.69595322 3.32774271 -0.36871088 1.65919896 0 0 Z M-25 32 C-25.66 33.32 -26.32 34.64 -27 36 C-26.01 36.495 -26.01 36.495 -25 37 C-25 36.34 -25 35.68 -25 35 C-24.34 35 -23.68 35 -23 35 C-23 34.01 -23 33.02 -23 32 C-23.66 32 -24.32 32 -25 32 Z " fill="#F95204" transform="translate(82,121)"/>
<path d="M0 0 C1.22009766 0.67095703 1.22009766 0.67095703 2.46484375 1.35546875 C9.04003996 4.82427305 15.48188622 7.71693744 22.625 9.8125 C23.27976318 10.00674561 23.93452637 10.20099121 24.60913086 10.40112305 C34.63662304 13.19889289 44.66768206 14.39146313 55.0625 14.375 C56.14305664 14.37338867 57.22361328 14.37177734 58.33691406 14.37011719 C71.93216 14.16540578 84.57087484 11.04134344 97.43359375 6.83203125 C99.61189219 6.12582491 101.77163478 5.52153228 104 5 C104 4.34 104 3.68 104 3 C106.375 1.3125 106.375 1.3125 109 0 C109.99 0.495 109.99 0.495 111 1 C111 4 111 4 110 7 C110.66 7 111.32 7 112 7 C112 6.34 112 5.68 112 5 C114.97 5.495 114.97 5.495 118 6 C107.77567866 18.28444579 83.70768705 23.05906399 68.61230469 24.76416016 C40.66107641 27.28760749 15.93554212 21.46180431 -8 7 C-5.3333581 5.66667905 -3.83319697 6.32897967 -1 7 C-0.67 4.69 -0.34 2.38 0 0 Z " fill="#F1900C" transform="translate(73,219)"/>
<path d="M0 0 C0.33 0 0.66 0 1 0 C2.70782106 24.62108696 -8.80877066 49.56072151 -24.37109375 68.046875 C-26.14976254 70.10880926 -26.14976254 70.10880926 -28 73 C-28.66 73 -29.32 73 -30 73 C-30.23332031 73.56847656 -30.46664062 74.13695312 -30.70703125 74.72265625 C-34.54645144 81.48513955 -42.53564787 86.82510592 -49 91 C-49.66 91 -50.32 91 -51 91 C-50.02738378 87.72847271 -49.34232413 86.25454871 -46.5625 84.1875 C-44 83 -44 83 -41 83 C-41 82.34 -41 81.68 -41 81 C-40.34 81 -39.68 81 -39 81 C-38.505 79.02 -38.505 79.02 -38 77 C-39.32 77 -40.64 77 -42 77 C-42 76.01 -42 75.02 -42 74 C-38.95613276 73.91773332 -36.92824652 74.02391783 -34 75 C-34.01160156 74.37351562 -34.02320313 73.74703125 -34.03515625 73.1015625 C-34.04417969 72.28429687 -34.05320313 71.46703125 -34.0625 70.625 C-34.07410156 69.81289062 -34.08570313 69.00078125 -34.09765625 68.1640625 C-34 66 -34 66 -33 64 C-32.34 64 -31.68 64 -31 64 C-31.474375 63.566875 -31.94875 63.13375 -32.4375 62.6875 C-34 61 -34 61 -35 58 C-35.33 57.34 -35.66 56.68 -36 56 C-36.99 56.495 -36.99 56.495 -38 57 C-38 56.01 -38 55.02 -38 54 C-38.66 54 -39.32 54 -40 54 C-40 52.68 -40 51.36 -40 50 C-40.78375 49.9175 -41.5675 49.835 -42.375 49.75 C-45 49 -45 49 -46.3125 46.9375 C-46.6528125 45.9784375 -46.6528125 45.9784375 -47 45 C-46.34 45 -45.68 45 -45 45 C-45.66 44.34 -46.32 43.68 -47 43 C-47.99 44.32 -48.98 45.64 -50 47 C-48.515 47.495 -48.515 47.495 -47 48 C-47.33 48.66 -47.66 49.32 -48 50 C-48.99 50 -49.98 50 -51 50 C-50.67 51.32 -50.34 52.64 -50 54 C-55.41628959 58.66402715 -55.41628959 58.66402715 -59 59 C-60.67654729 58.72057545 -62.34608154 58.39171753 -64 58 C-64.66 58 -65.32 58 -66 58 C-66 60.31 -66 62.62 -66 65 C-67.98 64.67 -69.96 64.34 -72 64 C-72.28875 64.639375 -72.5775 65.27875 -72.875 65.9375 C-74 68 -74 68 -76 69 C-76.48241524 65.63152337 -76.70806622 63.06871315 -74.77154541 60.14584351 C-72.94501783 58.13530728 -71.04175401 56.2554825 -69.0703125 54.38671875 C-68.36478241 53.69109329 -67.65925232 52.99546783 -66.93234253 52.27876282 C-64.67915369 50.06467423 -62.40286556 47.87616479 -60.125 45.6875 C-58.5986671 44.19629056 -57.07390791 42.70346853 -55.55078125 41.20898438 C-52.2000115 37.92698879 -48.83455206 34.66095522 -45.45535278 31.4082489 C-44.2927323 30.28325774 -43.14396055 29.14396055 -42 28 C-41 31 -41 31 -42 34 C-41.34 34.66 -40.68 35.32 -40 36 C-40 36.99 -40 37.98 -40 39 C-39.34 39 -38.68 39 -38 39 C-38.66 37.35 -39.32 35.7 -40 34 C-38.68 34.33 -37.36 34.66 -36 35 C-35.4254048 38.73486879 -35 42.21293268 -35 46 C-34.37715062 47.93212692 -34.37715062 47.93212692 -33.5 49.75 C-33.005 50.8225 -32.51 51.895 -32 53 C-30.35 52.34 -28.7 51.68 -27 51 C-26.67 51.99 -26.34 52.98 -26 54 C-26.495 54.99 -26.495 54.99 -27 56 C-25.35 56.99 -23.7 57.98 -22 59 C-22 58.34 -22 57.68 -22 57 C-21.01 57 -20.02 57 -19 57 C-17.32286083 52.75782446 -16.9855638 50.39589018 -18 46 C-17.5625 43.1875 -17.5625 43.1875 -17 41 C-19.31 41 -21.62 41 -24 41 C-25 36.25 -25 36.25 -25 34 C-25.99 33.505 -25.99 33.505 -27 33 C-26.67 30.69 -26.34 28.38 -26 26 C-25.236875 25.87625 -24.47375 25.7525 -23.6875 25.625 C-20.79732864 25.11897208 -20.79732864 25.11897208 -18 23 C-18 24.98 -18 26.96 -18 29 C-17.34 29 -16.68 29 -16 29 C-16 30.32 -16 31.64 -16 33 C-12.9254644 32.2236068 -12.9254644 32.2236068 -11 30 C-10.01 30.66 -9.02 31.32 -8 32 C-7.814375 31.13375 -7.814375 31.13375 -7.625 30.25 C-6.99351176 27.97664233 -6.11141809 26.0746471 -5 24 C-4.67 24 -4.34 24 -4 24 C-2.21782063 17.94059015 -1.60815877 12.15835581 -1.24609375 5.85546875 C-1 3 -1 3 0 0 Z M-29 57 C-28.67 57.66 -28.34 58.32 -28 59 C-27.67 58.34 -27.34 57.68 -27 57 C-27.66 57 -28.32 57 -29 57 Z " fill="#F95A05" transform="translate(242,134)"/>
<path d="M0 0 C0.495 1.485 0.495 1.485 1 3 C1.66 3 2.32 3 3 3 C3 2.01 3 1.02 3 0 C3.99 0.33 4.98 0.66 6 1 C5.175 1.969375 4.35 2.93875 3.5 3.9375 C2.95085938 4.58332031 2.40171875 5.22914062 1.8359375 5.89453125 C0.61822714 7.29101186 -0.62677919 8.6641796 -1.8984375 10.01171875 C-12.50997895 21.3572601 -17.66168405 33.35818368 -22 48 C-22.33 48 -22.66 48 -23 48 C-22.67 45.36 -22.34 42.72 -22 40 C-22.99 40 -23.98 40 -25 40 C-25.6875 37.6875 -25.6875 37.6875 -26 35 C-24.5625 33.1875 -24.5625 33.1875 -23 32 C-23.66 32 -24.32 32 -25 32 C-25 32.66 -25 33.32 -25 34 C-25.99 34.66 -26.98 35.32 -28 36 C-29.99633033 39.25327905 -31.01447606 41.27619716 -30.9375 45.125 C-31 48 -31 48 -32.9375 49.875 C-35.92224064 52.95018733 -35.68202648 55.87493814 -36 60 C-36.33333333 61.33333333 -36.66666667 62.66666667 -37 64 C-37.17705973 65.35284699 -37.34258173 66.7072271 -37.5 68.0625 C-38 72 -38 72 -39 75 C-39.78767457 88.09737946 -38.17597027 101.29611893 -35 114 C-34.34 114 -33.68 114 -33 114 C-31.80045372 118.34835527 -32 122.50846285 -32 127 C-43.20042569 110.19936147 -43.3870219 82.10127545 -40.08984375 63.01953125 C-36.50020873 45.25045846 -30.39840329 24.22671873 -15.3125 13 C-12.48639323 11.29367138 -9.74808975 9.97953263 -6.75 8.625 C-2.65859044 6.66091448 -2.65859044 6.66091448 -0.375 2.6875 C-0.189375 1.3571875 -0.189375 1.3571875 0 0 Z " fill="#F91906" transform="translate(53,45)"/>
<path d="M0 0 C0.99 0.33 1.98 0.66 3 1 C3 1.99 3 2.98 3 4 C4.18499496 5.58723545 4.18499496 5.58723545 5.84570312 7.10693359 C6.46634644 7.71121185 7.08698975 8.31549011 7.72644043 8.93807983 C8.40452759 9.58499786 9.08261475 10.23191589 9.78125 10.8984375 C11.19426588 12.27838429 12.60701818 13.65860104 14.01953125 15.0390625 C16.26044852 17.21162614 18.50519575 19.3799944 20.75537109 21.54296875 C22.92063104 23.62982889 25.07030094 25.73179446 27.21875 27.8359375 C28.23588074 28.80024185 28.23588074 28.80024185 29.27355957 29.7840271 C33.90518801 34.34057609 33.90518801 34.34057609 34.42382812 37.94775391 C34.2140332 38.96361572 34.2140332 38.96361572 34 40 C33.01 40.495 33.01 40.495 32 41 C31.4121875 40.2265625 31.4121875 40.2265625 30.8125 39.4375 C29.9153125 38.7259375 29.9153125 38.7259375 29 38 C26.34533951 38.23043864 26.34533951 38.23043864 24 39 C24 36.33333333 24 33.66666667 24 31 C21.03 31.33 18.06 31.66 15 32 C14.67 31.01 14.34 30.02 14 29 C12.68 29 11.36 29 10 29 C10.33 27.35 10.66 25.7 11 24 C7.52852158 23.25042843 7.52852158 23.25042843 4 23 C4 22.01 4 21.02 4 20 C3.54625 20.495 3.0925 20.99 2.625 21.5 C1 23 1 23 -1 23 C-1.33 24.98 -1.66 26.96 -2 29 C-3.65 28.67 -5.3 28.34 -7 28 C-6.814375 27.236875 -6.62875 26.47375 -6.4375 25.6875 C-5.77180827 22.91032625 -5.77180827 22.91032625 -7 20 C-7.06802967 18.27204648 -7.08495645 16.54164635 -7.0625 14.8125 C-7.05347656 13.91144531 -7.04445312 13.01039063 -7.03515625 12.08203125 C-7.02355469 11.39496094 -7.01195312 10.70789063 -7 10 C-6.01 10 -5.02 10 -4 10 C-3.67 9.01 -3.34 8.02 -3 7 C-2.34 7 -1.68 7 -1 7 C-1.020625 6.030625 -1.04125 5.06125 -1.0625 4.0625 C-1 1 -1 1 0 0 Z " fill="#F85C04" transform="translate(56,161)"/>
<path d="M0 0 C7.875 6.75 7.875 6.75 10.36499023 9.25146484 C10.92504257 9.81159271 11.48509491 10.37172058 12.06211853 10.94882202 C12.92662376 11.82106918 12.92662376 11.82106918 13.80859375 12.7109375 C14.72597069 13.63043686 14.72597069 13.63043686 15.66188049 14.56851196 C17.58947559 16.50164564 19.51353928 18.43824987 21.4375 20.375 C22.75432404 21.69684699 24.07137926 23.01846372 25.38867188 24.33984375 C28.59512373 27.55724299 31.79841629 30.77775681 35 34 C37.95854541 32.67197431 39.98948709 31.2410159 42.23632812 28.91137695 C42.84375854 28.28765701 43.45118896 27.66393707 44.07702637 27.02131653 C44.72192017 26.35041489 45.36681396 25.67951324 46.03125 24.98828125 C47.4123317 23.57705427 48.79385546 22.1662598 50.17578125 20.75585938 C52.34696353 18.52873403 54.51402359 16.29796128 56.67333984 14.05932617 C58.76080775 11.89959065 60.86341872 9.75558659 62.96875 7.61328125 C63.6136438 6.93630692 64.2585376 6.25933258 64.92297363 5.56184387 C65.53040405 4.94758041 66.13783447 4.33331696 66.76367188 3.70043945 C67.29343628 3.15353958 67.82320068 2.60663971 68.36901855 2.04316711 C70 1 70 1 71.98455811 1.13479614 C74.34734119 2.14910921 75.67634458 3.31491778 77.48339844 5.14282227 C78.47397247 6.13373619 78.47397247 6.13373619 79.48455811 7.14466858 C80.18574768 7.86134201 80.88693726 8.57801544 81.609375 9.31640625 C82.33618469 10.04746078 83.06299438 10.77851532 83.81182861 11.53172302 C86.13168401 13.86837157 88.440892 16.21523484 90.75 18.5625 C92.32092443 20.14847036 93.89253094 21.73376543 95.46484375 23.31835938 C99.31784484 27.20443822 103.16215519 31.09895543 107 35 C106.01 35.99 106.01 35.99 105 37 C94.11 26.11 83.22 15.22 72 4 C66.67057281 8.50832201 66.67057281 8.50832201 61.63500977 13.25146484 C61.07495743 13.81159271 60.51490509 14.37172058 59.93788147 14.94882202 C59.36154465 15.53032013 58.78520782 16.11181824 58.19140625 16.7109375 C57.57982162 17.32393707 56.968237 17.93693665 56.33811951 18.56851196 C54.41052441 20.50164564 52.48646072 22.43824987 50.5625 24.375 C49.24567596 25.69684699 47.92862074 27.01846372 46.61132812 28.33984375 C43.40487627 31.55724299 40.20158371 34.77775681 37 38 C34.00056095 36.65427113 31.91923821 35.16462899 29.60839844 32.83544922 C28.9680365 32.19493622 28.32767456 31.55442322 27.66790771 30.89450073 C26.98859192 30.20486237 26.30927612 29.515224 25.609375 28.8046875 C24.90476135 28.09724396 24.20014771 27.38980042 23.47418213 26.66091919 C21.2280461 24.40360138 18.98896991 22.13942367 16.75 19.875 C15.22702283 18.34199047 13.70359061 16.80943285 12.1796875 15.27734375 C8.44783185 11.52345427 4.72174649 7.76391086 1 4 C-3.75085867 7.96372525 -8.23613112 12.09794782 -12.58984375 16.4921875 C-13.17923233 17.08299103 -13.76862091 17.67379456 -14.37586975 18.28250122 C-16.23213727 20.14430404 -18.08487085 22.00957745 -19.9375 23.875 C-21.20614672 25.14867011 -22.4750249 26.42210971 -23.74414062 27.6953125 C-26.83210554 30.79422043 -29.91690929 33.89624301 -33 37 C-33.66 36.34 -34.32 35.68 -35 35 C-23.45 23.45 -11.9 11.9 0 0 Z " fill="#B53838" transform="translate(92,54)"/>
<path d="M0 0 C0.71325439 0.11762695 1.42650879 0.23525391 2.16137695 0.35644531 C7.11004733 1.2679658 11.5797769 2.81836362 16.25 4.6875 C16.25 5.3475 16.25 6.0075 16.25 6.6875 C8.79259055 9.22301921 2.00625262 8.49362738 -5.75 7.6875 C-5.75 8.3475 -5.75 9.0075 -5.75 9.6875 C-6.74 10.0175 -7.73 10.3475 -8.75 10.6875 C-9.08 9.6975 -9.41 8.7075 -9.75 7.6875 C-14.59090408 8.3433188 -14.59090408 8.3433188 -19.375 9.3125 C-22.09883262 9.74257884 -24.06761197 9.23773344 -26.75 8.6875 C-28.98167185 9.05606864 -28.98167185 9.05606864 -30.75 9.6875 C-30.75 9.0275 -30.75 8.3675 -30.75 7.6875 C-32.07 7.6875 -33.39 7.6875 -34.75 7.6875 C-35.41 5.0475 -36.07 2.4075 -36.75 -0.3125 C-24.63134139 -2.32416488 -12.09835172 -2.00851293 0 0 Z " fill="#FCADA7" transform="translate(147.75,22.3125)"/>
<path d="M0 0 C0.33 0 0.66 0 1 0 C1.66 1.98 2.32 3.96 3 6 C5.15634036 6 6.92446352 5.5534764 9 5 C9.495 5.99 9.495 5.99 10 7 C6.70349342 10.69208738 3.42572369 12.86616894 -1 15 C-3.4375 14.75 -3.4375 14.75 -5 14 C-5.33 14.99 -5.66 15.98 -6 17 C-7.5625 18.6875 -7.5625 18.6875 -9 20 C-8.01 20.99 -7.02 21.98 -6 23 C-6.433125 23.4125 -6.86625 23.825 -7.3125 24.25 C-11.05411729 28.13019571 -12.16653646 30.64202011 -13 36 C-13.99 36.495 -13.99 36.495 -15 37 C-14.67 34.36 -14.34 31.72 -14 29 C-14.66 29 -15.32 29 -16 29 C-16 29.66 -16 30.32 -16 31 C-16.99 31 -17.98 31 -19 31 C-19 33.31 -19 35.62 -19 38 C-21.75328098 35.62216643 -22.96944911 33.48801839 -24 30 C-24.07646165 27.6679198 -24.09143299 25.33154122 -24 23 C-23.34 23 -22.68 23 -22 23 C-21.79375 22.21625 -21.5875 21.4325 -21.375 20.625 C-20.92125 19.75875 -20.4675 18.8925 -20 18 C-19.01 17.731875 -18.02 17.46375 -17 17.1875 C-13.89618017 16.36495934 -13.89618017 16.36495934 -13.1640625 14.10546875 C-12.67735593 12.09163215 -12.3299003 10.04538185 -12 8 C-10.68 8 -9.36 8 -8 8 C-6.62131719 6.37064759 -5.28725907 4.70250393 -4 3 C-3.01 2.67 -2.02 2.34 -1 2 C-0.67 1.34 -0.34 0.68 0 0 Z " fill="#FA4805" transform="translate(45,144)"/>
<path d="M0 0 C0.66 0.33 1.32 0.66 2 1 C1.79375 1.78375 1.5875 2.5675 1.375 3.375 C1.189375 4.674375 1.189375 4.674375 1 6 C1.66 6.66 2.32 7.32 3 8 C3 8.99 3 9.98 3 11 C-0.13349732 12.04449911 -0.98968256 11.93423645 -4 11 C-4.309375 11.94875 -4.61875 12.8975 -4.9375 13.875 C-6 17 -6 17 -7 19 C-6.01 19.33 -5.02 19.66 -4 20 C-4.33 20.66 -4.66 21.32 -5 22 C-5.99 22 -6.98 22 -8 22 C-7.67 23.32 -7.34 24.64 -7 26 C-12.41628959 30.66402715 -12.41628959 30.66402715 -16 31 C-17.67654729 30.72057545 -19.34608154 30.39171753 -21 30 C-21.66 30 -22.32 30 -23 30 C-23 32.31 -23 34.62 -23 37 C-24.98 36.67 -26.96 36.34 -29 36 C-29.28875 36.639375 -29.5775 37.27875 -29.875 37.9375 C-31 40 -31 40 -33 41 C-33.48540417 37.62776142 -33.71137422 35.06773792 -31.76467896 32.14584351 C-29.92840982 30.13537522 -28.01553371 28.25550186 -26.03515625 26.38671875 C-25.32725449 25.69109329 -24.61935272 24.99546783 -23.88999939 24.27876282 C-21.63011276 22.06459082 -19.34742972 19.87579198 -17.0625 17.6875 C-14.78652799 15.47632947 -12.51540444 13.26029327 -10.24571228 11.04267883 C-8.83264414 9.66552586 -7.41491957 8.29313188 -5.99220276 6.9259491 C-5.35161423 6.30802994 -4.7110257 5.69011078 -4.05102539 5.0534668 C-3.48476944 4.51054489 -2.91851349 3.96762299 -2.33509827 3.4082489 C-0.88823326 2.01882318 -0.88823326 2.01882318 0 0 Z " fill="#F86506" transform="translate(199,162)"/>
<path d="M0 0 C0.33 0 0.66 0 1 0 C2.02569532 14.78710758 -2.28113989 28.52317803 -8 42 C-8.99 42 -9.98 42 -11 42 C-11.268125 43.0725 -11.53625 44.145 -11.8125 45.25 C-12.86227827 48.56508928 -13.74612328 50.43877646 -16 53 C-18.83022097 49.00439392 -17.76210446 45.57262677 -17 41 C-19.31 41 -21.62 41 -24 41 C-25 36.25 -25 36.25 -25 34 C-25.66 33.67 -26.32 33.34 -27 33 C-26.67 30.69 -26.34 28.38 -26 26 C-25.236875 25.87625 -24.47375 25.7525 -23.6875 25.625 C-20.79732864 25.11897208 -20.79732864 25.11897208 -18 23 C-18 24.98 -18 26.96 -18 29 C-17.34 29 -16.68 29 -16 29 C-16 30.32 -16 31.64 -16 33 C-12.9254644 32.2236068 -12.9254644 32.2236068 -11 30 C-10.01 30.66 -9.02 31.32 -8 32 C-7.87625 31.4225 -7.7525 30.845 -7.625 30.25 C-6.99351176 27.97664233 -6.11141809 26.0746471 -5 24 C-4.67 24 -4.34 24 -4 24 C-2.21782063 17.94059015 -1.60815877 12.15835581 -1.24609375 5.85546875 C-1 3 -1 3 0 0 Z " fill="#F94A04" transform="translate(242,134)"/>
<path d="M0 0 C1.35931641 0.70576172 1.35931641 0.70576172 2.74609375 1.42578125 C9.38819986 4.83444658 15.80796605 7.89199005 23 10 C23 10.99 23 11.98 23 13 C28.445 13.495 28.445 13.495 34 14 C34 14.33 34 14.66 34 15 C32.39125 15.12375 32.39125 15.12375 30.75 15.25 C26.7261549 16.05476902 25.51830747 16.87729874 23 20 C24.65 20.33 26.3 20.66 28 21 C24.37183177 22.81408411 20.55879094 20.62103476 16.8671875 19.4453125 C8.18238978 16.35868237 -0.1707049 11.83308409 -8 7 C-5.3333581 5.66667905 -3.83319697 6.32897967 -1 7 C-0.67 4.69 -0.34 2.38 0 0 Z " fill="#E77F11" transform="translate(73,219)"/>
<path d="M0 0 C8.95921415 7.54316814 11.73463148 23.09435656 14 34 C14.22558594 34.94617188 14.45117188 35.89234375 14.68359375 36.8671875 C16.89104875 47.37162851 16.17639757 58.3238761 16 69 C15.67 69 15.34 69 15 69 C14.95101562 67.92363281 14.90203125 66.84726563 14.8515625 65.73828125 C14.40326468 56.71109896 13.57362887 47.91313226 12 39 C11.7525 37.39705078 11.7525 37.39705078 11.5 35.76171875 C11.14279999 33.05166917 11.14279999 33.05166917 10 31 C10.33 30.01 10.66 29.02 11 28 C10.34 27.67 9.68 27.34 9 27 C8.375 24.4375 8.375 24.4375 8 22 C7.34 22.33 6.68 22.66 6 23 C5.71125 22.38125 5.4225 21.7625 5.125 21.125 C4.06279958 18.86674235 4.06279958 18.86674235 2 17 C1.01 17.66 0.02 18.32 -1 19 C-0.68853528 20.89600369 -0.37578283 22.79179587 -0.0625 24.6875 C0.19853516 26.27111328 0.19853516 26.27111328 0.46484375 27.88671875 C0.79588435 29.81255346 1.15716248 31.73378618 1.56640625 33.64453125 C2.2562893 37.39227432 2 41.19796158 2 45 C1.01 45.495 1.01 45.495 0 46 C0 44.35 0 42.7 0 41 C-0.66 41 -1.32 41 -2 41 C-1.67 38.69 -1.34 36.38 -1 34 C-1.66 34 -2.32 34 -3 34 C-2.95359375 33.42894531 -2.9071875 32.85789063 -2.859375 32.26953125 C-2.5580124 25.49963568 -3.98988025 20.06256413 -6.22265625 13.6875 C-7 11 -7 11 -6 9 C-4.02 9.495 -4.02 9.495 -2 10 C-1.34 9.01 -0.68 8.02 0 7 C0.66 7.66 1.32 8.32 2 9 C2.33 8.01 2.66 7.02 3 6 C2.34 6 1.68 6 1 6 C0.67 4.02 0.34 2.04 0 0 Z " fill="#FA1C03" transform="translate(228,70)"/>
<path d="M0 0 C4.83256305 0.41421969 6.82679218 2.46413986 10 6 C8.68623083 8.90543872 7.27943508 10.96661059 5.01904297 13.20800781 C4.41857147 13.80832825 3.81809998 14.40864868 3.19943237 15.02716064 C2.55354156 15.66272888 1.90765076 16.29829712 1.2421875 16.953125 C0.57913605 17.61334656 -0.08391541 18.27356812 -0.76705933 18.95379639 C-2.88171832 21.05727824 -5.00323212 23.15369142 -7.125 25.25 C-8.56165557 26.67662261 -9.99785898 28.10370072 -11.43359375 29.53125 C-14.95050804 33.02613661 -18.47358547 36.51470062 -22 40 C-22.99 39.67 -23.98 39.34 -25 39 C-24.34 36.69 -23.68 34.38 -23 32 C-21.35 31.67 -19.7 31.34 -18 31 C-17.773125 30.071875 -17.54625 29.14375 -17.3125 28.1875 C-15.74902671 24.39049344 -14.44983343 23.98365422 -11 22 C-10.31246699 20.34183216 -9.64438717 18.67540664 -9 17 C-7 15.625 -7 15.625 -5 15 C-4.34 15.33 -3.68 15.66 -3 16 C-1.80712589 12.12315913 -1 9.08378077 -1 5 C-0.69595322 3.32774271 -0.36871088 1.65919896 0 0 Z " fill="#F74E13" transform="translate(82,121)"/>
<path d="M0 0 C0 1.32 0 2.64 0 4 C-1.423125 4.3403125 -1.423125 4.3403125 -2.875 4.6875 C-6.16154871 5.69639733 -6.16154871 5.69639733 -7.4375 8.5 C-8.27280484 10.98159334 -8.27280484 10.98159334 -7 13 C-7.66 13 -8.32 13 -9 13 C-8.21869929 15.49552484 -8.21869929 15.49552484 -7 18 C-6.01 18.33 -5.02 18.66 -4 19 C-3.67 18.34 -3.34 17.68 -3 17 C-1.68 17.33 -0.36 17.66 1 18 C0.67 20.31 0.34 22.62 0 25 C3.05263664 25.98120464 4.94736336 25.98120464 8 25 C8 25.99 8 26.98 8 28 C8.66 28.33 9.32 28.66 10 29 C9.67 29.99 9.34 30.98 9 32 C8.278125 31.54625 7.55625 31.0925 6.8125 30.625 C4.1597492 28.97109475 4.1597492 28.97109475 1.6875 28.2109375 C-1.6886911 26.6896886 -4.1450493 24.5066882 -6.8125 22 C-7.59427612 21.27393555 -7.59427612 21.27393555 -8.3918457 20.53320312 C-19.74111131 9.77666607 -19.74111131 9.77666607 -22 3 C-21.443125 3.2475 -20.88625 3.495 -20.3125 3.75 C-17.75949064 4.28353676 -17.75949064 4.28353676 -15.25 2.0625 C-14.5075 1.381875 -13.765 0.70125 -13 0 C-12.01 0.66 -11.02 1.32 -10 2 C-10 1.34 -10 0.68 -10 0 C-6.7169902 -1.6415049 -3.57454967 -0.51888624 0 0 Z " fill="#F85C05" transform="translate(55,191)"/>
<path d="M0 0 C4.73575537 2.20666048 8.06727346 5.00130027 10.3125 9.8125 C10.539375 10.534375 10.76625 11.25625 11 12 C8 12 5 12 2 12 C2 11.34 2 10.68 2 10 C1.01 10.66 0.02 11.32 -1 12 C-3.1875 11.625 -3.1875 11.625 -5 11 C-7.46823846 14.34401469 -7.46823846 14.34401469 -7.6875 18.3125 C-7.460625 18.869375 -7.23375 19.42625 -7 20 C-8.79036458 20.94401042 -10.58072917 21.88802083 -12.37109375 22.83203125 C-14.32267987 23.99019799 -14.32267987 23.99019799 -15 27 C-14.34 27.33 -13.68 27.66 -13 28 C-14.98 28.99 -14.98 28.99 -17 30 C-17.33 29.01 -17.66 28.02 -18 27 C-18.99 26.67 -19.98 26.34 -21 26 C-19.97792403 20.48078974 -16.91030693 16.6560166 -12.98828125 12.79296875 C-12.23095703 12.04208984 -11.47363281 11.29121094 -10.69335938 10.51757812 C-9.90767578 9.74865234 -9.12199219 8.97972656 -8.3125 8.1875 C-7.51521484 7.39923828 -6.71792969 6.61097656 -5.89648438 5.79882812 C-3.9354449 3.86127415 -1.96988119 1.92855724 0 0 Z " fill="#F66D07" transform="translate(127,164)"/>
<path d="M0 0 C5.7219035 4.7848938 11.11700968 9.83632941 16.4375 15.0625 C17.26443359 15.85205078 18.09136719 16.64160156 18.94335938 17.45507812 C19.72388672 18.22400391 20.50441406 18.99292969 21.30859375 19.78515625 C22.01814209 20.47488525 22.72769043 21.16461426 23.45874023 21.87524414 C25.32490604 24.44791023 25.32070066 25.89107011 25 29 C24.34 29.33 23.68 29.66 23 30 C22.608125 29.484375 22.21625 28.96875 21.8125 28.4375 C21.214375 27.963125 20.61625 27.48875 20 27 C17.34533951 27.23043864 17.34533951 27.23043864 15 28 C15 25.33333333 15 22.66666667 15 20 C12.03 20.33 9.06 20.66 6 21 C5.67 20.01 5.34 19.02 5 18 C3.68 18 2.36 18 1 18 C1.3125 15.625 1.3125 15.625 2 13 C5 11 5 11 7 11 C7.33 10.34 7.66 9.68 8 9 C5.69 8.67 3.38 8.34 1 8 C1 7.01 1 6.02 1 5 C0.68911632 3.32900023 0.35919668 1.66128463 0 0 Z " fill="#F5690C" transform="translate(65,172)"/>
<path d="M0 0 C0.66 0.33 1.32 0.66 2 1 C1.8125 2.875 1.8125 2.875 1 5 C-1.5 6.125 -1.5 6.125 -4 7 C-4.33 7.66 -4.66 8.32 -5 9 C-4.01 8.67 -3.02 8.34 -2 8 C-1.3125 9.8125 -1.3125 9.8125 -1 12 C-2.0625 13.6875 -2.0625 13.6875 -4 15 C-7.1875 15.6875 -7.1875 15.6875 -10 16 C-10.12375 16.763125 -10.2475 17.52625 -10.375 18.3125 C-11 21 -11 21 -13 24 C-12.34 24.33 -11.68 24.66 -11 25 C-11.33 26.65 -11.66 28.3 -12 30 C-13.32 29.01 -14.64 28.02 -16 27 C-17.98 27.99 -19.96 28.98 -22 30 C-23.37483857 24.7068715 -23.37483857 24.7068715 -21.734375 21.61328125 C-20.75210938 20.47439453 -20.75210938 20.47439453 -19.75 19.3125 C-19.0178125 18.46171875 -18.285625 17.6109375 -17.53125 16.734375 C-5.91911366 4.19040056 -5.91911366 4.19040056 0 0 Z " fill="#FC685B" transform="translate(65,41)"/>
<path d="M0 0 C0.66 0.33 1.32 0.66 2 1 C1.42655063 3.86724686 1.1385485 4.8614515 -1 7 C-1.99 7.495 -1.99 7.495 -3 8 C-5.86611786 11.85134588 -7.68203796 15.38713287 -9 20 C-10.32 19.67 -11.64 19.34 -13 19 C-12.01 19 -11.02 19 -10 19 C-10.66 17.35 -11.32 15.7 -12 14 C-12.33 14.66 -12.66 15.32 -13 16 C-13.99 16.66 -14.98 17.32 -16 18 C-5.77 28.23 4.46 38.46 15 49 C14.67 49.99 14.34 50.98 14 52 C3.11 41.11 -7.78 30.22 -19 19 C-17.39102704 15.78205409 -16.49925863 14.24426643 -14.1015625 11.8359375 C-13.53953125 11.27132812 -12.9775 10.70671875 -12.3984375 10.125 C-11.81320313 9.5475 -11.22796875 8.97 -10.625 8.375 C-10.0475 7.78976563 -9.47 7.20453125 -8.875 6.6015625 C-8.31039062 6.03953125 -7.74578125 5.4775 -7.1640625 4.8984375 C-6.39763428 4.13539307 -6.39763428 4.13539307 -5.61572266 3.35693359 C-3.8223974 1.85084388 -2.1803783 0.85568938 0 0 Z " fill="#F95118" transform="translate(183,110)"/>
<path d="M0 0 C4.97394981 1.36821416 8.76970485 3.6536914 12.875 6.6875 C13.48923828 7.13593262 14.10347656 7.58436523 14.73632812 8.04638672 C29.99955391 19.30039665 29.99955391 19.30039665 34 27 C33.505 28.485 33.505 28.485 33 30 C30.1875 30.6875 30.1875 30.6875 27 31 C25.125 29.5625 25.125 29.5625 24 28 C24.37125 27.4225 24.7425 26.845 25.125 26.25 C26.29166667 24 26.29166667 24 25.125 21.75 C24.568125 20.88375 24.568125 20.88375 24 20 C20.45481116 21.39759905 20.45481116 21.39759905 17 23 C17.75 18.25 17.75 18.25 20 16 C19.34 15.01 18.68 14.02 18 13 C15.19438238 12.71943824 13.53421737 12.73289132 11 14 C8.5 13.5 8.5 13.5 6 12 C4.8125 8.4375 4.8125 8.4375 4 5 C3.34 4.67 2.68 4.34 2 4 C2 4.99 2 5.98 2 7 C1.01 7 0.02 7 -1 7 C-0.649375 6.21625 -0.29875 5.4325 0.0625 4.625 C0.371875 3.75875 0.68125 2.8925 1 2 C0.67 1.34 0.34 0.68 0 0 Z " fill="#FD7163" transform="translate(176,33)"/>
<path d="M0 0 C1 2 1 2 0.44140625 3.9453125 C0.15136719 4.66460937 -0.13867188 5.38390625 -0.4375 6.125 C-0.72496094 6.84945312 -1.01242188 7.57390625 -1.30859375 8.3203125 C-1.53675781 8.87460938 -1.76492187 9.42890625 -2 10 C-2.66 10 -3.32 10 -4 10 C-4.02578125 10.89203125 -4.0515625 11.7840625 -4.078125 12.703125 C-4.13484375 13.87359375 -4.1915625 15.0440625 -4.25 16.25 C-4.31960937 17.99023438 -4.31960937 17.99023438 -4.390625 19.765625 C-5.10207563 23.54178605 -6.23719925 24.46968542 -9 27 C-9.64674153 28.97465819 -9.64674153 28.97465819 -9.6875 31 C-9.74292969 31.70125 -9.79835938 32.4025 -9.85546875 33.125 C-9.92701172 34.053125 -9.92701172 34.053125 -10 35 C-10.33333333 36.33333333 -10.66666667 37.66666667 -11 39 C-11.17705973 40.35284699 -11.34258173 41.7072271 -11.5 43.0625 C-12 47 -12 47 -13 50 C-13.78767457 63.09737946 -12.17597027 76.29611893 -9 89 C-8.34 89 -7.68 89 -7 89 C-5.80045372 93.34835527 -6 97.50846285 -6 102 C-17.20042569 85.19936147 -17.3870219 57.10127545 -14.08984375 38.01953125 C-11.35766965 24.50634586 -6.99711109 11.90261263 0 0 Z " fill="#D4260E" transform="translate(27,70)"/>
<path d="M0 0 C1.32 0.33 2.64 0.66 4 1 C4.5745952 4.73486879 5 8.21293268 5 12 C5.74640157 13.68751659 6.49467836 15.37433596 7.265625 17.05078125 C8.49317509 20.30901262 8.69682663 23.54382361 9 27 C8.01 27 7.02 27 6 27 C5.67 26.01 5.34 25.02 5 24 C4.67 23.34 4.34 22.68 4 22 C3.34 22.33 2.68 22.66 2 23 C2 22.01 2 21.02 2 20 C1.34 20 0.68 20 0 20 C0 18.68 0 17.36 0 16 C-0.78375 15.9175 -1.5675 15.835 -2.375 15.75 C-5 15 -5 15 -6.3125 12.9375 C-6.539375 12.298125 -6.76625 11.65875 -7 11 C-6.34 11 -5.68 11 -5 11 C-5.66 10.34 -6.32 9.68 -7 9 C-7.99 9.495 -7.99 9.495 -9 10 C-8.1875 7.5625 -8.1875 7.5625 -7 5 C-3.80926781 3.9364226 -3.06624043 4.10980117 0 5 C0.66 5 1.32 5 2 5 C1.34 3.35 0.68 1.7 0 0 Z " fill="#FA5A04" transform="translate(202,168)"/>
<path d="M0 0 C-0.33 0.66 -0.66 1.32 -1 2 C-3.3140622 2.73075648 -5.64828869 3.40138258 -8 4 C-7.505 5.485 -7.505 5.485 -7 7 C-12.04468729 9.21474076 -14.85910687 8.85072153 -20 7 C-20.66 7.66 -21.32 8.32 -22 9 C-22.969375 9.20625 -23.93875 9.4125 -24.9375 9.625 C-28.08144025 10.63058337 -28.08144025 10.63058337 -28.84765625 12.87109375 C-29.06292969 13.59425781 -29.27820313 14.31742188 -29.5 15.0625 C-30.14453125 17.22265625 -30.14453125 17.22265625 -31 19 C-34.1875 20 -34.1875 20 -37 20 C-37 20.99 -37 21.98 -37 23 C-38.98 23.33 -40.96 23.66 -43 24 C-42.34 23.34 -41.68 22.68 -41 22 C-41 20.68 -41 19.36 -41 18 C-41.66 17.67 -42.32 17.34 -43 17 C-41.33669441 15.91151325 -39.66914935 14.8295042 -38 13.75 C-37.071875 13.14671875 -36.14375 12.5434375 -35.1875 11.921875 C-28.67995154 7.99820607 -22.0829824 5.13240228 -14.875 2.75 C-14.10285156 2.481875 -13.33070312 2.21375 -12.53515625 1.9375 C-8.21574045 0.49524191 -4.61645353 -0.32447916 0 0 Z " fill="#FD9893" transform="translate(110,23)"/>
<path d="M0 0 C0.66 0.33 1.32 0.66 2 1 C2.625 3.5625 2.625 3.5625 3 6 C3 5.34 3 4.68 3 4 C3.66 4 4.32 4 5 4 C5 5.98 5 7.96 5 10 C7.8424854 11.57273568 7.8424854 11.57273568 11 12 C11 12.66 11 13.32 11 14 C11.66 14 12.32 14 13 14 C13.66 15.98 14.32 17.96 15 20 C15.99 20 16.98 20 18 20 C18.66 20.33 19.32 20.66 20 21 C20.40729228 23.32156597 20.74438677 25.6568787 21 28 C21.763125 27.9175 22.52625 27.835 23.3125 27.75 C26 28 26 28 27.875 29.6875 C29.27861489 32.57270838 28.92054342 33.98731243 28 37 C17 26 6 15 -5 4 C-3.36587557 2.29159719 -2.13093906 1.06546953 0 0 Z " fill="#F64E14" transform="translate(171,124)"/>
<path d="M0 0 C2.31890817 1.09213094 4.62949748 2.19775048 6.9375 3.3125 C7.59685547 3.62123047 8.25621094 3.92996094 8.93554688 4.24804688 C10.66276021 5.08950978 12.3360527 6.03947665 14 7 C14.33 7.99 14.66 8.98 15 10 C15.99 10 16.98 10 18 10 C17.4740625 10.928125 17.4740625 10.928125 16.9375 11.875 C16.628125 12.57625 16.31875 13.2775 16 14 C16.33 14.66 16.66 15.32 17 16 C15.35 16 13.7 16 12 16 C12 15.34 12 14.68 12 14 C10.68 14 9.36 14 8 14 C8 13.01 8 12.02 8 11 C7.236875 11.20625 6.47375 11.4125 5.6875 11.625 C3 12 3 12 0 10 C-0.546875 8.125 -0.546875 8.125 -0.75 6 C-0.82734375 5.29875 -0.9046875 4.5975 -0.984375 3.875 C-1 2 -1 2 0 0 Z " fill="#F67C07" transform="translate(73,219)"/>
<path d="M0 0 C-4.38442526 5.25174926 -9.00842093 10.13222473 -13.875 14.9375 C-14.56335938 15.62134766 -15.25171875 16.30519531 -15.9609375 17.00976562 C-17.63833511 18.67551464 -19.31803791 20.3388622 -21 22 C-21.99 20.68 -22.98 19.36 -24 18 C-19.5661157 9.89669421 -19.5661157 9.89669421 -17 8 C-15 8 -13 8 -11 8 C-9.92474806 5.34771188 -8.90543849 2.71631546 -8 0 C-5.13822943 -1.43088528 -3.06624227 -0.59991697 0 0 Z " fill="#FB6953" transform="translate(89,57)"/>
<path d="M0 0 C0.33 0.66 0.66 1.32 1 2 C0.67 2.66 0.34 3.32 0 4 C-0.66 4 -1.32 4 -2 4 C-2 4.66 -2 5.32 -2 6 C-1.34 6 -0.68 6 0 6 C-0.33 8.31 -0.66 10.62 -1 13 C-2.98 13 -4.96 13 -7 13 C-7 15.31 -7 17.62 -7 20 C-8.98 19.67 -10.96 19.34 -13 19 C-13.28875 19.639375 -13.5775 20.27875 -13.875 20.9375 C-15 23 -15 23 -17 24 C-17.50537897 21.20183557 -17.6797004 19.71317909 -17 17 C-14.53281509 13.63861174 -11.55005398 10.89192209 -8.5 8.0625 C-7.28376953 6.89364258 -7.28376953 6.89364258 -6.04296875 5.70117188 C-4.04350312 3.78403718 -2.02959595 1.88512377 0 0 Z " fill="#F6760D" transform="translate(183,179)"/>
<path d="M0 0 C8.95921415 7.54316814 11.73463148 23.09435656 14 34 C14.22558594 34.94617188 14.45117188 35.89234375 14.68359375 36.8671875 C16.89104875 47.37162851 16.17639757 58.3238761 16 69 C15.67 69 15.34 69 15 69 C14.95101562 67.92363281 14.90203125 66.84726563 14.8515625 65.73828125 C14.40326468 56.71109896 13.57362887 47.91313226 12 39 C11.835 37.93136719 11.67 36.86273438 11.5 35.76171875 C11.14279999 33.05166917 11.14279999 33.05166917 10 31 C10.33 30.01 10.66 29.02 11 28 C10.34 27.67 9.68 27.34 9 27 C8.3671875 24.27734375 8.3671875 24.27734375 7.875 20.9375 C7.70742187 19.83277344 7.53984375 18.72804688 7.3671875 17.58984375 C7.24601563 16.73519531 7.12484375 15.88054687 7 15 C6.34 15 5.68 15 5 15 C5 13.35 5 11.7 5 10 C4.34 10 3.68 10 3 10 C3 8.68 3 7.36 3 6 C2.34 6 1.68 6 1 6 C0.67 4.02 0.34 2.04 0 0 Z " fill="#CD220E" transform="translate(228,70)"/>
<path d="M0 0 C0.66 0 1.32 0 2 0 C1.04320071 4.40410977 0.06613835 8.79462282 -1.0703125 13.15625 C-5.73941168 31.87144811 -4.92001441 51.04597786 -2 70 C-4 69 -4 69 -5.10839844 65.95751953 C-6.16673353 61.88485861 -6.2887797 57.86867153 -6.265625 53.6796875 C-6.26849518 52.50891159 -6.26849518 52.50891159 -6.27142334 51.31448364 C-6.27277763 49.66896236 -6.2691343 48.02343012 -6.26074219 46.37792969 C-6.25011906 43.90274017 -6.26061792 41.42829094 -6.2734375 38.953125 C-6.28035524 29.76290768 -5.77855184 21.0446856 -4 12 C-3.34 12 -2.68 12 -2 12 C-2.04125 10.948125 -2.0825 9.89625 -2.125 8.8125 C-2.00852125 5.25989827 -1.52791932 3.15133359 0 0 Z " fill="#2E0200" transform="translate(17,86)"/>
<path d="M0 0 C-0.66 1.32 -1.32 2.64 -2 4 C-2.66 4 -3.32 4 -4 4 C-4.23332031 4.56847656 -4.46664062 5.13695312 -4.70703125 5.72265625 C-8.54645144 12.48513955 -16.53564787 17.82510592 -23 22 C-23.66 22 -24.32 22 -25 22 C-24.02738378 18.72847271 -23.34232413 17.25454871 -20.5625 15.1875 C-18 14 -18 14 -15 14 C-15 13.34 -15 12.68 -15 12 C-14.34 12 -13.68 12 -13 12 C-12.67 10.68 -12.34 9.36 -12 8 C-13.32 8 -14.64 8 -16 8 C-16 7.01 -16 6.02 -16 5 C-12.95613276 4.91773332 -10.92824652 5.02391783 -8 6 C-8 4.02 -8 2.04 -8 0 C-5.13822943 -1.43088528 -3.06624227 -0.59991697 0 0 Z " fill="#EB620D" transform="translate(216,203)"/>
<path d="M0 0 C4.6188849 1.31381615 7.96699445 3.13822843 11.8125 6 C12.76769531 6.70125 13.72289062 7.4025 14.70703125 8.125 C17 10 17 10 18 12 C14.50606412 13.23315384 11.88749694 14.13805508 8.1875 13.5625 C5.01227901 11.294485 4.873393 8.69512425 4 5 C3.34 4.67 2.68 4.34 2 4 C2 4.99 2 5.98 2 7 C1.01 7 0.02 7 -1 7 C-0.649375 6.21625 -0.29875 5.4325 0.0625 4.625 C0.371875 3.75875 0.68125 2.8925 1 2 C0.67 1.34 0.34 0.68 0 0 Z " fill="#FD8F88" transform="translate(176,33)"/>
<path d="M0 0 C2.9375 0.8125 2.9375 0.8125 6 2 C6.33 2.99 6.66 3.98 7 5 C7.99 5.33 8.98 5.66 10 6 C10.33 5.34 10.66 4.68 11 4 C12.32 4.33 13.64 4.66 15 5 C14.67 7.31 14.34 9.62 14 12 C17.05263664 12.98120464 18.94736336 12.98120464 22 12 C22 12.99 22 13.98 22 15 C22.66 15.33 23.32 15.66 24 16 C23.67 16.99 23.34 17.98 23 19 C22.278125 18.54625 21.55625 18.0925 20.8125 17.625 C18.16597389 15.97035303 18.16597389 15.97035303 15.71484375 15.23828125 C12.15800461 13.61595318 9.56571179 11.20913106 6.75 8.5625 C6.20859375 8.07201172 5.6671875 7.58152344 5.109375 7.07617188 C2.60315657 4.75478705 1.09682971 3.29048913 0 0 Z " fill="#F66606" transform="translate(41,204)"/>
<path d="M0 0 C1.36125 0.12375 1.36125 0.12375 2.75 0.25 C1.9375 2.1875 1.9375 2.1875 0.75 4.25 C-0.24 4.58 -1.23 4.91 -2.25 5.25 C-1.26 5.91 -0.27 6.57 0.75 7.25 C0.09 8.9 -0.57 10.55 -1.25 12.25 C-0.26 12.25 0.73 12.25 1.75 12.25 C1.42 13.24 1.09 14.23 0.75 15.25 C-2.21002571 13.87570235 -4.66439966 12.23229359 -7.25 10.25 C-7.91 9.92 -8.57 9.59 -9.25 9.25 C-9.58 9.91 -9.91 10.57 -10.25 11.25 C-12.25 9.25 -12.25 9.25 -12.375 6.625 C-12.33375 5.84125 -12.2925 5.0575 -12.25 4.25 C-11.5075 4.3325 -10.765 4.415 -10 4.5 C-7.1080299 4.53853355 -7.1080299 4.53853355 -5.3125 2.25 C-3.25 0.25 -3.25 0.25 0 0 Z M-4.25 7.25 C-3.25 9.25 -3.25 9.25 -3.25 9.25 Z " fill="#FA4B05" transform="translate(214.25,145.75)"/>
<path d="M0 0 C2.90543872 1.31376917 4.96661059 2.72056492 7.20800781 4.98095703 C8.10848846 5.88166428 8.10848846 5.88166428 9.02716064 6.80056763 C9.980513 7.76940384 9.980513 7.76940384 10.953125 8.7578125 C11.61334656 9.42086395 12.27356812 10.08391541 12.95379639 10.76705933 C15.05727824 12.88171832 17.15369142 15.00323212 19.25 17.125 C20.67662261 18.56165557 22.10370072 19.99785898 23.53125 21.43359375 C27.02613661 24.95050804 30.51470062 28.47358547 34 32 C33.67 32.99 33.34 33.98 33 35 C28.29333458 30.34389581 23.59441048 25.68008529 18.90087891 21.01074219 C17.30208228 19.42202543 15.70149831 17.83510531 14.09912109 16.25 C11.80097749 13.97601746 9.50926378 11.69572688 7.21875 9.4140625 C6.49691528 8.70255035 5.77508057 7.99103821 5.03137207 7.25796509 C4.37068726 6.59743134 3.71000244 5.93689758 3.02929688 5.25634766 C2.44305542 4.67454742 1.85681396 4.09274719 1.25280762 3.49331665 C0 2 0 2 0 0 Z " fill="#B53D30" transform="translate(164,127)"/>
<path d="M0 0 C-1.31376917 2.90543872 -2.72056492 4.96661059 -4.98095703 7.20800781 C-5.58142853 7.80832825 -6.18190002 8.40864868 -6.80056763 9.02716064 C-7.44645844 9.66272888 -8.09234924 10.29829712 -8.7578125 10.953125 C-9.42086395 11.61334656 -10.08391541 12.27356812 -10.76705933 12.95379639 C-12.88171832 15.05727824 -15.00323212 17.15369142 -17.125 19.25 C-18.56165557 20.67662261 -19.99785898 22.10370072 -21.43359375 23.53125 C-24.95050804 27.02613661 -28.47358547 30.51470062 -32 34 C-32.99 33.67 -33.98 33.34 -35 33 C-30.34389581 28.29333458 -25.68008529 23.59441048 -21.01074219 18.90087891 C-19.42202543 17.30208228 -17.83510531 15.70149831 -16.25 14.09912109 C-13.97601746 11.80097749 -11.69572688 9.50926378 -9.4140625 7.21875 C-8.70255035 6.49691528 -7.99103821 5.77508057 -7.25796509 5.03137207 C-6.59743134 4.37068726 -5.93689758 3.71000244 -5.25634766 3.02929688 C-4.67454742 2.44305542 -4.09274719 1.85681396 -3.49331665 1.25280762 C-2 0 -2 0 0 0 Z " fill="#B63D30" transform="translate(92,127)"/>
<path d="M0 0 C0.928125 -0.01224609 1.85625 -0.02449219 2.8125 -0.03710938 C3.699375 -0.03904297 4.58625 -0.04097656 5.5 -0.04296875 C6.3146875 -0.04707764 7.129375 -0.05118652 7.96875 -0.05541992 C10 0.1875 10 0.1875 12 2.1875 C9.47043472 5.2791909 6.77545388 6.09681332 3 7.1875 C2.34 6.5275 1.68 5.8675 1 5.1875 C0.1028125 5.4659375 0.1028125 5.4659375 -0.8125 5.75 C-3 6.1875 -3 6.1875 -5.75 4.75 C-6.4925 4.234375 -7.235 3.71875 -8 3.1875 C-8 3.8475 -8 4.5075 -8 5.1875 C-9.32 4.5275 -10.64 3.8675 -12 3.1875 C-12 2.5275 -12 1.8675 -12 1.1875 C-8.34657606 -0.63921197 -4.02160841 0.00279278 0 0 Z " fill="#FDBAB6" transform="translate(125,21.8125)"/>
<path d="M0 0 C0.66 0.33 1.32 0.66 2 1 C1.690625 2.175625 1.690625 2.175625 1.375 3.375 C1.25125 4.24125 1.1275 5.1075 1 6 C1.66 6.66 2.32 7.32 3 8 C3 8.99 3 9.98 3 11 C-0.13349732 12.04449911 -0.98968256 11.93423645 -4 11 C-4.66 12.65 -5.32 14.3 -6 16 C-9 16 -12 16 -15 16 C-14.58113525 15.58637207 -14.16227051 15.17274414 -13.73071289 14.74658203 C-11.83870591 12.87533169 -9.95056815 11.00022415 -8.0625 9.125 C-7.40314453 8.47402344 -6.74378906 7.82304687 -6.06445312 7.15234375 C-5.43603516 6.52714844 -4.80761719 5.90195313 -4.16015625 5.2578125 C-3.57886963 4.6817627 -2.99758301 4.10571289 -2.39868164 3.51220703 C-0.90048064 2.03347525 -0.90048064 2.03347525 0 0 Z " fill="#F55A05" transform="translate(199,162)"/>
<path d="M0 0 C0.66 0.33 1.32 0.66 2 1 C1.8125 2.875 1.8125 2.875 1 5 C-1.5 6.125 -1.5 6.125 -4 7 C-4.33 7.66 -4.66 8.32 -5 9 C-4.01 8.67 -3.02 8.34 -2 8 C-1.3125 9.8125 -1.3125 9.8125 -1 12 C-2.0625 13.6875 -2.0625 13.6875 -4 15 C-5.010625 15.165 -6.02125 15.33 -7.0625 15.5 C-8.031875 15.665 -9.00125 15.83 -10 16 C-10.66 16.99 -11.32 17.98 -12 19 C-12 11.87197551 -10.88172315 10.02465648 -6 5 C-4.05341967 3.24193983 -2.06456557 1.62215867 0 0 Z " fill="#FB8377" transform="translate(65,41)"/>
<path d="M0 0 C0.66 0 1.32 0 2 0 C2 11.88 2 23.76 2 36 C1.34 36 0.68 36 0 36 C0.01160156 36.63808594 0.02320313 37.27617187 0.03515625 37.93359375 C0.04417969 38.75988281 0.05320313 39.58617187 0.0625 40.4375 C0.07990234 41.67306641 0.07990234 41.67306641 0.09765625 42.93359375 C0 45 0 45 -1 46 C-1.12375 47.051875 -1.2475 48.10375 -1.375 49.1875 C-2.00185594 53.01132125 -3.11723722 55.6437707 -5 59 C-5.66 59 -6.32 59 -7 59 C-6.81824219 58.36835938 -6.63648438 57.73671875 -6.44921875 57.0859375 C-2.3010787 42.32281341 0.16705347 28.39969036 0.0625 13.0625 C0.05798828 11.80630859 0.05347656 10.55011719 0.04882812 9.25585938 C0.03709681 6.17052337 0.020681 3.08528684 0 0 Z " fill="#2E0100" transform="translate(243,112)"/>
<path d="M0 0 C2.36067791 1.96955968 4.68771244 3.97386379 7 6 C7.59425781 6.51433594 8.18851563 7.02867187 8.80078125 7.55859375 C12.91361118 11.33768569 12.91361118 11.33768569 13.375 14.875 C13.25125 15.57625 13.1275 16.2775 13 17 C12.34 17.33 11.68 17.66 11 18 C10.608125 17.484375 10.21625 16.96875 9.8125 16.4375 C8.9153125 15.7259375 8.9153125 15.7259375 8 15 C5.34533951 15.23043864 5.34533951 15.23043864 3 16 C3 15.01 3 14.02 3 13 C2.71676874 11.32811063 2.40123519 9.66153318 2.0625 8 C1.88847656 7.13375 1.71445313 6.2675 1.53515625 5.375 C1.01245781 2.87078037 1.01245781 2.87078037 0 0 Z " fill="#F37A17" transform="translate(77,184)"/>
<path d="M0 0 C0.66 0.33 1.32 0.66 2 1 C2 4 2 4 1 7 C1.66 7 2.32 7 3 7 C3 6.34 3 5.68 3 5 C5.97 5.495 5.97 5.495 9 6 C6.7360039 8.46717524 4.40939756 10.10134139 1.5 11.75 C0.7265625 12.19859375 -0.046875 12.6471875 -0.84375 13.109375 C-3 14 -3 14 -6 13 C-6 11.35 -6 9.7 -6 8 C-5.01 7.67 -4.02 7.34 -3 7 C-3.33 5.68 -3.66 4.36 -4 3 C-2.68 2.01 -1.36 1.02 0 0 Z " fill="#F57706" transform="translate(182,219)"/>
<path d="M0 0 C0.33 0 0.66 0 1 0 C1.04898437 0.825 1.09796875 1.65 1.1484375 2.5 C1.94289602 14.7730143 3.01031326 27.04125302 6 39 C6.66 39 7.32 39 8 39 C9.19954628 43.34835527 9 47.50846285 9 52 C-0.6842341 37.47364886 -0.31788169 16.72410885 0 0 Z " fill="#DD4014" transform="translate(12,120)"/>
<path d="M0 0 C0.99 0.66 1.98 1.32 3 2 C-2.28 7.28 -7.56 12.56 -13 18 C-14 15 -14 15 -13 12 C-13.66 11.67 -14.32 11.34 -15 11 C-13.71937515 9.2925002 -12.38232443 7.62626404 -11 6 C-10.34 6 -9.68 6 -9 6 C-8.67 6.66 -8.34 7.32 -8 8 C-7.4225 7.05125 -6.845 6.1025 -6.25 5.125 C-4.17183449 2.23865902 -3.24531925 1.15904259 0 0 Z " fill="#F86950" transform="translate(150,63)"/>
<path d="M0 0 C0 0.99 0 1.98 0 3 C-8.32567639 6.51452733 -15.85037462 9.38123439 -25 9 C-25.33 8.01 -25.66 7.02 -26 6 C-23.69 6.33 -21.38 6.66 -19 7 C-18.67 6.34 -18.34 5.68 -18 5 C-15.4375 4.375 -15.4375 4.375 -13 4 C-12.67 3.01 -12.34 2.02 -12 1 C-8.32433144 -0.61729417 -3.92760325 -0.06546005 0 0 Z " fill="#F9A84D" transform="translate(170,223)"/>
<path d="M0 0 C0.33 0 0.66 0 1 0 C2.02569532 14.78710758 -2.28113989 28.52317803 -8 42 C-8.33 42 -8.66 42 -9 42 C-9 40.35 -9 38.7 -9 37 C-8.34 37 -7.68 37 -7 37 C-7.3403125 35.1746875 -7.3403125 35.1746875 -7.6875 33.3125 C-8.10884239 30.06296894 -8.04879903 29.1064706 -6.625 26 C-6.08875 25.34 -5.5525 24.68 -5 24 C-4.67 24 -4.34 24 -4 24 C-2.21782063 17.94059015 -1.60815877 12.15835581 -1.24609375 5.85546875 C-1 3 -1 3 0 0 Z " fill="#E34311" transform="translate(242,134)"/>
<path d="M0 0 C0.99 0.99 1.98 1.98 3 3 C2.01 3 1.02 3 0 3 C0 4.32 0 5.64 0 7 C0.94875 6.938125 1.8975 6.87625 2.875 6.8125 C3.90625 6.874375 4.9375 6.93625 6 7 C8.67927341 11.01891012 8.15601248 13.24161923 8 18 C3.11950075 14.0580583 -1.0580583 9.88049925 -5 5 C-3.35 3.35 -1.7 1.7 0 0 Z " fill="#F8674D" transform="translate(112,63)"/>
<path d="M0 0 C2.31 0 4.62 0 7 0 C7.33 2.64 7.66 5.28 8 8 C9.65 8 11.3 8 13 8 C13.268125 9.093125 13.53625 10.18625 13.8125 11.3125 C14.87663739 14.61692663 15.34654664 15.94960422 18 18 C15 18 15 18 13.19067383 16.53125 C12.53607178 15.8609375 11.88146973 15.190625 11.20703125 14.5 C10.49482422 13.778125 9.78261719 13.05625 9.04882812 12.3125 C8.31083984 11.549375 7.57285156 10.78625 6.8125 10 C5.68811523 8.8553125 5.68811523 8.8553125 4.54101562 7.6875 C2.68713177 5.79819161 0.84058931 3.90224794 -1 2 C-0.67 1.34 -0.34 0.68 0 0 Z " fill="#FB6C5C" transform="translate(176,64)"/>
<path d="M0 0 C0.66 0 1.32 0 2 0 C1.31214639 3.97972446 -0.63253338 7.23692697 -2.625 10.6875 C-3.15480469 11.61199951 -3.15480469 11.61199951 -3.6953125 12.55517578 C-6.7120612 17.71462411 -10.13618441 22.43586783 -14 27 C-15.58158962 23.99112219 -16.43945339 21.36327963 -17 18 C-16.67 18.66 -16.34 19.32 -16 20 C-14.02 19.67 -12.04 19.34 -10 19 C-10.33 17.68 -10.66 16.36 -11 15 C-10.01 15 -9.02 15 -8 15 C-7.62875 13.9171875 -7.62875 13.9171875 -7.25 12.8125 C-5.88615909 9.74385796 -4.09045139 7.61306423 -2 5 C-0.75983331 2.3205355 -0.75983331 2.3205355 0 0 Z " fill="#EA5A0D" transform="translate(231,176)"/>
<path d="M0 0 C0.33 0.99 0.66 1.98 1 3 C-1.5730882 7.71625893 -4.76464778 10.74210939 -8.9375 14.0625 C-12.86096228 17.20226185 -16.46589754 20.43013934 -20 24 C-23.125 26.375 -23.125 26.375 -26 28 C-26.99 27.67 -27.98 27.34 -29 27 C-28.23816406 26.443125 -27.47632813 25.88625 -26.69140625 25.3125 C-15.43928555 17.89319554 -15.43928555 17.89319554 -7 8 C-6.34 8 -5.68 8 -5 8 C-4.731875 7.4225 -4.46375 6.845 -4.1875 6.25 C-2.98280141 3.9674132 -1.59201885 2.0262058 0 0 Z " fill="#240600" transform="translate(219,199)"/>
<path d="M0 0 C2.625 1.4375 2.625 1.4375 5 3 C4.08137175 6.17344304 3.61971964 7.64826723 0.6875 9.3125 C-2.00140087 10.00035836 -4.23807537 10.15782426 -7 10 C-7 9.34 -7 8.68 -7 8 C-7.66 8 -8.32 8 -9 8 C-8.67 7.01 -8.34 6.02 -8 5 C-6.35 4.67 -4.7 4.34 -3 4 C-2.67 3.01 -2.34 2.02 -2 1 C-1.34 0.67 -0.68 0.34 0 0 Z " fill="#F80903" transform="translate(72,27)"/>
<path d="M0 0 C1.11375 0.3403125 1.11375 0.3403125 2.25 0.6875 C2.25 1.0175 2.25 1.3475 2.25 1.6875 C12.48 2.0175 22.71 2.3475 33.25 2.6875 C29.91134832 4.91326779 28.80752439 4.94392147 24.91015625 4.953125 C23.84603516 4.95570313 22.78191406 4.95828125 21.68554688 4.9609375 C20.57244141 4.95320312 19.45933594 4.94546875 18.3125 4.9375 C17.23419922 4.94523438 16.15589844 4.95296875 15.04492188 4.9609375 C7.59967638 4.94309389 0.55054618 4.13263122 -6.75 2.6875 C-3.09375 -0.3515625 -3.09375 -0.3515625 0 0 Z " fill="#FBB24A" transform="translate(110.75,229.3125)"/>
<path d="M0 0 C4.455 0.99 4.455 0.99 9 2 C4.703125 7.46875 4.703125 7.46875 3 9 C-1 9 -1 9 -2.703125 7.46875 C-3.21359375 6.8190625 -3.7240625 6.169375 -4.25 5.5 C-4.77078125 4.8503125 -5.2915625 4.200625 -5.828125 3.53125 C-6.21484375 3.0259375 -6.6015625 2.520625 -7 2 C-5 2 -3 2 -1 2 C-0.67 1.34 -0.34 0.68 0 0 Z " fill="#F76040" transform="translate(127,79)"/>
<path d="M0 0 C0.99 0.33 1.98 0.66 3 1 C3.84480177 3.69374514 4.49647049 6.24653845 5.0625 9 C5.23168945 9.7736792 5.40087891 10.5473584 5.57519531 11.34448242 C5.90902317 12.87484838 6.23776883 14.40633316 6.56103516 15.93896484 C7.08646403 18.40596736 7.66839706 20.85821811 8.25 23.3125 C9.11775682 27.57897104 9 31.6684141 9 36 C8.01 36.495 8.01 36.495 7 37 C7 35.35 7 33.7 7 32 C6.34 32 5.68 32 5 32 C5.33 29.69 5.66 27.38 6 25 C5.34 25 4.68 25 4 25 C4.04640625 24.42894531 4.0928125 23.85789062 4.140625 23.26953125 C4.44067106 16.52921087 3.03734647 11.05440904 0.875 4.6875 C0 2 0 2 0 0 Z " fill="#F93211" transform="translate(221,79)"/>
<path d="M0 0 C0 3.84338023 -0.68019842 4.90693123 -3 8 C-5.2066687 9.81550585 -7.48333872 11.51910809 -9.765625 13.23828125 C-12.79320842 15.62541433 -14.88791852 17.76147507 -17 21 C-16.92087652 24.48143326 -16.46645256 25.53354744 -14 28 C-14.99 28 -15.98 28 -17 28 C-18.65 26.02 -20.3 24.04 -22 22 C-14.74 14.74 -7.48 7.48 0 0 Z " fill="#FEE9E3" transform="translate(79,70)"/>
<path d="M0 0 C-6.15507612 2.39677263 -11.49602437 3.4500516 -18.0859375 3.3984375 C-18.90953766 3.40130768 -19.73313782 3.40417786 -20.58169556 3.40713501 C-22.30430803 3.40915957 -24.02694436 3.4037435 -25.74951172 3.39111328 C-28.38951281 3.37491093 -31.02801187 3.3910793 -33.66796875 3.41015625 C-35.34896171 3.40817595 -37.02995373 3.40433671 -38.7109375 3.3984375 C-39.49842377 3.40451019 -40.28591003 3.41058289 -41.09725952 3.4168396 C-46.54149189 3.3464604 -46.54149189 3.3464604 -49.01806641 1.47509766 C-49.34210449 0.98831543 -49.66614258 0.5015332 -50 0 C-48.93136719 0.16113281 -47.86273438 0.32226562 -46.76171875 0.48828125 C-41.11912902 1.18910851 -35.49174525 1.19048392 -29.8125 1.1875 C-28.70495361 1.18886963 -27.59740723 1.19023926 -26.45629883 1.19165039 C-19.5749575 1.15070507 -13.09978754 0.76312758 -6.35546875 -0.66015625 C-3.8698569 -1.01877687 -2.38493742 -0.67095024 0 0 Z " fill="#260B00" transform="translate(156,242)"/>
<path d="M0 0 C1.98 0.66 3.96 1.32 6 2 C6 3.65 6 5.3 6 7 C3.03 6.505 3.03 6.505 0 6 C0 6.99 0 7.98 0 9 C-2.31 9 -4.62 9 -7 9 C-6.34 7.68 -5.68 6.36 -5 5 C-5.66 5 -6.32 5 -7 5 C-7 4.34 -7 3.68 -7 3 C-5.5459375 2.814375 -5.5459375 2.814375 -4.0625 2.625 C-2.5465625 2.315625 -2.5465625 2.315625 -1 2 C-0.67 1.34 -0.34 0.68 0 0 Z " fill="#F8A53F" transform="translate(112,216)"/>
<path d="M0 0 C0.66 1.32 1.32 2.64 2 4 C0.20963542 4.94401042 -1.58072917 5.88802083 -3.37109375 6.83203125 C-5.32267987 7.99019799 -5.32267987 7.99019799 -6 11 C-5.34 11.33 -4.68 11.66 -4 12 C-5.98 12.99 -5.98 12.99 -8 14 C-8.33 13.01 -8.66 12.02 -9 11 C-9.99 10.67 -10.98 10.34 -12 10 C-11.49396008 7.83125748 -11.00016187 6.00032373 -10 4 C-9.071875 3.855625 -8.14375 3.71125 -7.1875 3.5625 C-3.89089665 2.98074647 -2.46516491 2.1807228 0 0 Z " fill="#F57609" transform="translate(118,180)"/>
<path d="M0 0 C0.66 0.33 1.32 0.66 2 1 C1.01 2.485 1.01 2.485 0 4 C0.30840599 6.15274948 0.30840599 6.15274948 1 8 C0.236875 8.226875 -0.52625 8.45375 -1.3125 8.6875 C-4.18340701 9.77878596 -4.18340701 9.77878596 -5.4375 12.5 C-7.47868967 15.76590347 -9.34882752 16.10749117 -13 17 C-11.46203092 13.56546802 -9.4264398 10.85610724 -7.0625 7.9375 C-6.37285156 7.08027344 -5.68320312 6.22304688 -4.97265625 5.33984375 C-3.38385308 3.45530297 -1.77941245 1.70131911 0 0 Z " fill="#E1150A" transform="translate(47,44)"/>
<path d="M0 0 C0.66 0.33 1.32 0.66 2 1 C0.6100869 3.77982621 -1.18658353 3.87463341 -4 5 C-4.33 5.66 -4.66 6.32 -5 7 C-4.34 7 -3.68 7 -3 7 C-3 7.99 -3 8.98 -3 10 C-4.9375 10.5625 -4.9375 10.5625 -7 11 C-7.33 10.67 -7.66 10.34 -8 10 C-8.99 11.485 -8.99 11.485 -10 13 C-13.125 13.1875 -13.125 13.1875 -16 13 C-13.04972422 8.91114692 -9.98312884 6.40222393 -5.75 3.6875 C-4.13351563 2.64142578 -4.13351563 2.64142578 -2.484375 1.57421875 C-1.66453125 1.05472656 -0.8446875 0.53523438 0 0 Z " fill="#DE0F08" transform="translate(68,28)"/>
<path d="M0 0 C1 2 1 2 0.375 4.8125 C-1.4681483 9.08525289 -3.84069025 12.07458153 -8.1875 13.9375 C-8.785625 13.958125 -9.38375 13.97875 -10 14 C-10.66 13.34 -11.32 12.68 -12 12 C-8.04 8.04 -4.08 4.08 0 0 Z " fill="#F17513" transform="translate(120,171)"/>
<path d="M0 0 C0.33 0.66 0.66 1.32 1 2 C0.67 2.66 0.34 3.32 0 4 C-0.66 4 -1.32 4 -2 4 C-2 4.66 -2 5.32 -2 6 C-1.34 6 -0.68 6 0 6 C-0.33 8.31 -0.66 10.62 -1 13 C-2.32 12.34 -3.64 11.68 -5 11 C-4.34 11 -3.68 11 -3 11 C-3.33 10.34 -3.66 9.68 -4 9 C-5.32 9.33 -6.64 9.66 -8 10 C-8 10.66 -8 11.32 -8 12 C-9.53125 13.5078125 -9.53125 13.5078125 -11.5 15.125 C-12.1496875 15.66382813 -12.799375 16.20265625 -13.46875 16.7578125 C-13.9740625 17.16773438 -14.479375 17.57765625 -15 18 C-15.66 17.67 -16.32 17.34 -17 17 C-11.39 11.39 -5.78 5.78 0 0 Z " fill="#ED6C11" transform="translate(183,179)"/>
<path d="M0 0 C-0.33 0.66 -0.66 1.32 -1 2 C-3.3140622 2.73075648 -5.64828869 3.40138258 -8 4 C-7.67 4.99 -7.34 5.98 -7 7 C-13.28571429 9.42857143 -13.28571429 9.42857143 -17 8 C-15.54163185 4.15521125 -13.63541701 2.8177085 -10 1 C-6.67286218 -0.18059729 -3.50816855 -0.0797311 0 0 Z " fill="#FDA5A1" transform="translate(110,23)"/>
<path d="M0 0 C2.98228777 1.98819185 4.78519695 3.57646413 6 7 C5.67 7.66 5.34 8.32 5 9 C1.01133873 9.99716532 -2.0323069 10.0502717 -6 9 C-5.67 7.68 -5.34 6.36 -5 5 C-3.68 4.67 -2.36 4.34 -1 4 C-0.67 2.68 -0.34 1.36 0 0 Z " fill="#F67707" transform="translate(144,182)"/>
<path d="M0 0 C0.33 0 0.66 0 1 0 C1.13277344 0.84304687 1.26554687 1.68609375 1.40234375 2.5546875 C1.57894531 3.65039062 1.75554688 4.74609375 1.9375 5.875 C2.11152344 6.96554688 2.28554688 8.05609375 2.46484375 9.1796875 C2.85551159 11.93821546 2.85551159 11.93821546 4 14 C3.01 14.66 2.02 15.32 1 16 C-0.20450304 18.55183404 -0.20450304 18.55183404 -1 21 C-1.99 20.67 -2.98 20.34 -4 20 C-3.649375 19.443125 -3.29875 18.88625 -2.9375 18.3125 C-1.76811959 15.42802833 -2.23889658 13.96830334 -3 11 C-3 10.01 -3 9.02 -3 8 C-2.34 8.33 -1.68 8.66 -1 9 C-1.020625 7.88625 -1.04125 6.7725 -1.0625 5.625 C-1 2 -1 2 0 0 Z " fill="#FA310B" transform="translate(29,93)"/>
<path d="M0 0 C-7.28399258 8.68572311 -7.28399258 8.68572311 -11 12 C-11.99 12 -12.98 12 -14 12 C-14 11.34 -14 10.68 -14 10 C-13.195625 9.236875 -12.39125 8.47375 -11.5625 7.6875 C-8.8673058 4.86083292 -8.51687661 3.72151157 -8 0 C-5.13822943 -1.43088528 -3.06624227 -0.59991697 0 0 Z " fill="#FB7063" transform="translate(89,57)"/>
<path d="M0 0 C-0.61875 0.433125 -1.2375 0.86625 -1.875 1.3125 C-4.2197245 2.99740483 -4.2197245 2.99740483 -6 6 C-7.98 5.34 -9.96 4.68 -12 4 C-12.33 2.02 -12.66 0.04 -13 -2 C-7.69990734 -3.32502317 -4.74286737 -2.5408218 0 0 Z " fill="#FB8676" transform="translate(152,51)"/>
<path d="M0 0 C0.33 0 0.66 0 1 0 C4.02191845 13.40076931 4.3542772 26.29583122 4 40 C3.67 40 3.34 40 3 40 C2.95101562 38.92363281 2.90203125 37.84726563 2.8515625 36.73828125 C2.45134822 28.70164586 1.76076588 20.90452305 0.41015625 12.9609375 C-0.19000413 8.62835114 -0.17727709 4.36298608 0 0 Z " fill="#D43015" transform="translate(240,99)"/>
<path d="M0 0 C1 2 1 2 0.25 5.0625 C-0.1625 6.031875 -0.575 7.00125 -1 8 C-1.99 8.33 -2.98 8.66 -4 9 C-4.33 9.66 -4.66 10.32 -5 11 C-6.64363134 11.72159424 -8.31050386 12.39351421 -10 13 C-10 12.01 -10 11.02 -10 10 C-8 8.3125 -8 8.3125 -6 7 C-6.33 6.01 -6.66 5.02 -7 4 C-6.34 4 -5.68 4 -5 4 C-4.67 3.01 -4.34 2.02 -4 1 C-1.9375 0.3125 -1.9375 0.3125 0 0 Z " fill="#F90D01" transform="translate(53,43)"/>
<path d="M0 0 C6.875 3.75 6.875 3.75 8 6 C6.68 5.67 5.36 5.34 4 5 C2.74335022 7.90600261 2 9.79604584 2 13 C0.66382648 12.02471263 -0.6688751 11.04466681 -2 10.0625 C-3.11375 9.24458984 -3.11375 9.24458984 -4.25 8.41015625 C-4.8275 7.94480469 -5.405 7.47945312 -6 7 C-6 6.67 -6 6.34 -6 6 C-4.02 5.67 -2.04 5.34 0 5 C0 3.35 0 1.7 0 0 Z " fill="#EC150E" transform="translate(191,31)"/>
<path d="M0 0 C0.66 0.33 1.32 0.66 2 1 C2 1.99 2 2.98 2 4 C1.01 4.495 1.01 4.495 0 5 C0.020625 5.804375 0.04125 6.60875 0.0625 7.4375 C0 10 0 10 -1 11 C-2.99958364 11.04080783 -5.00045254 11.04254356 -7 11 C-6.34 10.67 -5.68 10.34 -5 10 C-5.66 8.02 -6.32 6.04 -7 4 C-4.35261084 2.5393715 -3.10551666 2 0 2 C0 1.34 0 0.68 0 0 Z " fill="#F87D07" transform="translate(177,222)"/>
<path d="M0 0 C4.7037037 1.48538012 4.7037037 1.48538012 6.1875 4.0625 C6.455625 4.701875 6.72375 5.34125 7 6 C7.66 6.33 8.32 6.66 9 7 C8.01 7.66 7.02 8.32 6 9 C5.34 8.34 4.68 7.68 4 7 C4 7.99 4 8.98 4 10 C1.36902268 9.64920302 0.29382638 9.37396084 -1.375 7.25 C-2.21193757 4.23702475 -1.36829407 2.73658813 0 0 Z " fill="#F70902" transform="translate(194,35)"/>
<path d="M0 0 C3.24983 -0.08728882 6.4993575 -0.14048658 9.75 -0.1875 C11.13058594 -0.22520508 11.13058594 -0.22520508 12.5390625 -0.26367188 C13.42851562 -0.27333984 14.31796875 -0.28300781 15.234375 -0.29296875 C16.05131836 -0.3086792 16.86826172 -0.32438965 17.70996094 -0.34057617 C20.51240627 0.07620541 21.88847021 1.16195148 24 3 C23.67 3.99 23.34 4.98 23 6 C21.0625 6.5625 21.0625 6.5625 19 7 C18.34 7.66 17.68 8.32 17 9 C17 6.66666667 17 4.33333333 17 2 C11.39 1.67 5.78 1.34 0 1 C0 0.67 0 0.34 0 0 Z " fill="#FEA198" transform="translate(118,21)"/>
<path d="M0 0 C0.33 0.66 0.66 1.32 1 2 C-0.24450435 5.73351304 -1.76496105 6.58919523 -4.875 8.9375 C-9.41713478 12.37389643 -12.96483662 15.20308509 -14 21 C-14.99 19.68 -15.98 18.36 -17 17 C-11.39 11.39 -5.78 5.78 0 0 Z " fill="#FEEFE7" transform="translate(74,146)"/>
<path d="M0 0 C2.61113596 1.30556798 4.12972515 2.75567018 6 5 C6.25 7.75 6.25 7.75 6 10 C4.35 10.33 2.7 10.66 1 11 C-1.78637633 6.8204355 -0.79562512 4.85331323 0 0 Z " fill="#FA0E03" transform="translate(207,46)"/>
<path d="M0 0 C0 3.62453269 -0.92469613 5.07920195 -3 8 C-3.99 8.33 -4.98 8.66 -6 9 C-6 9.99 -6 10.98 -6 12 C-6.66 12 -7.32 12 -8 12 C-8.33 12.66 -8.66 13.32 -9 14 C-11.5625 14.625 -11.5625 14.625 -14 15 C-9.59156563 9.70987876 -4.92440206 4.81191572 0 0 Z " fill="#EA6133" transform="translate(179,112)"/>
<path d="M0 0 C0.99 0.66 1.98 1.32 3 2 C0.03 4.97 -2.94 7.94 -6 11 C-6.99 9.68 -7.98 8.36 -9 7 C-8.67 6.01 -8.34 5.02 -8 4 C-7.34 4 -6.68 4 -6 4 C-6 3.01 -6 2.02 -6 1 C-5.34 1.33 -4.68 1.66 -4 2 C-2.67139075 2.35169068 -1.33841672 2.68770276 0 3 C0 2.01 0 1.02 0 0 Z " fill="#FC746A" transform="translate(160,53)"/>
<path d="M0 0 C1.32 0.33 2.64 0.66 4 1 C2.25084555 2.43852875 0.50064205 3.87578198 -1.25 5.3125 C-2.71179688 6.51326172 -2.71179688 6.51326172 -4.203125 7.73828125 C-10.70984456 13 -10.70984456 13 -13 13 C-12.02738378 9.72847271 -11.34232413 8.25454871 -8.5625 6.1875 C-6 5 -6 5 -3 5 C-3 4.34 -3 3.68 -3 3 C-2.34 3 -1.68 3 -1 3 C-0.67 2.01 -0.34 1.02 0 0 Z " fill="#E46E17" transform="translate(204,212)"/>
<path d="M0 0 C4.88049925 3.9419417 9.0580583 8.11950075 13 13 C10 13 10 13 7 12 C7 11.34 7 10.68 7 10 C5.35 9.67 3.7 9.34 2 9 C1.855625 8.071875 1.71125 7.14375 1.5625 6.1875 C1.07899889 2.99274889 1.07899889 2.99274889 0 0 Z " fill="#EA7E22" transform="translate(136,172)"/>
<path d="M0 0 C0.99 0.33 1.98 0.66 3 1 C2.34 2.65 1.68 4.3 1 6 C1.66 6.66 2.32 7.32 3 8 C-0.22791555 10.1519437 -1.28400809 10.20086443 -5 10 C-5.3125 7.8125 -5.3125 7.8125 -5 5 C-2.5 2.1875 -2.5 2.1875 0 0 Z " fill="#FD7463" transform="translate(52,53)"/>
<path d="M0 0 C0.33 0 0.66 0 1 0 C1.02687279 1.81242052 1.04633715 3.62495233 1.0625 5.4375 C1.07410156 6.44683594 1.08570313 7.45617187 1.09765625 8.49609375 C1 11 1 11 0 12 C-0.12375 13.051875 -0.2475 14.10375 -0.375 15.1875 C-1.00185594 19.01132125 -2.11723722 21.6437707 -4 25 C-4.66 25 -5.32 25 -6 25 C-5.72736328 24.05253906 -5.72736328 24.05253906 -5.44921875 23.0859375 C-3.30482106 15.45408112 -1.59795595 7.76311933 0 0 Z " fill="#390801" transform="translate(242,146)"/>
<path d="M0 0 C2.375 0.25 2.375 0.25 5 1 C6.3125 3.0625 6.3125 3.0625 7 5 C4.23776722 7.76223278 1.79293383 7.57856291 -2 8 C-2.33 7.01 -2.66 6.02 -3 5 C-2.34 5 -1.68 5 -1 5 C-0.67 3.35 -0.34 1.7 0 0 Z " fill="#F76B06" transform="translate(73,185)"/>
<path d="M0 0 C4.53786224 2.26893112 5.94678157 4.09866534 9 8 C8.01 8.495 8.01 8.495 7 9 C6.566875 8.505 6.13375 8.01 5.6875 7.5 C4.00259517 5.66781808 4.00259517 5.66781808 1 6 C-1.33564933 6.31669821 -3.6693782 6.64820803 -6 7 C-4.02 4.69 -2.04 2.38 0 0 Z " fill="#F07521" transform="translate(127,164)"/>
<path d="M0 0 C0.33 0.99 0.66 1.98 1 3 C2.91666667 3.83333333 2.91666667 3.83333333 5 4 C5.66 3.67 6.32 3.34 7 3 C7.66 3.33 8.32 3.66 9 4 C9 4.99 9 5.98 9 7 C8.34 7.66 7.68 8.32 7 9 C7.66 9 8.32 9 9 9 C8.67 9.99 8.34 10.98 8 12 C3.86378916 8.6189962 0.18683431 5.33409466 -3 1 C-2.01 0.67 -1.02 0.34 0 0 Z " fill="#FB786B" transform="translate(167,53)"/>
<path d="M0 0 C3 1 3 1 5 3 C7.10820797 2.6814823 7.10820797 2.6814823 9 2 C9.33 3.32 9.66 4.64 10 6 C11.98 5.67 13.96 5.34 16 5 C16.33 5.99 16.66 6.98 17 8 C10.38914524 7.51030705 5.05022986 5.66557258 -1 3 C-0.67 2.01 -0.34 1.02 0 0 Z " fill="#FBA744" transform="translate(87,223)"/>
<path d="M0 0 C0 0.99 0 1.98 0 3 C0.66 3.33 1.32 3.66 2 4 C-0.475 5.485 -0.475 5.485 -3 7 C-3 6.34 -3 5.68 -3 5 C-3.66 5 -4.32 5 -5 5 C-5 4.34 -5 3.68 -5 3 C-6.98 3.99 -6.98 3.99 -9 5 C-9 3.68 -9 2.36 -9 1 C-3.375 -1.125 -3.375 -1.125 0 0 Z " fill="#F4790A" transform="translate(135,185)"/>
<path d="M0 0 C3.71423292 3.20192493 5.3324251 6.41416902 7 11 C7 11.99 7 12.98 7 14 C5.35 14.33 3.7 14.66 2 15 C2.03480469 14.12988281 2.03480469 14.12988281 2.0703125 13.2421875 C2.18250423 8.38588834 1.87514915 4.57067605 0 0 Z " fill="#EA1A07" transform="translate(222,61)"/>
<path d="M0 0 C0.66 0.33 1.32 0.66 2 1 C1.67 2.65 1.34 4.3 1 6 C-0.43554025 6.50559908 -1.8735202 7.0042749 -3.3125 7.5 C-4.51326172 7.91765625 -4.51326172 7.91765625 -5.73828125 8.34375 C-8 9 -8 9 -11 9 C-9.92319498 7.86874978 -8.83824365 6.74525081 -7.75 5.625 C-7.14671875 4.99851562 -6.5434375 4.37203125 -5.921875 3.7265625 C-4.00464483 2.0041728 -2.40910118 0.90590168 0 0 Z " fill="#EF5A30" transform="translate(191,102)"/>
<path d="M0 0 C3.69459731 0.19970796 4.78742451 0.76444338 7.3125 3.5625 C8.1478125 4.7690625 8.1478125 4.7690625 9 6 C8.01 6.66 7.02 7.32 6 8 C5.34 6.68 4.68 5.36 4 4 C3.071875 4.99 3.071875 4.99 2.125 6 C0 8 0 8 -2 8 C-1.649375 7.401875 -1.29875 6.80375 -0.9375 6.1875 C0.33304698 3.89186786 0.33304698 3.89186786 -1 1 C-0.67 0.67 -0.34 0.34 0 0 Z " fill="#F85413" transform="translate(82,121)"/>
<path d="M0 0 C0.66 0.33 1.32 0.66 2 1 C-2.14420531 5.03794364 -5.13832875 6.59991376 -10.82421875 7.59375 C-13.22926623 7.98315684 -13.22926623 7.98315684 -16.3125 9.1875 C-19.19075776 10.05767095 -20.21381365 9.83763812 -23 9 C-21.84242188 8.60167969 -20.68484375 8.20335937 -19.4921875 7.79296875 C-17.95305112 7.25802501 -16.41399273 6.72285685 -14.875 6.1875 C-14.11445313 5.92646484 -13.35390625 5.66542969 -12.5703125 5.39648438 C-9.0851404 4.1796786 -5.86419175 2.93023973 -2.5703125 1.23828125 C-1.72210938 0.82964844 -0.87390625 0.42101562 0 0 Z " fill="#361201" transform="translate(180,231)"/>
<path d="M0 0 C0.99 0.33 1.98 0.66 3 1 C3 1.99 3 2.98 3 4 C4.30576503 5.88669495 4.30576503 5.88669495 6 7.6875 C6.556875 8.31011719 7.11375 8.93273437 7.6875 9.57421875 C8.120625 10.04472656 8.55375 10.51523438 9 11 C7.02 10.34 5.04 9.68 3 9 C3 8.34 3 7.68 3 7 C0.52733235 7.34444881 0.52733235 7.34444881 -2 8 C-2.33 8.66 -2.66 9.32 -3 10 C-3 9.01 -3 8.02 -3 7 C-2.34 7 -1.68 7 -1 7 C-1.020625 6.030625 -1.04125 5.06125 -1.0625 4.0625 C-1 1 -1 1 0 0 Z " fill="#EC5C19" transform="translate(56,161)"/>
<path d="M0 0 C1.1446875 0.495 1.1446875 0.495 2.3125 1 C4.99069135 2.17436686 4.99069135 2.17436686 8 2 C8.33 1.34 8.66 0.68 9 0 C9.66 1.65 10.32 3.3 11 5 C10.01 5.33 9.02 5.66 8 6 C8.99 6.66 9.98 7.32 11 8 C10.67 8.99 10.34 9.98 10 11 C8.33035479 9.35718838 6.6643536 7.71067239 5 6.0625 C4.071875 5.14597656 3.14375 4.22945312 2.1875 3.28515625 C0 1 0 1 0 0 Z " fill="#FA7668" transform="translate(93,54)"/>
<path d="M0 0 C0 2.83967231 -0.40267181 5.23735711 -1 8 C-2.65 8.33 -4.3 8.66 -6 9 C-6.33 9.99 -6.66 10.98 -7 12 C-8.65 12.33 -10.3 12.66 -12 13 C-8.19524578 8.43969176 -4.25030379 4.14910608 0 0 Z " fill="#E8862B" transform="translate(107,184)"/>
<path d="M0 0 C1.53445094 3.06890187 0.54984289 5.70094266 0 9 C-3 9 -6 9 -9 9 C-6.03 6.03 -3.06 3.06 0 0 Z " fill="#F06311" transform="translate(193,169)"/>
<path d="M0 0 C0.99 0.66 1.98 1.32 3 2 C1.3790787 3.17232685 -0.24686833 4.3377077 -1.875 5.5 C-2.77992187 6.1496875 -3.68484375 6.799375 -4.6171875 7.46875 C-7 9 -7 9 -9 9 C-8.6875 6.625 -8.6875 6.625 -8 4 C-4.77208445 1.8480563 -3.71599191 1.79913557 0 2 C0 1.34 0 0.68 0 0 Z " fill="#F21712" transform="translate(70,35)"/>
<path d="M0 0 C0.66 0 1.32 0 2 0 C1.09476787 4.2002771 -0.90282094 7.57966461 -3.0625 11.25 C-3.43955078 11.8996875 -3.81660156 12.549375 -4.20507812 13.21875 C-5.13234115 14.81505091 -6.06558456 16.40787529 -7 18 C-8 15 -8 15 -7.3125 12.625 C-5.86453074 9.72906149 -4.01851718 7.52314647 -2 5 C-0.75983331 2.3205355 -0.75983331 2.3205355 0 0 Z " fill="#DC5417" transform="translate(231,176)"/>
<path d="M0 0 C0.99 0.99 1.98 1.98 3 3 C1.9171875 3.309375 1.9171875 3.309375 0.8125 3.625 C-2.9229645 5.45122709 -4.43587487 7.74286807 -7 11 C-7.99 11.495 -7.99 11.495 -9 12 C-9.33 12.66 -9.66 13.32 -10 14 C-10.99 13.67 -11.98 13.34 -13 13 C-8.71 8.71 -4.42 4.42 0 0 Z " fill="#FEECE7" transform="translate(163,57)"/>
<path d="M0 0 C1.65 0 3.3 0 5 0 C2.7360039 2.46717524 0.40939756 4.10134139 -2.5 5.75 C-3.66015625 6.42289063 -3.66015625 6.42289063 -4.84375 7.109375 C-7 8 -7 8 -10 7 C-8.3125 4.5 -8.3125 4.5 -6 2 C-3.25 1.6875 -3.25 1.6875 -1 2 C-0.67 1.34 -0.34 0.68 0 0 Z " fill="#DF751A" transform="translate(186,225)"/>
<path d="M0 0 C0.99 0 1.98 0 3 0 C2.45650964 3.80443255 0.96915847 5.6081779 -2 8 C-4.75 8.75 -4.75 8.75 -7 9 C-6.67 7.68 -6.34 6.36 -6 5 C-4.35 4.67 -2.7 4.34 -1 4 C-0.67 2.68 -0.34 1.36 0 0 Z " fill="#F77C0D" transform="translate(101,192)"/>
<path d="M0 0 C1.65 0 3.3 0 5 0 C5.268125 1.093125 5.53625 2.18625 5.8125 3.3125 C6.87663739 6.61692663 7.34654664 7.94960422 10 10 C7 10 7 10 4.95703125 8.25 C4.24933594 7.5075 3.54164063 6.765 2.8125 6 C2.09707031 5.2575 1.38164062 4.515 0.64453125 3.75 C0.10183594 3.1725 -0.44085938 2.595 -1 2 C-0.67 1.34 -0.34 0.68 0 0 Z " fill="#FA624F" transform="translate(184,72)"/>
<path d="M0 0 C0 0.99 0 1.98 0 3 C-0.66 3 -1.32 3 -2 3 C-3.61949011 5.57213134 -4.04408751 6.67669159 -3.625 9.75 C-3.315625 10.86375 -3.315625 10.86375 -3 12 C-4.98 12.33 -6.96 12.66 -9 13 C-8.34 12.34 -7.68 11.68 -7 11 C-7 9.68 -7 8.36 -7 7 C-7.66 6.67 -8.32 6.34 -9 6 C-6.03 4.02 -3.06 2.04 0 0 Z " fill="#FC9084" transform="translate(76,34)"/>
<path d="M0 0 C0.99 0.99 1.98 1.98 3 3 C2.01 3 1.02 3 0 3 C0 4.32 0 5.64 0 7 C0.99 7 1.98 7 3 7 C3 7.66 3 8.32 3 9 C1.68 9.33 0.36 9.66 -1 10 C-2.32 8.35 -3.64 6.7 -5 5 C-3.35 3.35 -1.7 1.7 0 0 Z " fill="#F86F59" transform="translate(112,63)"/>
<path d="M0 0 C-2.8374184 2.38343145 -5.70087712 3.78451487 -9.125 5.171875 C-11.11486145 6.05073047 -12.9410771 7.08024145 -14.8125 8.1875 C-18 10 -18 10 -20 10 C-20 9.34 -20 8.68 -20 8 C-19.01 8 -18.02 8 -17 8 C-17 7.34 -17 6.68 -17 6 C-14.35261084 4.5393715 -13.10551666 4 -10 4 C-10 3.34 -10 2.68 -10 2 C-6.49223216 0.39644899 -3.85645121 -0.22036864 0 0 Z " fill="#2B0000" transform="translate(86,19)"/>
<path d="M0 0 C4.13621084 3.3810038 7.81316569 6.66590534 11 11 C10.484375 10.731875 9.96875 10.46375 9.4375 10.1875 C6.33598585 8.67650593 3.17737194 7.34427274 0 6 C0 4.02 0 2.04 0 0 Z " fill="#E9862B" transform="translate(149,185)"/>
<path d="M0 0 C0.73614485 2.54158041 1.04490047 3.80543132 0.4375 6.4375 C-1.5004966 9.89218959 -3.8547472 11.60687287 -7 14 C-5.23570801 9.02790438 -2.6060834 4.56561939 0 0 Z " fill="#2F0701" transform="translate(232,179)"/>
<path d="M0 0 C7.48291572 6.15034169 7.48291572 6.15034169 10 10 C5.545 9.01 5.545 9.01 1 8 C1 7.01 1 6.02 1 5 C0.68911632 3.32900023 0.35919668 1.66128463 0 0 Z " fill="#E76518" transform="translate(65,172)"/>
<path d="M0 0 C0.33 0.66 0.66 1.32 1 2 C-0.24230499 5.72691498 -1.82528095 6.76098441 -4.875 9.1875 C-5.75929688 9.90292969 -6.64359375 10.61835938 -7.5546875 11.35546875 C-10 13 -10 13 -13 13 C-8.71 8.71 -4.42 4.42 0 0 Z " fill="#FEF2EF" transform="translate(90,130)"/>
<path d="M0 0 C4.67692308 1.47692308 4.67692308 1.47692308 6.3125 4.125 C6.539375 4.74375 6.76625 5.3625 7 6 C4.625 6.625 4.625 6.625 2 7 C0 5 0 5 -0.125 2.375 C-0.08375 1.59125 -0.0425 0.8075 0 0 Z " fill="#F57D0B" transform="translate(152,192)"/>
<path d="M0 0 C1.98 0.495 1.98 0.495 4 1 C4.33 2.65 4.66 4.3 5 6 C1.25 7.125 1.25 7.125 -1 6 C-0.67 4.02 -0.34 2.04 0 0 Z " fill="#F45424" transform="translate(75,113)"/>
<path d="M0 0 C7.48291572 6.15034169 7.48291572 6.15034169 10 10 C9.01 10 8.02 10 7 10 C7 9.34 7 8.68 7 8 C6.01 7.67 5.02 7.34 4 7 C3.67 6.34 3.34 5.68 3 5 C-0.02934491 4.34227572 -0.02934491 4.34227572 -3 4 C-2.01 2.68 -1.02 1.36 0 0 Z " fill="#FEEBE6" transform="translate(92,57)"/>
<path d="M0 0 C2.04119788 1.61594832 4.04072937 3.2856382 6 5 C6 5.66 6 6.32 6 7 C5.34 7 4.68 7 4 7 C4 7.66 4 8.32 4 9 C1.5 10.625 1.5 10.625 -1 12 C-0.25 7.25 -0.25 7.25 2 5 C1.34 3.35 0.68 1.7 0 0 Z " fill="#FD8074" transform="translate(194,44)"/>
<path d="M0 0 C2.64 0.33 5.28 0.66 8 1 C2.84335444 3.76248869 -1.12905966 4.1129027 -7 4 C-7.33 3.01 -7.66 2.02 -8 1 C-5.69 1.33 -3.38 1.66 -1 2 C-0.67 1.34 -0.34 0.68 0 0 Z " fill="#FDB04E" transform="translate(152,228)"/>
<path d="M0 0 C1.875 0.3125 1.875 0.3125 4 1 C6 4 6 4 5.625 6.1875 C5.41875 6.785625 5.2125 7.38375 5 8 C4.16382818 6.8562364 3.33113541 5.70992861 2.5 4.5625 C2.0359375 3.92441406 1.571875 3.28632813 1.09375 2.62890625 C0 1 0 1 0 0 Z M7 -1 C7.66 -0.34 8.32 0.32 9 1 C8.34 1 7.68 1 7 1 C6.67 1.66 6.34 2.32 6 3 C5.67 2.01 5.34 1.02 5 0 C5.66 -0.33 6.32 -0.66 7 -1 Z " fill="#E45910" transform="translate(33,194)"/>
<path d="M0 0 C0.66 1.32 1.32 2.64 2 4 C1.34 4 0.68 4 0 4 C0 6.31 0 8.62 0 11 C-3.44216672 8.3401439 -3.99504674 5.09711714 -5 1 C-3.35 0.67 -1.7 0.34 0 0 Z " fill="#E34C11" transform="translate(26,171)"/>
<path d="M0 0 C1.65 0 3.3 0 5 0 C5 0.66 5 1.32 5 2 C8.465 1.505 8.465 1.505 12 1 C12.33 2.32 12.66 3.64 13 5 C10 6 10 6 7.51953125 5.00390625 C6.62621094 4.52824219 5.73289063 4.05257812 4.8125 3.5625 C3.91144531 3.08941406 3.01039063 2.61632812 2.08203125 2.12890625 C1.39496094 1.75636719 0.70789063 1.38382813 0 1 C0 0.67 0 0.34 0 0 Z " fill="#EE150F" transform="translate(170,29)"/>
<path d="M0 0 C0.99 0.66 1.98 1.32 3 2 C0.75 4.5625 0.75 4.5625 -2 7 C-4.3125 6.8125 -4.3125 6.8125 -6 6 C-4.95125002 3.37812506 -4.35068687 2.20628639 -1.875 0.75 C-1.25625 0.5025 -0.6375 0.255 0 0 Z " fill="#F76F5B" transform="translate(150,63)"/>
<path d="M0 0 C1.125 1.75 1.125 1.75 2 4 C0.99659644 7.01021068 -0.67503273 8.88639339 -3 11 C-3 3.625 -3 3.625 0 0 Z " fill="#FD7B70" transform="translate(56,49)"/>
<path d="M0 0 C1.77706209 2.66559313 2.87548273 5.0280615 4 8 C2.35 8.33 0.7 8.66 -1 9 C-1 5.88772805 -0.54372951 3.05847848 0 0 Z " fill="#F7750C" transform="translate(81,191)"/>
<path d="M0 0 C0.66 0.33 1.32 0.66 2 1 C2 1.66 2 2.32 2 3 C0.68 3.33 -0.64 3.66 -2 4 C-2 4.66 -2 5.32 -2 6 C-3.53125 7.5078125 -3.53125 7.5078125 -5.5 9.125 C-6.1496875 9.66382813 -6.799375 10.20265625 -7.46875 10.7578125 C-7.9740625 11.16773438 -8.479375 11.57765625 -9 12 C-9.66 11.67 -10.32 11.34 -11 11 C-7.37 7.37 -3.74 3.74 0 0 Z " fill="#E37B29" transform="translate(177,185)"/>
<path d="M0 0 C0.33 0 0.66 0 1 0 C1.13277344 0.84304687 1.26554687 1.68609375 1.40234375 2.5546875 C1.57894531 3.65039062 1.75554688 4.74609375 1.9375 5.875 C2.19853516 7.51082031 2.19853516 7.51082031 2.46484375 9.1796875 C2.85551159 11.93821546 2.85551159 11.93821546 4 14 C2.02 14.99 2.02 14.99 0 16 C-0.19441368 13.7089095 -0.38033135 11.41709663 -0.5625 9.125 C-0.71912109 7.21074219 -0.71912109 7.21074219 -0.87890625 5.2578125 C-1 2 -1 2 0 0 Z " fill="#FB3F1C" transform="translate(29,93)"/>
<path d="M0 0 C7.57142857 6.28571429 7.57142857 6.28571429 10 10 C8 9 6 8 4 7 C3.67 7.66 3.34 8.32 3 9 C2.01 6.03 1.02 3.06 0 0 Z " fill="#E47623" transform="translate(77,184)"/>
<path d="M0 0 C0.99 0.33 1.98 0.66 3 1 C0.03 3.97 -2.94 6.94 -6 10 C-6.33 9.01 -6.66 8.02 -7 7 C-5.625 5.5 -5.625 5.5 -4 4 C-3.34 4 -2.68 4 -2 4 C-1.34 2.68 -0.68 1.36 0 0 Z " fill="#F44B1D" transform="translate(81,133)"/>
<path d="M0 0 C2.31 0.33 4.62 0.66 7 1 C4.17446016 5.23830976 1.87819112 4.97715348 -3 6 C-3.33 5.01 -3.66 4.02 -4 3 C-3.34 2.67 -2.68 2.34 -2 2 C-1.34 2.33 -0.68 2.66 0 3 C0 2.01 0 1.02 0 0 Z " fill="#F8A83E" transform="translate(137,218)"/>
<path d="M0 0 C0 2.83967231 -0.40267181 5.23735711 -1 8 C-2.875 8.625 -2.875 8.625 -5 9 C-5.66 8.34 -6.32 7.68 -7 7 C-4.69 4.69 -2.38 2.38 0 0 Z " fill="#E97E28" transform="translate(115,176)"/>
<path d="M0 0 C0.33 0.99 0.66 1.98 1 3 C1.66 3 2.32 3 3 3 C3 2.01 3 1.02 3 0 C3.99 0.33 4.98 0.66 6 1 C5.04578192 2.14926266 4.08647955 3.29430541 3.125 4.4375 C2.59132813 5.07558594 2.05765625 5.71367188 1.5078125 6.37109375 C0 8 0 8 -2 9 C-1.34 6.03 -0.68 3.06 0 0 Z " fill="#F11C11" transform="translate(53,45)"/>
<path d="M0 0 C1.32 0.33 2.64 0.66 4 1 C4 1.66 4 2.32 4 3 C4.66 3.33 5.32 3.66 6 4 C5.67 4.99 5.34 5.98 5 7 C1.535 5.02 1.535 5.02 -2 3 C-1.34 2.01 -0.68 1.02 0 0 Z " fill="#F66E06" transform="translate(59,216)"/>
<path d="M0 0 C1.98 0.66 3.96 1.32 6 2 C6.33 3.98 6.66 5.96 7 8 C5.8274869 7.04882866 4.66212985 6.08882991 3.5 5.125 C2.8503125 4.59132812 2.200625 4.05765625 1.53125 3.5078125 C1.0259375 3.01023438 0.520625 2.51265625 0 2 C0 1.34 0 0.68 0 0 Z " fill="#D75E18" transform="translate(41,204)"/>
<path d="M0 0 C1.65 0 3.3 0 5 0 C4.04578192 1.14926266 3.08647955 2.29430541 2.125 3.4375 C1.59132812 4.07558594 1.05765625 4.71367187 0.5078125 5.37109375 C-1 7 -1 7 -3 8 C-3 6.35 -3 4.7 -3 3 C-2.01 2.67 -1.02 2.34 0 2 C0 1.34 0 0.68 0 0 Z " fill="#FFF0D9" transform="translate(172,185)"/>
<path d="M0 0 C0.66 0.33 1.32 0.66 2 1 C-0.31 3.31 -2.62 5.62 -5 8 C-5.66 6.68 -6.32 5.36 -7 4 C-4.61426621 2.10786631 -2.92824652 0.97608217 0 0 Z " fill="#FCF5E8" transform="translate(185,104)"/>
<path d="M0 0 C1.32 0.33 2.64 0.66 4 1 C1.36 3.64 -1.28 6.28 -4 9 C-4.33 8.01 -4.66 7.02 -5 6 C-4.34 6 -3.68 6 -3 6 C-3 5.34 -3 4.68 -3 4 C-2.34 4 -1.68 4 -1 4 C-0.67 2.68 -0.34 1.36 0 0 Z " fill="#FEF5DB" transform="translate(108,179)"/>
<path d="M0 0 C0.66 0.33 1.32 0.66 2 1 C0.73058503 4.91402949 -0.51167694 6.79072873 -4 9 C-4.33 8.01 -4.66 7.02 -5 6 C-3.59554165 3.7363436 -1.8032087 1.9791315 0 0 Z " fill="#ED5B16" transform="translate(199,162)"/>
<path d="M0 0 C0.33 0.66 0.66 1.32 1 2 C1.66 2 2.32 2 3 2 C3 6.29 3 10.58 3 15 C2.67 15 2.34 15 2 15 C1.66223316 13.2508503 1.32996329 11.50063855 1 9.75 C0.814375 8.77546875 0.62875 7.8009375 0.4375 6.796875 C0 4 0 4 0 0 Z " fill="#360300" transform="translate(240,95)"/>
<path d="M0 0 C0.928125 0.20625 1.85625 0.4125 2.8125 0.625 C0.8125 3.625 0.8125 3.625 -1.8125 4.3125 C-2.988125 4.4671875 -2.988125 4.4671875 -4.1875 4.625 C-4.1875 3.965 -4.1875 3.305 -4.1875 2.625 C-4.8475 2.295 -5.5075 1.965 -6.1875 1.625 C-3.1875 -0.375 -3.1875 -0.375 0 0 Z " fill="#FB7A6A" transform="translate(86.1875,56.375)"/>
<path d="M0 0 C2.475 0.99 2.475 0.99 5 2 C3.90809958 4.18380083 2.8590123 5.42698959 1 7 C0.01 7 -0.98 7 -2 7 C-1.125 1.125 -1.125 1.125 0 0 Z " fill="#FCB8B2" transform="translate(145,23)"/>
<path d="M0 0 C1.65 0 3.3 0 5 0 C5 0.66 5 1.32 5 2 C6.32 2.33 7.64 2.66 9 3 C7.68 3.99 6.36 4.98 5 6 C3.35 4.02 1.7 2.04 0 0 Z " fill="#FEF1D6" transform="translate(87,193)"/>
<path d="M0 0 C0.33 0.99 0.66 1.98 1 3 C0.67 3.66 0.34 4.32 0 5 C1.32 5 2.64 5 4 5 C4.33 5.99 4.66 6.98 5 8 C2.69 7.34 0.38 6.68 -2 6 C-2 4.68 -2 3.36 -2 2 C-1.34 2 -0.68 2 0 2 C0 1.34 0 0.68 0 0 Z " fill="#E47C1A" transform="translate(81,228)"/>
<path d="M0 0 C1.32 0.33 2.64 0.66 4 1 C0.04 4.465 0.04 4.465 -4 8 C-4.33 7.01 -4.66 6.02 -5 5 C-4.34 5 -3.68 5 -3 5 C-3 4.34 -3 3.68 -3 3 C-2.34 3 -1.68 3 -1 3 C-0.67 2.01 -0.34 1.02 0 0 Z " fill="#CF651C" transform="translate(204,212)"/>
<path d="M0 0 C4.455 0.99 4.455 0.99 9 2 C8.67 2.66 8.34 3.32 8 4 C5.36 4 2.72 4 0 4 C0 2.68 0 1.36 0 0 Z " fill="#FA6747" transform="translate(127,79)"/>
<path d="M0 0 C0.66 0.99 1.32 1.98 2 3 C1.67 3.66 1.34 4.32 1 5 C0.34 4.67 -0.32 4.34 -1 4 C-1.33 5.32 -1.66 6.64 -2 8 C-2.99 7.67 -3.98 7.34 -5 7 C-3.35 4.69 -1.7 2.38 0 0 Z " fill="#DD1C0F" transform="translate(33,61)"/>
<path d="M0 0 C6.57142857 5 6.57142857 5 8 10 C3.97881358 7.93506643 1.98665002 6.07786057 0 2 C0 1.34 0 0.68 0 0 Z " fill="#D31910" transform="translate(214,51)"/>
<path d="M0 0 C5 2 5 2 10 4 C9.67 4.99 9.34 5.98 9 7 C5.18315774 5.44499019 2.80804268 2.96404505 0 0 Z " fill="#D4681C" transform="translate(48,212)"/>
<path d="M0 0 C0.99 0.33 1.98 0.66 3 1 C3 1.66 3 2.32 3 3 C4.32 3.66 5.64 4.32 7 5 C5.35 4.67 3.7 4.34 2 4 C2 4.99 2 5.98 2 7 C1.01 7 0.02 7 -1 7 C-0.649375 6.21625 -0.29875 5.4325 0.0625 4.625 C0.371875 3.75875 0.68125 2.8925 1 2 C0.67 1.34 0.34 0.68 0 0 Z " fill="#FD9C94" transform="translate(176,33)"/>
<path d="M0 0 C2.51083114 1.25541557 2.87125446 2.50063488 4 5 C3.01 5.495 3.01 5.495 2 6 C2 5.34 2 4.68 2 4 C0.68 4.33 -0.64 4.66 -2 5 C-1.125 1.125 -1.125 1.125 0 0 Z " fill="#F94A19" transform="translate(51,113)"/>
<path d="M0 0 C0.66 0.99 1.32 1.98 2 3 C1.67 3.66 1.34 4.32 1 5 C1.66 5 2.32 5 3 5 C3 5.66 3 6.32 3 7 C1.68 6.67 0.36 6.34 -1 6 C-1.625 4.125 -1.625 4.125 -2 2 C-1.34 1.34 -0.68 0.68 0 0 Z " fill="#FB4D26" transform="translate(58,96)"/>
<path d="M0 0 C2.64 0 5.28 0 8 0 C5.29811996 1.80125336 3.06942297 3.00243753 0 4 C-0.99 3.67 -1.98 3.34 -3 3 C-2.34 3 -1.68 3 -1 3 C-0.67 2.01 -0.34 1.02 0 0 Z " fill="#EA190F" transform="translate(89,25)"/>
<path d="M0 0 C4.24223102 -0.3636198 6.58168085 0.4606772 10 3 C10 3.66 10 4.32 10 5 C6.08788267 3.84414715 3.1254959 2.64465038 0 0 Z " fill="#3F0202" transform="translate(178,23)"/>
<path d="M0 0 C2.64 0 5.28 0 8 0 C8 0.66 8 1.32 8 2 C8.99 2 9.98 2 11 2 C11 2.66 11 3.32 11 4 C7.37 3.01 3.74 2.02 0 1 C0 0.67 0 0.34 0 0 Z " fill="#400100" transform="translate(157,15)"/>
<path d="M0 0 C1.98 0 3.96 0 6 0 C6 0.99 6 1.98 6 3 C4.35 3.66 2.7 4.32 1 5 C0.67 3.35 0.34 1.7 0 0 Z " fill="#FDA142" transform="translate(164,223)"/>
<path d="M0 0 C3.875 1.75 3.875 1.75 5 4 C2.36 4 -0.28 4 -3 4 C-2.01 2.68 -1.02 1.36 0 0 Z " fill="#E47C32" transform="translate(127,164)"/>
<path d="M0 0 C1.98 1.65 3.96 3.3 6 5 C5.01 5.99 4.02 6.98 3 8 C0 2.25 0 2.25 0 0 Z " fill="#E96135" transform="translate(85,121)"/>
<path d="M0 0 C-1.12642595 3.37927784 -2.00448298 4.47296158 -5.125 6.125 C-5.74375 6.41375 -6.3625 6.7025 -7 7 C-7 6.01 -7 5.02 -7 4 C-2.65714286 0 -2.65714286 0 0 0 Z " fill="#FD4E28" transform="translate(200,97)"/>
<path d="M0 0 C2 3 2 3 1.625 5.6875 C1.41875 6.450625 1.2125 7.21375 1 8 C-2 4.375 -2 4.375 -2 1 C-1.34 0.67 -0.68 0.34 0 0 Z " fill="#F85730" transform="translate(54,89)"/>
<path d="M0 0 C0.99 0 1.98 0 3 0 C3 1.98 3 3.96 3 6 C2.01 6.33 1.02 6.66 0 7 C-1.125 2.25 -1.125 2.25 0 0 Z " fill="#FC9A92" transform="translate(155,36)"/>
<path d="M0 0 C1.65 0 3.3 0 5 0 C5.33 1.98 5.66 3.96 6 6 C3.97945196 4.35830472 1.97956942 2.69088222 0 1 C0 0.67 0 0.34 0 0 Z " fill="#FFF1D7" transform="translate(79,185)"/>
<path d="M0 0 C0.33 0.66 0.66 1.32 1 2 C0.0625 4.625 0.0625 4.625 -1 7 C-4 7 -4 7 -6 6 C-4.02 4.02 -2.04 2.04 0 0 Z " fill="#E56521" transform="translate(193,169)"/>
<path d="M0 0 C0.99 0.33 1.98 0.66 3 1 C-0.465 3.97 -0.465 3.97 -4 7 C-3.04065919 3.16263678 -2.76390737 2.40339772 0 0 Z " fill="#FEEBD0" transform="translate(189,170)"/>
<path d="M0 0 C1.32 1.32 2.64 2.64 4 4 C2.35 5.32 0.7 6.64 -1 8 C-0.67 5.36 -0.34 2.72 0 0 Z " fill="#FEE9D7" transform="translate(195,160)"/>
<path d="M0 0 C2.64 0 5.28 0 8 0 C6.515 1.98 6.515 1.98 5 4 C1.125 2.25 1.125 2.25 0 0 Z " fill="#AF4244" transform="translate(124,88)"/>
<path d="M0 0 C1.98 0 3.96 0 6 0 C3.06171403 2.50298434 0.82097239 3.46930939 -3 4 C-3 3.34 -3 2.68 -3 2 C-2.01 2 -1.02 2 0 2 C0 1.34 0 0.68 0 0 Z " fill="#E1801C" transform="translate(170,233)"/>
<path d="M0 0 C1.65 1.65 3.3 3.3 5 5 C3.68 5.99 2.36 6.98 1 8 C0.67 5.36 0.34 2.72 0 0 Z " fill="#EE5F36" transform="translate(72,108)"/>
<path d="M0 0 C1.98 0 3.96 0 6 0 C6.33 0.99 6.66 1.98 7 3 C3 3 3 3 1.25 1.5 C0.8375 1.005 0.425 0.51 0 0 Z " fill="#F95021" transform="translate(66,108)"/>
<path d="M0 0 C0.33 0.66 0.66 1.32 1 2 C1.66 2 2.32 2 3 2 C3.185625 2.8971875 3.185625 2.8971875 3.375 3.8125 C3.95475985 6.26231348 3.95475985 6.26231348 6 9 C2.83884224 7.63016497 2.0072908 7.0109362 0 4 C0 2.68 0 1.36 0 0 Z " fill="#EB6349" transform="translate(55,88)"/>
<path d="M0 0 C0.66 0.33 1.32 0.66 2 1 C2.33 1.99 2.66 2.98 3 4 C2.01 4.66 1.02 5.32 0 6 C-0.99 5.67 -1.98 5.34 -3 5 C-2.67 4.34 -2.34 3.68 -2 3 C-1.34 3 -0.68 3 0 3 C0 2.01 0 1.02 0 0 Z " fill="#F8826A" transform="translate(154,54)"/>
</svg>
