<?xml version="1.0" encoding="UTF-8"?>
<svg version="1.1" xmlns="http://www.w3.org/2000/svg" width="256" height="256">
<path d="M0 0 C2.08157201 1.79264146 4.13602536 3.6099734 6.1875 5.4375 C6.85523438 6.03175781 7.52296875 6.62601563 8.2109375 7.23828125 C30.16522345 28.0072419 43.53072627 59.8511907 44.390625 89.8359375 C44.87294393 126.62734845 33.75570063 156.85867267 9.1875 184.4375 C8.59324219 185.10523438 7.99898437 185.77296875 7.38671875 186.4609375 C-13.3822419 208.41522345 -45.2261907 221.78072627 -75.2109375 222.640625 C-112.00234845 223.12294393 -142.23367267 212.00570063 -169.8125 187.4375 C-170.48023438 186.84324219 -171.14796875 186.24898437 -171.8359375 185.63671875 C-193.79022345 164.8677581 -207.15572627 133.0238093 -208.015625 103.0390625 C-208.49794393 66.24765155 -197.38070063 36.01632733 -172.8125 8.4375 C-172.21824219 7.76976562 -171.62398437 7.10203125 -171.01171875 6.4140625 C-126.34033996 -40.80679945 -48.29771353 -40.62134702 0 0 Z " fill="#FA4B0E" transform="translate(209.8125,31.5625)"/>
<path d="M0 0 C4.83298806 4.02748053 9.38110004 8.24379413 13.80859375 12.7109375 C14.72597069 13.63043686 14.72597069 13.63043686 15.66188049 14.56851196 C17.58947559 16.50164564 19.51353928 18.43824987 21.4375 20.375 C22.75432404 21.69684699 24.07137926 23.01846372 25.38867188 24.33984375 C28.59512373 27.55724299 31.79841629 30.77775681 35 34 C37.99943905 32.65427113 40.08076179 31.16462899 42.39160156 28.83544922 C43.35214447 27.87467972 43.35214447 27.87467972 44.33209229 26.89450073 C45.01140808 26.20486237 45.69072388 25.515224 46.390625 24.8046875 C47.09523865 24.09724396 47.79985229 23.38980042 48.52581787 22.66091919 C50.7719539 20.40360138 53.01103009 18.13942367 55.25 15.875 C56.77297717 14.34199047 58.29640939 12.80943285 59.8203125 11.27734375 C63.55216815 7.52345427 67.27825351 3.76391086 71 0 C75.90473901 4.11329871 80.5219528 8.38542461 85.02734375 12.9296875 C85.97801476 13.88248093 85.97801476 13.88248093 86.94789124 14.85452271 C88.94681406 16.85898716 90.94220784 18.86692214 92.9375 20.875 C94.30250133 22.24502389 95.6677336 23.61481774 97.03320312 24.984375 C100.35814211 28.32026543 103.67992353 31.65927036 107 35 C102.97251947 39.83298806 98.75620587 44.38110004 94.2890625 48.80859375 C93.67606293 49.42017838 93.06306335 50.031763 92.43148804 50.66188049 C90.49835436 52.58947559 88.56175013 54.51353928 86.625 56.4375 C85.30315301 57.75432404 83.98153628 59.07137926 82.66015625 60.38867188 C79.44275701 63.59512373 76.22224319 66.79841629 73 70 C74.34572887 72.99943905 75.83537101 75.08076179 78.16455078 77.39160156 C78.80506378 78.0319635 79.44557678 78.67232544 80.10549927 79.33209229 C80.79513763 80.01140808 81.484776 80.69072388 82.1953125 81.390625 C83.25647781 82.44754547 83.25647781 82.44754547 84.33908081 83.52581787 C86.59639862 85.7719539 88.86057633 88.01103009 91.125 90.25 C92.65800953 91.77297717 94.19056715 93.29640939 95.72265625 94.8203125 C99.47654573 98.55216815 103.23608914 102.27825351 107 106 C102.88670129 110.90473901 98.61457539 115.5219528 94.0703125 120.02734375 C93.43511688 120.66112442 92.79992126 121.29490509 92.14547729 121.94789124 C90.14101284 123.94681406 88.13307786 125.94220784 86.125 127.9375 C84.75497611 129.30250133 83.38518226 130.6677336 82.015625 132.03320312 C78.67973457 135.35814211 75.34072964 138.67992353 72 142 C67.16701194 137.97251947 62.61889996 133.75620587 58.19140625 129.2890625 C57.57982162 128.67606293 56.968237 128.06306335 56.33811951 127.43148804 C54.41052441 125.49835436 52.48646072 123.56175013 50.5625 121.625 C49.24567596 120.30315301 47.92862074 118.98153628 46.61132812 117.66015625 C43.40487627 114.44275701 40.20158371 111.22224319 37 108 C34.00056095 109.34572887 31.91923821 110.83537101 29.60839844 113.16455078 C28.9680365 113.80506378 28.32767456 114.44557678 27.66790771 115.10549927 C26.98859192 115.79513763 26.30927612 116.484776 25.609375 117.1953125 C24.90476135 117.90275604 24.20014771 118.61019958 23.47418213 119.33908081 C21.2280461 121.59639862 18.98896991 123.86057633 16.75 126.125 C15.22702283 127.65800953 13.70359061 129.19056715 12.1796875 130.72265625 C8.44783185 134.47654573 4.72174649 138.23608914 1 142 C-3.90473901 137.88670129 -8.5219528 133.61457539 -13.02734375 129.0703125 C-13.66112442 128.43511688 -14.29490509 127.79992126 -14.94789124 127.14547729 C-16.94681406 125.14101284 -18.94220784 123.13307786 -20.9375 121.125 C-22.30250133 119.75497611 -23.6677336 118.38518226 -25.03320312 117.015625 C-28.35814211 113.67973457 -31.67992353 110.34072964 -35 107 C-30.97251947 102.16701194 -26.75620587 97.61889996 -22.2890625 93.19140625 C-21.67606293 92.57982162 -21.06306335 91.968237 -20.43148804 91.33811951 C-18.49835436 89.41052441 -16.56175013 87.48646072 -14.625 85.5625 C-13.30315301 84.24567596 -11.98153628 82.92862074 -10.66015625 81.61132812 C-7.44275701 78.40487627 -4.22224319 75.20158371 -1 72 C-2.34572887 69.00056095 -3.83537101 66.91923821 -6.16455078 64.60839844 C-6.80506378 63.9680365 -7.44557678 63.32767456 -8.10549927 62.66790771 C-8.79513763 61.98859192 -9.484776 61.30927612 -10.1953125 60.609375 C-10.90275604 59.90476135 -11.61019958 59.20014771 -12.33908081 58.47418213 C-14.59639862 56.2280461 -16.86057633 53.98896991 -19.125 51.75 C-20.65800953 50.22702283 -22.19056715 48.70359061 -23.72265625 47.1796875 C-27.47654573 43.44783185 -31.23608914 39.72174649 -35 36 C-30.88670129 31.09526099 -26.61457539 26.4780472 -22.0703125 21.97265625 C-21.43511688 21.33887558 -20.79992126 20.70509491 -20.14547729 20.05210876 C-18.14101284 18.05318594 -16.13307786 16.05779216 -14.125 14.0625 C-12.75497611 12.69749867 -11.38518226 11.3322664 -10.015625 9.96679688 C-6.67973457 6.64185789 -3.34072964 3.32007647 0 0 Z " fill="#FEFEFE" transform="translate(92,57)"/>
<path d="M0 0 C2.99943905 1.34572887 5.08076179 2.83537101 7.39160156 5.16455078 C8.35214447 6.12532028 8.35214447 6.12532028 9.33209229 7.10549927 C10.01140808 7.79513763 10.69072388 8.484776 11.390625 9.1953125 C12.09523865 9.90275604 12.79985229 10.61019958 13.52581787 11.33908081 C15.7719539 13.59639862 18.01103009 15.86057633 20.25 18.125 C21.77297717 19.65800953 23.29640939 21.19056715 24.8203125 22.72265625 C28.55216815 26.47654573 32.27825351 30.23608914 36 34 C40.75085867 30.03627475 45.23613112 25.90205218 49.58984375 21.5078125 C50.47392662 20.62160721 50.47392662 20.62160721 51.37586975 19.71749878 C53.23213727 17.85569596 55.08487085 15.99042255 56.9375 14.125 C58.20614672 12.85132989 59.4750249 11.57789029 60.74414062 10.3046875 C63.83210554 7.20577957 66.91690929 4.10375699 70 1 C70.33 1.66 70.66 2.32 71 3 C70.0625 5.125 70.0625 5.125 69 7 C68.01 7 67.02 7 66 7 C65.67 8.65 65.34 10.3 65 12 C66.65 11.67 68.3 11.34 70 11 C69.67 12.65 69.34 14.3 69 16 C69.66 15.67 70.32 15.34 71 15 C71.5625 16.9375 71.5625 16.9375 72 19 C71.67 19.33 71.34 19.66 71 20 C71.66 20.33 72.32 20.66 73 21 C73.33 21.99 73.66 22.98 74 24 C74.66 23.34 75.32 22.68 76 22 C76.99 22.33 77.98 22.66 79 23 C79.33 24.65 79.66 26.3 80 28 C80.66 28 81.32 28 82 28 C82.66666667 30 83.33333333 32 84 34 C84.391875 35.010625 84.78375 36.02125 85.1875 37.0625 C86.11187717 40.40447901 86.08205087 41.72969447 85 45 C68.30535006 64.29679328 40.90445776 76.69453745 15.9296875 79.72265625 C2.96417029 80.6377176 -10.26400184 80.85012747 -23 78 C-24.17304687 77.74347656 -25.34609375 77.48695313 -26.5546875 77.22265625 C-50.21839121 71.49121866 -70.64666509 58.72178688 -87.0234375 40.75390625 C-88 39 -88 39 -87.6640625 36.77734375 C-87.33535156 35.89755859 -87.33535156 35.89755859 -87 35 C-85.35 35 -83.7 35 -82 35 C-81.67 34.34 -81.34 33.68 -81 33 C-80.34 33 -79.68 33 -79 33 C-79 32.34 -79 31.68 -79 31 C-78.34 31 -77.68 31 -77 31 C-75.5393715 28.35261084 -75 27.10551666 -75 24 C-74.01 23.67 -73.02 23.34 -72 23 C-71.67 22.34 -71.34 21.68 -71 21 C-68.9375 19.875 -68.9375 19.875 -67 19 C-67 18.34 -67 17.68 -67 17 C-62.52941176 13 -62.52941176 13 -60 13 C-59.67 12.01 -59.34 11.02 -59 10 C-51.08 17.92 -43.16 25.84 -35 34 C-29.67057281 29.49167799 -29.67057281 29.49167799 -24.63500977 24.74853516 C-24.07495743 24.18840729 -23.51490509 23.62827942 -22.93788147 23.05117798 C-22.36154465 22.46967987 -21.78520782 21.88818176 -21.19140625 21.2890625 C-20.57982162 20.67606293 -19.968237 20.06306335 -19.33811951 19.43148804 C-17.41052441 17.49835436 -15.48646072 15.56175013 -13.5625 13.625 C-12.24567596 12.30315301 -10.92862074 10.98153628 -9.61132812 9.66015625 C-6.40487627 6.44275701 -3.20158371 3.22224319 0 0 Z " fill="#F76405" transform="translate(127,164)"/>
<path d="M0 0 C2.08157201 1.79264146 4.13602536 3.6099734 6.1875 5.4375 C6.85523438 6.03175781 7.52296875 6.62601563 8.2109375 7.23828125 C30.16522345 28.0072419 43.53072627 59.8511907 44.390625 89.8359375 C44.87294393 126.62734845 33.75570063 156.85867267 9.1875 184.4375 C8.59324219 185.10523438 7.99898437 185.77296875 7.38671875 186.4609375 C-13.3822419 208.41522345 -45.2261907 221.78072627 -75.2109375 222.640625 C-112.00234845 223.12294393 -142.23367267 212.00570063 -169.8125 187.4375 C-170.48023438 186.84324219 -171.14796875 186.24898437 -171.8359375 185.63671875 C-193.79022345 164.8677581 -207.15572627 133.0238093 -208.015625 103.0390625 C-208.49794393 66.24765155 -197.38070063 36.01632733 -172.8125 8.4375 C-172.21824219 7.76976562 -171.62398437 7.10203125 -171.01171875 6.4140625 C-126.34033996 -40.80679945 -48.29771353 -40.62134702 0 0 Z M-116.8125 -14.5625 C-117.87984375 -14.23636719 -118.9471875 -13.91023438 -120.046875 -13.57421875 C-133.73728076 -9.0675354 -145.98798675 -2.09398266 -156.8125 7.4375 C-157.62976563 8.12328125 -158.44703125 8.8090625 -159.2890625 9.515625 C-181.3975097 28.54394798 -195.56779625 56.35315078 -197.8125 85.4375 C-199.3906923 117.18577079 -192.20837455 147.13908433 -170.8125 171.4375 C-169.78382813 172.66339844 -169.78382813 172.66339844 -168.734375 173.9140625 C-150.34746336 195.27727279 -123.31441156 209.57381964 -95.14575195 212.27416992 C-62.09047316 214.58807402 -31.08556937 206.25084249 -5.50390625 184.69140625 C15.77299863 166.14246994 31.0974955 139.50337711 34.015625 111.12109375 C34.62138738 98.1385045 34.97060659 85.20140265 32.1875 72.4375 C31.94257813 71.20257813 31.69765625 69.96765625 31.4453125 68.6953125 C25.57379643 41.08423637 7.09287971 15.1888225 -16.5 -0.1875 C-46.89068875 -19.24436753 -82.09553563 -25.42340825 -116.8125 -14.5625 Z " fill="#050302" transform="translate(209.8125,31.5625)"/>
<path d="M0 0 C14.07197258 12.28293622 25.26508916 28.18218066 28 47 C27.401875 46.814375 26.80375 46.62875 26.1875 46.4375 C23.83591238 45.77906313 23.83591238 45.77906313 21 47 C19.48305064 47.37044931 17.96178381 47.72349125 16.4375 48.0625 C15.25994141 48.32740234 15.25994141 48.32740234 14.05859375 48.59765625 C12 49 12 49 10 49 C9.2575 49.99 9.2575 49.99 8.5 51 C7.7575 51.99 7.7575 51.99 7 53 C6.34 53 5.68 53 5 53 C4.34 52.01 3.68 51.02 3 50 C-0.83219177 51.56126332 -3.17361222 54.02866925 -6 57 C-7 58 -8 59 -9 60 C-9.66 59.67 -10.32 59.34 -11 59 C-10.12214844 58.19175781 -9.24429688 57.38351563 -8.33984375 56.55078125 C-7.20495508 55.47216805 -6.07088245 54.39269579 -4.9375 53.3125 C-4.35677734 52.78205078 -3.77605469 52.25160156 -3.17773438 51.70507812 C-2.63310547 51.17978516 -2.08847656 50.65449219 -1.52734375 50.11328125 C-0.76538696 49.39845581 -0.76538696 49.39845581 0.01196289 48.66918945 C1.23573832 46.97858848 1.23573832 46.97858848 0.75817871 44.6204834 C-0.0880008 41.69584394 -0.99312378 40.52007963 -3.14282227 38.40307617 C-3.80343155 37.74276901 -4.46404083 37.08246185 -5.14466858 36.40214539 C-6.21967873 35.35810295 -6.21967873 35.35810295 -7.31640625 34.29296875 C-8.04746078 33.56757401 -8.77851532 32.84217926 -9.53172302 32.09480286 C-11.8660888 29.78280606 -14.2139838 27.48511287 -16.5625 25.1875 C-18.14869836 23.62136576 -19.73399617 22.05431886 -21.31835938 20.48632812 C-25.20185653 16.64690535 -29.09655099 12.81913073 -33 9 C-37.83298806 13.02748053 -42.38110004 17.24379413 -46.80859375 21.7109375 C-47.42017838 22.32393707 -48.031763 22.93693665 -48.66188049 23.56851196 C-50.58947559 25.50164564 -52.51353928 27.43824987 -54.4375 29.375 C-55.75432404 30.69684699 -57.07137926 32.01846372 -58.38867188 33.33984375 C-61.59512373 36.55724299 -64.79841629 39.77775681 -68 43 C-70.99943905 41.65427113 -73.08076179 40.16462899 -75.39160156 37.83544922 C-76.0319635 37.19493622 -76.67232544 36.55442322 -77.33209229 35.89450073 C-78.01140808 35.20486237 -78.69072388 34.515224 -79.390625 33.8046875 C-80.09523865 33.09724396 -80.79985229 32.38980042 -81.52581787 31.66091919 C-83.7719539 29.40360138 -86.01103009 27.13942367 -88.25 24.875 C-89.77297717 23.34199047 -91.29640939 21.80943285 -92.8203125 20.27734375 C-96.55216815 16.52345427 -100.27825351 12.76391086 -104 9 C-108.65623472 12.87101779 -113.00067283 16.90962948 -117.1953125 21.2734375 C-118.33404081 22.43938311 -119.47338134 23.60473105 -120.61328125 24.76953125 C-122.38131026 26.58100806 -124.14511672 28.39593623 -125.89892578 30.22119141 C-127.61136015 32.00009121 -129.33917909 33.76275515 -131.0703125 35.5234375 C-131.59126495 36.07333344 -132.11221741 36.62322937 -132.6489563 37.18978882 C-136.36987615 40.93767022 -136.36987615 40.93767022 -139.74951172 41.27197266 C-140.49217285 41.18222168 -141.23483398 41.0924707 -142 41 C-142.9590625 41.556875 -142.9590625 41.556875 -143.9375 42.125 C-147.01272318 43.42964014 -148.95427425 42.10164548 -152 41 C-153.485 41.495 -153.485 41.495 -155 42 C-155.66 41.34 -156.32 40.68 -157 40 C-157.66 40.99 -158.32 41.98 -159 43 C-159.66 42.67 -160.32 42.34 -161 42 C-161 41.34 -161 40.68 -161 40 C-161.66 40 -162.32 40 -163 40 C-162.76413377 27.97082238 -154.75014676 17.64175657 -147 9 C-145.79923828 7.65808594 -145.79923828 7.65808594 -144.57421875 6.2890625 C-106.62743578 -33.85020127 -41.69692292 -35.02103762 0 0 Z " fill="#FD8476" transform="translate(197,46)"/>
<path d="M0 0 C4.83298806 4.02748053 9.38110004 8.24379413 13.80859375 12.7109375 C14.42017838 13.32393707 15.031763 13.93693665 15.66188049 14.56851196 C17.58947559 16.50164564 19.51353928 18.43824987 21.4375 20.375 C22.75432404 21.69684699 24.07137926 23.01846372 25.38867188 24.33984375 C28.59512373 27.55724299 31.79841629 30.77775681 35 34 C37.99943905 32.65427113 40.08076179 31.16462899 42.39160156 28.83544922 C43.35214447 27.87467972 43.35214447 27.87467972 44.33209229 26.89450073 C45.01140808 26.20486237 45.69072388 25.515224 46.390625 24.8046875 C47.09523865 24.09724396 47.79985229 23.38980042 48.52581787 22.66091919 C50.7719539 20.40360138 53.01103009 18.13942367 55.25 15.875 C56.77297717 14.34199047 58.29640939 12.80943285 59.8203125 11.27734375 C63.55216815 7.52345427 67.27825351 3.76391086 71 0 C75.90473901 4.11329871 80.5219528 8.38542461 85.02734375 12.9296875 C85.66112442 13.56488312 86.29490509 14.20007874 86.94789124 14.85452271 C88.94681406 16.85898716 90.94220784 18.86692214 92.9375 20.875 C94.30250133 22.24502389 95.6677336 23.61481774 97.03320312 24.984375 C100.35814211 28.32026543 103.67992353 31.65927036 107 35 C106.01 35.99 106.01 35.99 105 37 C94.11 26.11 83.22 15.22 72 4 C66.67057281 8.50832201 66.67057281 8.50832201 61.63500977 13.25146484 C61.07495743 13.81159271 60.51490509 14.37172058 59.93788147 14.94882202 C59.36154465 15.53032013 58.78520782 16.11181824 58.19140625 16.7109375 C57.57982162 17.32393707 56.968237 17.93693665 56.33811951 18.56851196 C54.41052441 20.50164564 52.48646072 22.43824987 50.5625 24.375 C49.24567596 25.69684699 47.92862074 27.01846372 46.61132812 28.33984375 C43.40487627 31.55724299 40.20158371 34.77775681 37 38 C34.00056095 36.65427113 31.91923821 35.16462899 29.60839844 32.83544922 C28.9680365 32.19493622 28.32767456 31.55442322 27.66790771 30.89450073 C26.98859192 30.20486237 26.30927612 29.515224 25.609375 28.8046875 C24.90476135 28.09724396 24.20014771 27.38980042 23.47418213 26.66091919 C21.2280461 24.40360138 18.98896991 22.13942367 16.75 19.875 C15.22702283 18.34199047 13.70359061 16.80943285 12.1796875 15.27734375 C8.44783185 11.52345427 4.72174649 7.76391086 1 4 C-3.83298806 8.02748053 -8.38110004 12.24379413 -12.80859375 16.7109375 C-13.42017838 17.32393707 -14.031763 17.93693665 -14.66188049 18.56851196 C-16.58947559 20.50164564 -18.51353928 22.43824987 -20.4375 24.375 C-21.75432404 25.69684699 -23.07137926 27.01846372 -24.38867188 28.33984375 C-27.59512373 31.55724299 -30.79841629 34.77775681 -34 38 C-29.97251947 42.83298806 -25.75620587 47.38110004 -21.2890625 51.80859375 C-20.36956314 52.72597069 -20.36956314 52.72597069 -19.43148804 53.66188049 C-17.49835436 55.58947559 -15.56175013 57.51353928 -13.625 59.4375 C-12.30315301 60.75432404 -10.98153628 62.07137926 -9.66015625 63.38867188 C-6.44275701 66.59512373 -3.22224319 69.79841629 0 73 C-1.34572887 75.99943905 -2.83537101 78.08076179 -5.16455078 80.39160156 C-6.12532028 81.35214447 -6.12532028 81.35214447 -7.10549927 82.33209229 C-8.13995682 83.35106598 -8.13995682 83.35106598 -9.1953125 84.390625 C-9.90275604 85.09523865 -10.61019958 85.79985229 -11.33908081 86.52581787 C-13.59639862 88.7719539 -15.86057633 91.01103009 -18.125 93.25 C-19.65800953 94.77297717 -21.19056715 96.29640939 -22.72265625 97.8203125 C-26.47654573 101.55216815 -30.23608914 105.27825351 -34 109 C-33.06409496 110.1055189 -32.12620142 111.20935453 -31.1875 112.3125 C-30.40439453 113.23482422 -30.40439453 113.23482422 -29.60546875 114.17578125 C-28.04711214 116.01489473 -28.04711214 116.01489473 -26.30078125 117.54296875 C-25 119 -25 119 -25 122 C-26.24546405 125.73639216 -27.63404953 126.18756513 -31 128 C-31 128.99 -31 129.98 -31 131 C-32.65 131.33 -34.3 131.66 -36 132 C-36.33 132.99 -36.66 133.98 -37 135 C-37.99 135.33 -38.98 135.66 -40 136 C-39.67 136.66 -39.34 137.32 -39 138 C-40.375 139.5 -40.375 139.5 -42 141 C-42.66 141 -43.32 141 -44 141 C-44 141.66 -44 142.32 -44 143 C-44.66 143 -45.32 143 -46 143 C-46.33 143.99 -46.66 144.98 -47 146 C-49.06488288 147.42405716 -50.34998435 148.03663971 -52.87109375 147.89453125 C-62.7619324 143.73856418 -69.45638409 123.85361999 -73.50390625 114.5390625 C-81.13826248 94.98599489 -84.27905026 67.48793338 -77.0546875 47.3671875 C-75.68996712 44.30414842 -73.99972427 41.68712949 -72 39 C-71.34 39 -70.68 39 -70 39 C-69.79375 38.443125 -69.5875 37.88625 -69.375 37.3125 C-67.49627846 34.15283196 -64.80993547 32.34161289 -62 30 C-61.30419733 28.68163705 -60.62775567 27.35208914 -60 26 C-59.01 25.67 -58.02 25.34 -57 25 C-57.33 27.31 -57.66 29.62 -58 32 C-57.34 32 -56.68 32 -56 32 C-55.34 31.34 -54.68 30.68 -54 30 C-52 30 -52 30 -50.375 31.5 C-49.694375 32.2425 -49.694375 32.2425 -49 33 C-48.01 32.505 -48.01 32.505 -47 32 C-46.01 32.495 -46.01 32.495 -45 33 C-44.67 32.01 -44.34 31.02 -44 30 C-43.34 30.99 -42.68 31.98 -42 33 C-40.68 33 -39.36 33 -38 33 C-37.34 32.34 -36.68 31.68 -36 31 C-35.34 31 -34.68 31 -34 31 C-34 31.66 -34 32.32 -34 33 C-26.37000348 26.66552548 -19.4785982 19.5915987 -12.5 12.5625 C-11.28408886 11.3415631 -10.06794484 10.12085808 -8.8515625 8.90039062 C-5.89835034 5.93625987 -2.94830602 2.96901042 0 0 Z " fill="#FA480A" transform="translate(92,54)"/>
<path d="M0 0 C0.99 0.99 0.99 0.99 2 2 C6.14509433 2.28602162 6.14509433 2.28602162 10 1 C10.99 1.99 10.99 1.99 12 3 C14.02729304 3.64351353 14.02729304 3.64351353 16.3125 4.0625 C17.51712891 4.30806641 17.51712891 4.30806641 18.74609375 4.55859375 C19.86177734 4.77708984 19.86177734 4.77708984 21 5 C21.94875 5.20625 22.8975 5.4125 23.875 5.625 C26.13275269 6.08689267 26.13275269 6.08689267 29 6 C29.99 6.99 29.99 6.99 31 8 C33.19704511 8.67651207 33.19704511 8.67651207 35.625 9.125 C36.44226563 9.29257813 37.25953125 9.46015625 38.1015625 9.6328125 C38.72804688 9.75398437 39.35453125 9.87515625 40 10 C40 10.66 40 11.32 40 12 C46.35987804 12.20190089 51.85221129 11.6277833 58 10 C57.8984375 11.69140625 57.8984375 11.69140625 57 14 C54.90422911 15.81535084 52.89723394 17.37697152 50.625 18.9375 C49.99013672 19.37916504 49.35527344 19.82083008 48.70117188 20.27587891 C27.73953117 34.53295464 -0.7539554 38.45006233 -25.4765625 33.9375 C-39.78712078 30.92974039 -57.6309155 26.18852583 -68 15 C-69 12.125 -69 12.125 -69 10 C-68.2575 9.896875 -67.515 9.79375 -66.75 9.6875 C-63.98066659 9.19806881 -63.98066659 9.19806881 -62.125 7.5 C-58.7776834 5.13718829 -55.02712951 5 -51 5 C-50.67 4.34 -50.34 3.68 -50 3 C-45.41363529 3.43267592 -43.15438158 3.70223743 -40 7 C-37.37429296 7.25069913 -37.37429296 7.25069913 -35 7 C-34.67 6.34 -34.34 5.68 -34 5 C-32.07421875 4.40234375 -32.07421875 4.40234375 -29.6875 3.9375 C-28.90761719 3.78152344 -28.12773438 3.62554687 -27.32421875 3.46484375 C-26.55722656 3.31144531 -25.79023437 3.15804687 -25 3 C-24.30519531 2.81566406 -23.61039063 2.63132813 -22.89453125 2.44140625 C-19.97764324 1.76180142 -17.11606173 2.01425707 -14.125 2.0625 C-11.68799939 2.07141042 -9.71507816 1.9403652 -7.3125 1.4375 C-4.60701497 0.92565148 -2.64602695 1.31959307 0 2 C0 1.34 0 0.68 0 0 Z " fill="#F78C20" transform="translate(134,199)"/>
<path d="M0 0 C-0.33 0.66 -0.66 1.32 -1 2 C-4.5 2.6875 -4.5 2.6875 -8 3 C-8.33 2.67 -8.66 2.34 -9 2 C-11.10715484 2.09318374 -13.21150204 2.25151002 -15.3125 2.4375 C-21.8950442 2.96410354 -28.39995201 3.108792 -35 3 C-35.495 5.475 -35.495 5.475 -36 8 C-36.99 7.01 -36.99 7.01 -38 6 C-38.495 6.495 -38.495 6.495 -39 7 C-42.1272895 7.06035782 -45.23868296 7.0204342 -48.36523438 6.9609375 C-51.76841623 6.92101748 -54.73022769 7.07609083 -58 8 C-62 8 -62 8 -64.3125 7.4375 C-67.13234773 6.84114215 -67.13234773 6.84114215 -70.5 7.5 C-73.85715663 7.9795938 -75.75480645 7.66568073 -79 7 C-81.00109278 7.32670903 -83.00116131 7.65977214 -85 8 C-86.33981486 7.6937566 -87.67511887 7.36548445 -89 7 C-89.99 7.33 -90.98 7.66 -92 8 C-93.33333333 7.66666667 -94.66666667 7.33333333 -96 7 C-96.99 7.33 -97.98 7.66 -99 8 C-100.60888543 7.76537087 -102.21728086 7.52566483 -103.8203125 7.25390625 C-107.45561558 6.83043905 -111.08839327 6.98285326 -114.7421875 7.0625 C-117 7 -117 7 -118 6 C-119.96165717 6.09076324 -121.920441 6.24766873 -123.875 6.4375 C-132.48582996 7.25708502 -132.48582996 7.25708502 -135 6 C-123.73540767 -9.40176988 -102.1986215 -17.32470836 -84 -21 C-54.69643119 -25.3002928 -23.2059359 -19.13963898 0 0 Z " fill="#FE9D97" transform="translate(193,43)"/>
<path d="M0 0 C12.80231272 11.16089415 21.95517328 24.21799389 29.69140625 39.25390625 C30.17996094 40.18976563 30.66851562 41.125625 31.171875 42.08984375 C32.8334126 45.50365138 33.75419957 47.48468806 33.44140625 51.31640625 C33.07015625 52.27546875 33.07015625 52.27546875 32.69140625 53.25390625 C29.56240412 53.25390625 28.31721763 52.82939308 25.69140625 51.25390625 C25.36140625 50.59390625 25.03140625 49.93390625 24.69140625 49.25390625 C25.02140625 48.92390625 25.35140625 48.59390625 25.69140625 48.25390625 C24.70140625 48.58390625 23.71140625 48.91390625 22.69140625 49.25390625 C22.60503906 48.55523437 22.51867187 47.8565625 22.4296875 47.13671875 C22.28917969 46.22664063 22.14867187 45.3165625 22.00390625 44.37890625 C21.81248047 43.02152344 21.81248047 43.02152344 21.6171875 41.63671875 C21.15892578 40.45722656 21.15892578 40.45722656 20.69140625 39.25390625 C19.92441406 38.96 19.15742188 38.66609375 18.3671875 38.36328125 C14.54213098 36.7774184 13.4161341 33.87480545 11.56640625 30.37890625 C7.1908915 22.62578482 2.00820302 16.4878296 -4.30859375 10.25390625 C-5.41847656 9.14595703 -5.41847656 9.14595703 -6.55078125 8.015625 C-21.5222225 -6.10578937 -40.43513041 -13.12362158 -60.30859375 -16.74609375 C-61.2728125 -16.94074219 -62.23703125 -17.13539062 -63.23046875 -17.3359375 C-74.69859046 -18.86405016 -87.06786021 -18.38206091 -98.30859375 -15.74609375 C-99.45070313 -15.50117188 -100.5928125 -15.25625 -101.76953125 -15.00390625 C-125.69959532 -9.33493929 -147.96065674 4.62429143 -161.30859375 25.56640625 C-164.07288337 30.07408307 -166.69799018 34.6562138 -169.30859375 39.25390625 C-169.96859375 39.25390625 -170.62859375 39.25390625 -171.30859375 39.25390625 C-171.47359375 39.93453125 -171.63859375 40.61515625 -171.80859375 41.31640625 C-173.72143715 45.06239125 -176.30377594 47.07095357 -179.53125 49.703125 C-181.41359278 51.14729583 -181.41359278 51.14729583 -182.30859375 53.25390625 C-182.96859375 53.25390625 -183.62859375 53.25390625 -184.30859375 53.25390625 C-184.57671875 54.03765625 -184.84484375 54.82140625 -185.12109375 55.62890625 C-186.30859375 58.25390625 -186.30859375 58.25390625 -189.30859375 60.25390625 C-182.84584481 31.20231104 -163.81371282 6.02125928 -139.13989258 -10.19458008 C-128.21052908 -17.12032196 -116.87478572 -21.59659247 -104.30859375 -24.74609375 C-103.53773437 -24.96007812 -102.766875 -25.1740625 -101.97265625 -25.39453125 C-66.93706593 -34.94969225 -27.14334669 -22.87557496 0 0 Z M28.69140625 48.25390625 C29.69140625 50.25390625 29.69140625 50.25390625 29.69140625 50.25390625 Z " fill="#FA0D01" transform="translate(204.30859375,39.74609375)"/>
<path d="M0 0 C3.33925388 1.66962694 4.88982537 2.64291923 7.39160156 5.16455078 C8.35214447 6.12532028 8.35214447 6.12532028 9.33209229 7.10549927 C10.01140808 7.79513763 10.69072388 8.484776 11.390625 9.1953125 C12.09523865 9.90275604 12.79985229 10.61019958 13.52581787 11.33908081 C15.7719539 13.59639862 18.01103009 15.86057633 20.25 18.125 C21.77297717 19.65800953 23.29640939 21.19056715 24.8203125 22.72265625 C28.55216815 26.47654573 32.27825351 30.23608914 36 34 C37.65 33.01 39.3 32.02 41 31 C41.495 31.99 41.495 31.99 42 33 C43.32 33 44.64 33 46 33 C48.03515625 33.65625 48.03515625 33.65625 50.0625 34.5 C52.71097697 35.598025 54.05945467 36 57 36 C59.93566333 36.44673138 62.84082945 36.96744239 65.75 37.5625 C67.94518178 38.06362322 67.94518178 38.06362322 70 38 C69.42415568 40.38564077 68.77772405 42.66682784 68 45 C65.26953125 45.94921875 65.26953125 45.94921875 61.8125 46.6875 C60.68457031 46.93886719 59.55664062 47.19023437 58.39453125 47.44921875 C52.07893379 48.47395896 48.61755075 48.04283999 43 45 C41.9275 44.649375 40.855 44.29875 39.75 43.9375 C37 43 37 43 35 41 C34.443125 41.165 33.88625 41.33 33.3125 41.5 C29.88410134 42.24127539 27.31277362 41.02810216 24 40 C22.00448218 39.64080679 20.00451121 39.30503431 18 39 C17.21625 38.835 16.4325 38.67 15.625 38.5 C7.2649296 36.81678063 7.2649296 36.81678063 -1 38 C-6.33333333 38 -11.66666667 38 -17 38 C-17.495 38.99 -17.495 38.99 -18 40 C-18.99 39.67 -19.98 39.34 -21 39 C-23.00875442 39.27571139 -25.01178687 39.60235737 -27 40 C-27.33 40.99 -27.66 41.98 -28 43 C-30.3125 43.1875 -30.3125 43.1875 -33 43 C-34.02104551 42.02149805 -35.0206121 41.02019573 -36 40 C-40.33561095 38.26575562 -43.32805587 39.61951286 -47.42578125 41.30859375 C-48.20501953 41.65083984 -48.20501953 41.65083984 -49 42 C-49 41.34 -49 40.68 -49 40 C-52.5726772 41.66724936 -55.28636301 43.1571422 -58 46 C-59.485 46.495 -59.485 46.495 -61 47 C-61.33 47.66 -61.66 48.32 -62 49 C-63.03613033 47.76265016 -64.05347802 46.50955363 -65.0625 45.25 C-65.63097656 44.55390625 -66.19945312 43.8578125 -66.78515625 43.140625 C-68 41 -68 41 -67.68359375 38.734375 C-67.45800781 38.16203125 -67.23242188 37.5896875 -67 37 C-66.25234375 37.02320313 -65.5046875 37.04640625 -64.734375 37.0703125 C-63.25710937 37.09738281 -63.25710937 37.09738281 -61.75 37.125 C-60.28820312 37.15980469 -60.28820312 37.15980469 -58.796875 37.1953125 C-55.94717016 36.99631077 -54.44185599 36.400713 -52 35 C-51.278125 34.855625 -50.55625 34.71125 -49.8125 34.5625 C-49.214375 34.376875 -48.61625 34.19125 -48 34 C-47.67 33.01 -47.34 32.02 -47 31 C-43.8125 29.5 -43.8125 29.5 -40 29 C-38.02 30.65 -36.04 32.3 -34 34 C-22.78 22.78 -11.56 11.56 0 0 Z " fill="#F88016" transform="translate(127,164)"/>
<path d="M0 0 C4.83298806 4.02748053 9.38110004 8.24379413 13.80859375 12.7109375 C14.42017838 13.32393707 15.031763 13.93693665 15.66188049 14.56851196 C17.58947559 16.50164564 19.51353928 18.43824987 21.4375 20.375 C22.75432404 21.69684699 24.07137926 23.01846372 25.38867188 24.33984375 C28.59512373 27.55724299 31.79841629 30.77775681 35 34 C37.99943905 32.65427113 40.08076179 31.16462899 42.39160156 28.83544922 C43.35214447 27.87467972 43.35214447 27.87467972 44.33209229 26.89450073 C45.01140808 26.20486237 45.69072388 25.515224 46.390625 24.8046875 C47.09523865 24.09724396 47.79985229 23.38980042 48.52581787 22.66091919 C50.7719539 20.40360138 53.01103009 18.13942367 55.25 15.875 C56.77297717 14.34199047 58.29640939 12.80943285 59.8203125 11.27734375 C63.55216815 7.52345427 67.27825351 3.76391086 71 0 C75.90473901 4.11329871 80.5219528 8.38542461 85.02734375 12.9296875 C85.66112442 13.56488312 86.29490509 14.20007874 86.94789124 14.85452271 C88.94681406 16.85898716 90.94220784 18.86692214 92.9375 20.875 C94.30250133 22.24502389 95.6677336 23.61481774 97.03320312 24.984375 C100.35814211 28.32026543 103.67992353 31.65927036 107 35 C106.01 35.99 106.01 35.99 105 37 C94.11 26.11 83.22 15.22 72 4 C66.67057281 8.50832201 66.67057281 8.50832201 61.63500977 13.25146484 C61.07495743 13.81159271 60.51490509 14.37172058 59.93788147 14.94882202 C59.36154465 15.53032013 58.78520782 16.11181824 58.19140625 16.7109375 C57.57982162 17.32393707 56.968237 17.93693665 56.33811951 18.56851196 C54.41052441 20.50164564 52.48646072 22.43824987 50.5625 24.375 C49.24567596 25.69684699 47.92862074 27.01846372 46.61132812 28.33984375 C43.40487627 31.55724299 40.20158371 34.77775681 37 38 C34.00056095 36.65427113 31.91923821 35.16462899 29.60839844 32.83544922 C28.9680365 32.19493622 28.32767456 31.55442322 27.66790771 30.89450073 C26.98859192 30.20486237 26.30927612 29.515224 25.609375 28.8046875 C24.90476135 28.09724396 24.20014771 27.38980042 23.47418213 26.66091919 C21.2280461 24.40360138 18.98896991 22.13942367 16.75 19.875 C15.22702283 18.34199047 13.70359061 16.80943285 12.1796875 15.27734375 C8.44783185 11.52345427 4.72174649 7.76391086 1 4 C-3.83298806 8.02748053 -8.38110004 12.24379413 -12.80859375 16.7109375 C-13.72597069 17.63043686 -13.72597069 17.63043686 -14.66188049 18.56851196 C-16.58947559 20.50164564 -18.51353928 22.43824987 -20.4375 24.375 C-21.75432404 25.69684699 -23.07137926 27.01846372 -24.38867188 28.33984375 C-27.59512373 31.55724299 -30.79841629 34.77775681 -34 38 C-29.97251947 42.83298806 -25.75620587 47.38110004 -21.2890625 51.80859375 C-20.36956314 52.72597069 -20.36956314 52.72597069 -19.43148804 53.66188049 C-17.49835436 55.58947559 -15.56175013 57.51353928 -13.625 59.4375 C-12.30315301 60.75432404 -10.98153628 62.07137926 -9.66015625 63.38867188 C-6.44275701 66.59512373 -3.22224319 69.79841629 0 73 C-1.32994383 75.95265112 -2.77779316 78.02350216 -5.07275391 80.29980469 C-5.69324615 80.92014587 -6.3137384 81.54048706 -6.95303345 82.17962646 C-7.62079803 82.83706848 -8.28856262 83.4945105 -8.9765625 84.171875 C-9.66181 84.8542926 -10.3470575 85.53671021 -11.05307007 86.23980713 C-13.23905845 88.41461598 -15.43190429 90.58236072 -17.625 92.75 C-19.10983255 94.2247999 -20.59421306 95.70005506 -22.078125 97.17578125 C-25.7135291 100.78915448 -29.35509824 104.39620853 -33 108 C-33.66 107.34 -34.32 106.68 -35 106 C-34.40461426 105.42032471 -33.80922852 104.84064941 -33.19580078 104.2434082 C-30.97941027 102.078305 -28.76997344 99.90640174 -26.56494141 97.72973633 C-25.14356793 96.33077515 -23.71440589 94.93974164 -22.28515625 93.54882812 C-20.94130859 92.21948242 -20.94130859 92.21948242 -19.5703125 90.86328125 C-18.32918701 89.64572144 -18.32918701 89.64572144 -17.06298828 88.40356445 C-14.17763496 85.04187174 -13 82.42873984 -13 78 C-13.99 78.495 -13.99 78.495 -15 79 C-15.99 79 -16.98 79 -18 79 C-18.33 79.66 -18.66 80.32 -19 81 C-19 80.34 -19 79.68 -19 79 C-19.66 79 -20.32 79 -21 79 C-21.33 79.66 -21.66 80.32 -22 81 C-23.33333333 77 -24.66666667 73 -26 69 C-25.01 68.67 -24.02 68.34 -23 68 C-22.34 67.34 -21.68 66.68 -21 66 C-20.01 66.495 -20.01 66.495 -19 67 C-21.3773161 64.6226839 -22.70285207 64.32971479 -26 64 C-26.66 64.66 -27.32 65.32 -28 66 C-28.969375 65.67 -29.93875 65.34 -30.9375 65 C-33.62149574 63.94826637 -33.62149574 63.94826637 -35 64 C-35.99 64.99 -35.99 64.99 -37 66 C-39.25 65.6875 -39.25 65.6875 -42 65 C-45.77377118 64.22984262 -48.32038763 63.89611629 -52 65 C-55.29668555 65 -57.82023454 64.65225958 -61 64 C-61.99 64 -62.98 64 -64 64 C-64.27952038 51.62345881 -63.81487932 40.59948201 -59 29 C-58.34 29.33 -57.68 29.66 -57 30 C-57.33 30.66 -57.66 31.32 -58 32 C-57.34 32 -56.68 32 -56 32 C-55.34 31.34 -54.68 30.68 -54 30 C-52 30 -52 30 -50.375 31.5 C-49.92125 31.995 -49.4675 32.49 -49 33 C-48.01 32.505 -48.01 32.505 -47 32 C-46.34 32.33 -45.68 32.66 -45 33 C-44.67 32.01 -44.34 31.02 -44 30 C-43.34 30.99 -42.68 31.98 -42 33 C-40.68 33 -39.36 33 -38 33 C-37.34 32.34 -36.68 31.68 -36 31 C-35.34 31 -34.68 31 -34 31 C-34 31.66 -34 32.32 -34 33 C-26.37000348 26.66552548 -19.4785982 19.5915987 -12.5 12.5625 C-11.28408886 11.3415631 -10.06794484 10.12085808 -8.8515625 8.90039062 C-5.89835034 5.93625987 -2.94830602 2.96901042 0 0 Z " fill="#FB4B1E" transform="translate(92,54)"/>
<path d="M0 0 C2.9375 0.75 2.9375 0.75 6 2 C6.875 4.125 6.875 4.125 7 6 C8.32 6 9.64 6 11 6 C11.04254356 7.99954746 11.04080783 10.00041636 11 12 C10.67 12.33 10.34 12.66 10 13 C10.99 13 11.98 13 13 13 C13.495 13.99 13.495 13.99 14 15 C15.32 14.67 16.64 14.34 18 14 C27.74881821 42.07659644 26.06791473 72.7558637 14 100 C13.03801253 101.36101355 12.0466091 102.70293132 11 104 C10.01 103.67 9.02 103.34 8 103 C7.01 103.495 7.01 103.495 6 104 C5.731875 102.9275 5.46375 101.855 5.1875 100.75 C4.1271038 97.40138041 3.44827404 95.44827404 1 93 C-0.33076989 92.65657551 -1.66431979 92.32380126 -3 92 C-5.14692413 90.09843863 -6.71563539 88.56872921 -8 86 C-7.34 86 -6.68 86 -6 86 C-6.33 85.34 -6.66 84.68 -7 84 C-7.99 84 -8.98 84 -10 84 C-10.66 84 -11.32 84 -12 84 C-12 83.34 -12 82.68 -12 82 C-11.34 82 -10.68 82 -10 82 C-10.495 79.525 -10.495 79.525 -11 77 C-12.65 76.67 -14.3 76.34 -16 76 C-16 75.34 -16 74.68 -16 74 C-16.66 74 -17.32 74 -18 74 C-18.66 73.01 -19.32 72.02 -20 71 C-20.99 71.495 -20.99 71.495 -22 72 C-22 70.35 -22 68.7 -22 67 C-21.443125 67.144375 -20.88625 67.28875 -20.3125 67.4375 C-19.1678125 67.7159375 -19.1678125 67.7159375 -18 68 C-17.195625 68.226875 -16.39125 68.45375 -15.5625 68.6875 C-12.43673267 69.06869114 -10.86518835 68.21770505 -8 67 C-5.1875 66.875 -5.1875 66.875 -3 67 C-3.33 67.66 -3.66 68.32 -4 69 C-4.66 69 -5.32 69 -6 69 C-5.505 69.99 -5.505 69.99 -5 71 C-4.59007812 70.4225 -4.18015625 69.845 -3.7578125 69.25 C-3.21898437 68.5075 -2.68015625 67.765 -2.125 67 C-1.59132812 66.2575 -1.05765625 65.515 -0.5078125 64.75 C-0.01023438 64.1725 0.48734375 63.595 1 63 C1.66 63 2.32 63 3 63 C3.66 59.37 4.32 55.74 5 52 C5.66 52 6.32 52 7 52 C7.6276621 30.16703794 7.6276621 30.16703794 3 9 C2.69191406 8.02289063 2.38382813 7.04578125 2.06640625 6.0390625 C1.41513799 4.01358704 0.71559085 2.00365439 0 0 Z M6 95 C6 96.65 6 98.3 6 100 C6.33 100 6.66 100 7 100 C7 98.35 7 96.7 7 95 C6.67 95 6.34 95 6 95 Z M-19 74 C-18.34 74.66 -17.68 75.32 -17 76 C-17.66 76 -18.32 76 -19 76 C-19 75.34 -19 74.68 -19 74 Z " fill="#FA4303" transform="translate(220,77)"/>
<path d="M0 0 C0 0.99 0 1.98 0 3 C0.495 4.485 0.495 4.485 1 6 C0.34 6 -0.32 6 -1 6 C-1.07653809 6.73283203 -1.15307617 7.46566406 -1.23193359 8.22070312 C-2.19710793 11.71324751 -3.64311054 13.01909162 -6.2890625 15.46875 C-7.14757812 16.28730469 -8.00609375 17.10585937 -8.890625 17.94921875 C-10.71772313 19.65364029 -12.54847717 21.35415098 -14.3828125 23.05078125 C-15.23875 23.86933594 -16.0946875 24.68789062 -16.9765625 25.53125 C-17.77143066 26.26923828 -18.56629883 27.00722656 -19.38525391 27.76757812 C-21.28204273 29.90000745 -21.28204273 29.90000745 -20.86914062 32.65258789 C-19.76983459 35.62164057 -18.2721748 36.89530753 -15.875 38.9375 C-12.03890114 42.58764793 -12.03890114 42.58764793 -11.6875 46.3125 C-13.27776454 49.56875596 -14.8683594 50.31373199 -18 52 C-18 52.99 -18 53.98 -18 55 C-20.475 55.495 -20.475 55.495 -23 56 C-23.33 56.99 -23.66 57.98 -24 59 C-25.485 59.495 -25.485 59.495 -27 60 C-26.67 60.66 -26.34 61.32 -26 62 C-27.375 63.5 -27.375 63.5 -29 65 C-29.66 65 -30.32 65 -31 65 C-31 65.66 -31 66.32 -31 67 C-31.66 67 -32.32 67 -33 67 C-33.33 67.99 -33.66 68.98 -34 70 C-36.04179595 71.40813514 -37.35487281 72.02045858 -39.84765625 71.94140625 C-43.18560058 70.48143423 -44.69993278 67.64247819 -46.625 64.6875 C-47.01945312 64.10548828 -47.41390625 63.52347656 -47.8203125 62.92382812 C-53.11793839 55.02213275 -53.11793839 55.02213275 -52.625 50.75 C-52.41875 49.8425 -52.2125 48.935 -52 48 C-51.34 48.66 -50.68 49.32 -50 50 C-47.9254644 50.1490712 -47.9254644 50.1490712 -46 49 C-46 48.34 -46 47.68 -46 47 C-46.66 47 -47.32 47 -48 47 C-47.67 45.35 -47.34 43.7 -47 42 C-46.67 42.99 -46.34 43.98 -46 45 C-45.34 44.01 -44.68 43.02 -44 42 C-42.9790625 41.505 -42.9790625 41.505 -41.9375 41 C-39.64657009 40.10301684 -39.64657009 40.10301684 -39 37 C-36.5625 34.3125 -36.5625 34.3125 -34 32 C-33.34 32 -32.68 32 -32 32 C-31.45627049 28.94152152 -31 26.11227195 -31 23 C-30.01 23.33 -29.02 23.66 -28 24 C-26.68 22.35 -25.36 20.7 -24 19 C-23.67 19.99 -23.34 20.98 -23 22 C-22.34 22.33 -21.68 22.66 -21 23 C-20.505 21.515 -20.505 21.515 -20 20 C-19.0206121 18.97980427 -18.02104551 17.97850195 -17 17 C-16.67 16.34 -16.34 15.68 -16 15 C-16.66 14.67 -17.32 14.34 -18 14 C-17.67 13.34 -17.34 12.68 -17 12 C-16.7525 11.34 -16.505 10.68 -16.25 10 C-14.59676218 7.35481948 -12.87452795 7.03188183 -10 6 C-9.67 5.34 -9.34 4.68 -9 4 C-7.1875 3.18359375 -7.1875 3.18359375 -5 2.4375 C-2.26066983 1.60962158 -2.26066983 1.60962158 0 0 Z " fill="#F95404" transform="translate(79,130)"/>
<path d="M0 0 C5.75 1.875 5.75 1.875 8 3 C10.7306606 11.49538854 10.18226049 20.18061718 10 29 C7.1875 29.625 7.1875 29.625 4 30 C3.01 29.34 2.02 28.68 1 28 C-0.671549 28.30791692 -2.33805547 28.64386903 -4 29 C-4.804375 28.814375 -5.60875 28.62875 -6.4375 28.4375 C-9.82465599 27.85920508 -11.81886881 28.76650015 -15 30 C-16.0725 30.309375 -17.145 30.61875 -18.25 30.9375 C-21.28798821 31.80774245 -21.28798821 31.80774245 -23 35 C-23.63292383 37.11280345 -23.63292383 37.11280345 -24 39 C-24.2475 38.4225 -24.495 37.845 -24.75 37.25 C-25.93990475 34.86550111 -25.93990475 34.86550111 -28.125 32.875 C-28.74375 32.25625 -29.3625 31.6375 -30 31 C-30 30.34 -30 29.68 -30 29 C-30.886875 29.185625 -31.77375 29.37125 -32.6875 29.5625 C-35.85178811 29.98042484 -37.94839642 29.80777742 -41 29 C-41 28.34 -41 27.68 -41 27 C-44.3 30.3 -47.6 33.6 -51 37 C-47.08110199 41.66107463 -43.05182926 46.08734055 -38.7265625 50.37109375 C-38.15795502 50.93828629 -37.58934753 51.50547882 -37.00350952 52.08985901 C-35.21303764 53.87479913 -33.41909516 55.65620256 -31.625 57.4375 C-30.39950677 58.65796939 -29.17424428 59.87867053 -27.94921875 61.09960938 C-24.96880226 64.06908756 -21.98527106 67.03540257 -19 70 C-19.66 70.66 -20.32 71.32 -21 72 C-31.89 61.11 -42.78 50.22 -54 39 C-52.15269002 35.30538004 -50.67993212 33.42285442 -47.82421875 30.55859375 C-46.99599609 29.72779297 -46.16777344 28.89699219 -45.31445312 28.04101562 C-44.44755859 27.18185547 -43.58066406 26.32269531 -42.6875 25.4375 C-41.83220703 24.57447266 -40.97691406 23.71144531 -40.09570312 22.82226562 C-39.26361328 21.99275391 -38.43152344 21.16324219 -37.57421875 20.30859375 C-36.81713623 19.55376709 -36.06005371 18.79894043 -35.2800293 18.02124023 C-32.98075654 15.98294072 -30.64668146 14.5442837 -28 13 C-26.31237149 11.3545622 -24.6459651 9.68711423 -23 8 C-21.35135455 6.64444707 -19.68996005 5.30368347 -18 4 C-15.525 5.485 -15.525 5.485 -13 7 C-12.401875 6.34 -11.80375 5.68 -11.1875 5 C-7.92914784 2.02093517 -4.28665152 3 0 3 C0 2.01 0 1.02 0 0 Z " fill="#FB491D" transform="translate(218,90)"/>
<path d="M0 0 C0.66 0 1.32 0 2 0 C1.54548816 1.73017508 1.08621143 3.45909877 0.625 5.1875 C0.24214844 6.63189453 0.24214844 6.63189453 -0.1484375 8.10546875 C-1 11 -1 11 -2.0390625 13.42578125 C-4.78383945 20.77865933 -4.11729744 28.71106151 -4.0625 36.4375 C-4.05798828 37.64599609 -4.05347656 38.85449219 -4.04882812 40.09960938 C-4.03710145 43.06645789 -4.02068896 46.0332027 -4 49 C-3.34 49.33 -2.68 49.66 -2 50 C-1.59367909 51.98645776 -1.27050453 53.99053778 -1 56 C-0.62277985 58.72502965 -0.62277985 58.72502965 0 61 C0.66 61.33 1.32 61.66 2 62 C0.54997977 66.10839064 -1.3979134 69.50344613 -4 73 C-4.66 73 -5.32 73 -6 73 C-6 73.66 -6 74.32 -6 75 C-7.66666667 76.33333333 -9.33333333 77.66666667 -11 79 C-11 79.66 -11 80.32 -11 81 C-11.66 81 -12.32 81 -13 81 C-13.495 81.99 -13.495 81.99 -14 83 C-14.99 83.495 -14.99 83.495 -16 84 C-22.42898423 65.39880564 -25.24550405 38.50657576 -17 20 C-15 16.6875 -15 16.6875 -13 14 C-12.34 14 -11.68 14 -11 14 C-10.79375 13.443125 -10.5875 12.88625 -10.375 12.3125 C-8.49627846 9.15283196 -5.80993547 7.34161289 -3 5 C-1.68834743 2.88339573 -1.68834743 2.88339573 -1 1 C-0.67 0.67 -0.34 0.34 0 0 Z " fill="#FA3702" transform="translate(33,79)"/>
<path d="M0 0 C6.78376359 5.55035203 12.85522968 11.76442027 19 18 C18.505 19.485 18.505 19.485 18 21 C16.35 21 14.7 21 13 21 C12.67 22.32 12.34 23.64 12 25 C11.071875 25.103125 10.14375 25.20625 9.1875 25.3125 C6.02999003 25.67374559 6.02999003 25.67374559 4.58984375 27.52734375 C2.46604895 29.49459348 1.22158953 29.34272279 -1.625 29.25 C-2.42164062 29.23453125 -3.21828125 29.2190625 -4.0390625 29.203125 C-6 29 -6 29 -7 28 C-6.67668524 33.33469353 -3.6903801 36.44367217 0 40 C1.42019169 41.06514377 2.85792127 42.10731812 4.3125 43.125 C6.96411068 45.02118049 7.86237231 45.66357677 9.125 48.75 C9 51 9 51 7 53 C9.46278801 55.46278801 11.70676982 55.99771255 15 57 C14.67 57.99 14.34 58.98 14 60 C-0.29236308 55.77329507 -20.65169282 42.41599651 -28 29 C-27.66015625 26.78125 -27.66015625 26.78125 -27 25 C-25.35 25 -23.7 25 -22 25 C-21.67 24.34 -21.34 23.68 -21 23 C-20.34 23 -19.68 23 -19 23 C-19 22.34 -19 21.68 -19 21 C-18.34 21 -17.68 21 -17 21 C-15.5393715 18.35261084 -15 17.10551666 -15 14 C-14.01 13.67 -13.02 13.34 -12 13 C-11.67 12.34 -11.34 11.68 -11 11 C-8.9375 9.875 -8.9375 9.875 -7 9 C-7 8.34 -7 7.68 -7 7 C-2.52941176 3 -2.52941176 3 0 3 C0 2.01 0 1.02 0 0 Z " fill="#F66705" transform="translate(67,174)"/>
<path d="M0 0 C2 2 2 2 2 5 C3.32 5 4.64 5 6 5 C6.33 5.66 6.66 6.32 7 7 C7.99 7 8.98 7 10 7 C11 10 11 10 10 13 C9.67 13.33 9.34 13.66 9 14 C9.99 14.33 10.98 14.66 12 15 C12.66 14.67 13.32 14.34 14 14 C14 14.99 14 15.98 14 17 C13.67 17.33 13.34 17.66 13 18 C13.66 18.45375 14.32 18.9075 15 19.375 C15.66 19.91125 16.32 20.4475 17 21 C17 21.66 17 22.32 17 23 C18.32 23.33 19.64 23.66 21 24 C21.33 23.34 21.66 22.68 22 22 C22.66 23.32 23.32 24.64 24 26 C24.33 26 24.66 26 25 26 C25.66 28.31 26.32 30.62 27 33 C27.66 32.67 28.32 32.34 29 32 C29.33 32.99 29.66 33.98 30 35 C30.33 34.01 30.66 33.02 31 32 C30.53558236 37.25249814 29.45279388 40.49903655 26.4375 44.8125 C25.72464844 45.83472656 25.01179688 46.85695312 24.27734375 47.91015625 C20.98124641 52.38221971 17.55256726 56.72936063 14 61 C11.59383367 58.59383367 11.624067 57.27635178 11 54 C10.36525925 52.65117592 9.70151152 51.3153341 9 50 C8.67 49.01 8.34 48.02 8 47 C6.62514468 45.45833358 6.62514468 45.45833358 5 44 C4 43 3 42 2 41 C2 41.66 2 42.32 2 43 C1.01 42.67 0.02 42.34 -1 42 C-0.67 41.01 -0.34 40.02 0 39 C-0.99 38.67 -1.98 38.34 -3 38 C-3 37.01 -3 36.02 -3 35 C-3.66 34.34 -4.32 33.68 -5 33 C-5 32.34 -5 31.68 -5 31 C-6.32 30.67 -7.64 30.34 -9 30 C-9 29.01 -9 28.02 -9 27 C-8.34 27 -7.68 27 -7 27 C-7 26.34 -7 25.68 -7 25 C-6.01 25 -5.02 25 -4 25 C-3.04548134 21.67853306 -2.24368327 18.45394541 -2 15 C-3.72376805 12.05099476 -3.72376805 12.05099476 -6 10 C-6 7 -6 7 -4 5 C-2.65705519 3.34106818 -1.32255312 1.67523395 0 0 Z M1 5 C1 5.66 1 6.32 1 7 C1.66 6.67 2.32 6.34 3 6 C2.34 5.67 1.68 5.34 1 5 Z M26 26 C26.33 26 26.66 26 27 26 C27 27.65 27 29.3 27 31 C26.67 31 26.34 31 26 31 C26 29.35 26 27.7 26 26 Z " fill="#F85404" transform="translate(200,146)"/>
<path d="M0 0 C2.80969467 1.28022875 4.8539238 2.60714129 7.02441406 4.79736328 C7.86483246 5.63800827 7.86483246 5.63800827 8.722229 6.49563599 C9.31404968 7.09777924 9.90587036 7.69992249 10.515625 8.3203125 C11.13145447 8.93897186 11.74728394 9.55763123 12.3817749 10.19503784 C14.34260336 12.16703814 16.29635301 14.14588737 18.25 16.125 C19.58026799 17.46530164 20.910992 18.80515083 22.2421875 20.14453125 C25.5001015 23.42446589 28.75168533 26.71055942 32 30 C31.34 31.32 30.68 32.64 30 34 C29.236875 33.835 28.47375 33.67 27.6875 33.5 C24.96403764 32.90854604 24.96403764 32.90854604 22 33 C22 32.34 22 31.68 22 31 C20.99678711 31.16226074 19.99357422 31.32452148 18.95996094 31.49169922 C15.13481325 31.98269536 11.49443858 32.12931539 7.640625 32.1328125 C6.63403839 32.13424759 6.63403839 32.13424759 5.6071167 32.13571167 C4.20210678 32.13638694 2.79709362 32.13457866 1.39208984 32.13037109 C-0.7582086 32.12497942 -2.90830141 32.13035549 -5.05859375 32.13671875 C-6.42968796 32.13605851 -7.80078204 32.13477848 -9.171875 32.1328125 C-10.4103418 32.13168457 -11.64880859 32.13055664 -12.92480469 32.12939453 C-16 32 -16 32 -19 31 C-19.33 31.66 -19.66 32.32 -20 33 C-20.33 32.67 -20.66 32.34 -21 32 C-21.66 32.66 -22.32 33.32 -23 34 C-24.9375 34.75 -24.9375 34.75 -27 35 C-27.99 34.34 -28.98 33.68 -30 33 C-29.41954076 29.79083268 -28.53623558 28.16563512 -26.22436523 25.88378906 C-25.64383896 25.30348938 -25.06331268 24.7231897 -24.4651947 24.12530518 C-23.83601639 23.51161072 -23.20683807 22.89791626 -22.55859375 22.265625 C-21.91632339 21.62759949 -21.27405304 20.98957397 -20.61231995 20.33221436 C-18.56098274 18.29765882 -16.49945727 16.27378621 -14.4375 14.25 C-13.04423766 12.87178509 -11.65165102 11.49288675 -10.25976562 10.11328125 C-6.84763135 6.73420954 -3.42632293 3.36468136 0 0 Z " fill="#F87709" transform="translate(127,164)"/>
<path d="M0 0 C0.33 0.66 0.66 1.32 1 2 C1.99 1.67 2.98 1.34 4 1 C4.66 1.33 5.32 1.66 6 2 C6.33 1.34 6.66 0.68 7 0 C9.24609375 0.09765625 9.24609375 0.09765625 12 1 C13.61645896 3.16430912 14.82785396 5.07178664 16.0625 7.4375 C16.40611572 8.06986572 16.74973145 8.70223145 17.10375977 9.35375977 C20.9949343 16.64221123 24.27774161 23.69402849 25 32 C24.401875 31.814375 23.80375 31.62875 23.1875 31.4375 C20.83591238 30.77906313 20.83591238 30.77906313 18 32 C16.48305064 32.37044931 14.96178381 32.72349125 13.4375 33.0625 C12.65246094 33.23910156 11.86742187 33.41570312 11.05859375 33.59765625 C9 34 9 34 7 34 C6.505 34.66 6.01 35.32 5.5 36 C4.7575 36.99 4.7575 36.99 4 38 C3.34 38 2.68 38 2 38 C1.34 37.01 0.68 36.02 0 35 C-3.83219177 36.56126332 -6.17361222 39.02866925 -9 42 C-10 43 -11 44 -12 45 C-12.66 44.67 -13.32 44.34 -14 44 C-12.68322266 42.78763672 -12.68322266 42.78763672 -11.33984375 41.55078125 C-10.20495508 40.47216805 -9.07088245 39.39269579 -7.9375 38.3125 C-7.35677734 37.78205078 -6.77605469 37.25160156 -6.17773438 36.70507812 C-5.63310547 36.17978516 -5.08847656 35.65449219 -4.52734375 35.11328125 C-4.01937256 34.63673096 -3.51140137 34.16018066 -2.98803711 33.66918945 C-1.80060517 31.98824949 -1.80060517 31.98824949 -2.0078125 29.6640625 C-3.3440921 26.07609916 -5.64211395 23.8598057 -8.34765625 21.26171875 C-8.87894638 20.73608841 -9.41023651 20.21045807 -9.95762634 19.66889954 C-11.65006582 17.99877952 -13.35589996 16.34313523 -15.0625 14.6875 C-16.21510573 13.55496492 -17.36680942 12.42151101 -18.51757812 11.28710938 C-21.33471121 8.51398469 -24.16393728 5.75375707 -27 3 C-23.71150713 2.11333852 -20.85282453 1.8956797 -17.4375 1.9375 C-16.48746094 1.94652344 -15.53742188 1.95554688 -14.55859375 1.96484375 C-13.71425781 1.97644531 -12.86992187 1.98804688 -12 2 C-9.06537205 2.09805807 -9.06537205 2.09805807 -6.5 1.5 C-4 1 -4 1 -1 1 C-0.67 0.67 -0.34 0.34 0 0 Z " fill="#FC6A59" transform="translate(200,61)"/>
<path d="M0 0 C0.79277344 0.43570313 1.58554688 0.87140625 2.40234375 1.3203125 C30.3678539 15.59662818 60.80762597 16.38783756 90.36328125 6.96484375 C92.96634484 6.07515993 92.96634484 6.07515993 95.16796875 4.87890625 C97 4 97 4 100 4 C101.171875 9.859375 101.171875 9.859375 101 12 C97.86458021 16.54036199 93.16970936 17.61898325 88.125 19.125 C87.27075439 19.38361816 86.41650879 19.64223633 85.53637695 19.90869141 C60.29581668 27.30968488 30.10979205 26.09050434 6 15 C5.67 14.01 5.34 13.02 5 12 C5.33 11.67 5.66 11.34 6 11 C5.05125 10.731875 4.1025 10.46375 3.125 10.1875 C0 9 0 9 -2 6 C-1.67 5.38125 -1.34 4.7625 -1 4.125 C0.14193235 2.08981656 0.14193235 2.08981656 0 0 Z " fill="#F48D06" transform="translate(75,220)"/>
<path d="M0 0 C2.78820598 0.46057399 5.57257677 0.73120372 8.38671875 0.98828125 C9.89298828 1.13136719 9.89298828 1.13136719 11.4296875 1.27734375 C13.97770151 1.35640765 15.7747071 1.04063927 18.19921875 0.36328125 C19.53255208 0.69661458 20.86588542 1.02994792 22.19921875 1.36328125 C24.25318601 0.95398139 24.25318601 0.95398139 26.19921875 0.36328125 C29.53255208 0.36328125 32.86588542 0.36328125 36.19921875 0.36328125 C36.85921875 0.03328125 37.51921875 -0.29671875 38.19921875 -0.63671875 C38.69421875 0.35328125 38.69421875 0.35328125 39.19921875 1.36328125 C39.77671875 1.19828125 40.35421875 1.03328125 40.94921875 0.86328125 C47.25112056 -0.53714137 55.938506 -0.15843279 62.32421875 0.86328125 C66.06761279 1.34629984 69.52446001 1.36477689 73.28125 1.203125 C75.19921875 1.36328125 75.19921875 1.36328125 77.19921875 3.36328125 C51.45036023 17.51100571 22.80107696 18.46232115 -5.1640625 11.1640625 C-10.72943569 9.54509707 -15.73290004 7.15106859 -20.80078125 4.36328125 C-20.47078125 3.37328125 -20.14078125 2.38328125 -19.80078125 1.36328125 C-18.67929688 1.39808594 -18.67929688 1.39808594 -17.53515625 1.43359375 C-16.5503125 1.45164063 -15.56546875 1.4696875 -14.55078125 1.48828125 C-13.57625 1.51148438 -12.60171875 1.5346875 -11.59765625 1.55859375 C-7.01213145 1.23837554 -4.79879423 -0.86399115 0 0 Z " fill="#F8A443" transform="translate(100.80078125,218.63671875)"/>
<path d="M0 0 C0.33 0.66 0.66 1.32 1 2 C5.17252206 1.56420325 9.30786632 1.12584249 13.4375 0.375 C16 0 16 0 18 1 C19.91211485 1.09701521 21.82761419 1.13076232 23.7421875 1.1328125 C24.89074219 1.13410156 26.03929687 1.13539062 27.22265625 1.13671875 C29.03056641 1.13091797 29.03056641 1.13091797 30.875 1.125 C32.67130859 1.13080078 32.67130859 1.13080078 34.50390625 1.13671875 C35.65503906 1.13542969 36.80617187 1.13414063 37.9921875 1.1328125 C39.04776855 1.13168457 40.10334961 1.13055664 41.19091797 1.12939453 C43.65084195 1.01608324 45.64227791 0.63978069 48 0 C51 0 51 0 53.9375 0.5625 C56.85156011 0.9787943 58.25275393 0.75786098 61 0 C61.99 0.33 62.98 0.66 64 1 C64.66 0.67 65.32 0.34 66 0 C66.99 0.33 67.98 0.66 69 1 C71.12588344 0.86670625 71.12588344 0.86670625 73.375 0.5 C76.89998285 0.04442871 79.51979463 0.24752316 83 1 C85.00109278 0.67329097 87.00116131 0.34022786 89 0 C90.33568021 0.32380126 91.66923011 0.65657551 93 1 C93.825 0.835 94.65 0.67 95.5 0.5 C98.18641629 -0.03728326 99.42722763 0.19600864 102 1 C103.66519519 1.34060811 105.33157466 1.67558396 107 2 C107.33 1.34 107.66 0.68 108 0 C109.0828125 0.2475 109.0828125 0.2475 110.1875 0.5 C112.86427545 0.97587119 115.28949487 1.077443 118 1 C118.99 2.98 118.99 2.98 120 5 C113.84765625 5.87890625 113.84765625 5.87890625 112 6 C111.505 5.505 111.505 5.505 111 5 C108.89284516 5.09318374 106.78849796 5.25151002 104.6875 5.4375 C98.1049558 5.96410354 91.60004799 6.108792 85 6 C84.67 7.65 84.34 9.3 84 11 C83.01 10.01 83.01 10.01 82 9 C81.67 9.33 81.34 9.66 81 10 C77.8727105 10.06035782 74.76131704 10.0204342 71.63476562 9.9609375 C68.23158377 9.92101748 65.26977231 10.07609083 62 11 C58 11 58 11 55.6875 10.4375 C52.86765227 9.84114215 52.86765227 9.84114215 49.5 10.5 C46.14284337 10.9795938 44.24519355 10.66568073 41 10 C38.99890722 10.32670903 36.99883869 10.65977214 35 11 C33.66018514 10.6937566 32.32488113 10.36548445 31 10 C30.01 10.33 29.02 10.66 28 11 C26.66666667 10.66666667 25.33333333 10.33333333 24 10 C23.01 10.33 22.02 10.66 21 11 C19.39111457 10.76537087 17.78271914 10.52566483 16.1796875 10.25390625 C12.54438442 9.83043905 8.91160673 9.98285326 5.2578125 10.0625 C3 10 3 10 2 9 C0.03834283 9.09076324 -1.920441 9.24766873 -3.875 9.4375 C-12.48582996 10.25708502 -12.48582996 10.25708502 -15 9 C-12.69 6.36 -10.38 3.72 -8 1 C-7.01 1.33 -6.02 1.66 -5 2 C-2.3430809 1.12085312 -2.3430809 1.12085312 0 0 Z " fill="#FD8F86" transform="translate(73,40)"/>
<path d="M0 0 C4.83298806 4.02748053 9.38110004 8.24379413 13.80859375 12.7109375 C14.42017838 13.32393707 15.031763 13.93693665 15.66188049 14.56851196 C17.58947559 16.50164564 19.51353928 18.43824987 21.4375 20.375 C22.75432404 21.69684699 24.07137926 23.01846372 25.38867188 24.33984375 C28.59512373 27.55724299 31.79841629 30.77775681 35 34 C37.99943905 32.65427113 40.08076179 31.16462899 42.39160156 28.83544922 C43.35214447 27.87467972 43.35214447 27.87467972 44.33209229 26.89450073 C45.01140808 26.20486237 45.69072388 25.515224 46.390625 24.8046875 C47.09523865 24.09724396 47.79985229 23.38980042 48.52581787 22.66091919 C50.7719539 20.40360138 53.01103009 18.13942367 55.25 15.875 C56.77297717 14.34199047 58.29640939 12.80943285 59.8203125 11.27734375 C63.55216815 7.52345427 67.27825351 3.76391086 71 0 C75.90473901 4.11329871 80.5219528 8.38542461 85.02734375 12.9296875 C85.66112442 13.56488312 86.29490509 14.20007874 86.94789124 14.85452271 C88.94681406 16.85898716 90.94220784 18.86692214 92.9375 20.875 C94.30250133 22.24502389 95.6677336 23.61481774 97.03320312 24.984375 C100.35814211 28.32026543 103.67992353 31.65927036 107 35 C106.01 35.99 106.01 35.99 105 37 C94.11 26.11 83.22 15.22 72 4 C66.67057281 8.50832201 66.67057281 8.50832201 61.63500977 13.25146484 C61.07495743 13.81159271 60.51490509 14.37172058 59.93788147 14.94882202 C59.36154465 15.53032013 58.78520782 16.11181824 58.19140625 16.7109375 C57.57982162 17.32393707 56.968237 17.93693665 56.33811951 18.56851196 C54.41052441 20.50164564 52.48646072 22.43824987 50.5625 24.375 C49.24567596 25.69684699 47.92862074 27.01846372 46.61132812 28.33984375 C43.40487627 31.55724299 40.20158371 34.77775681 37 38 C34.00056095 36.65427113 31.91923821 35.16462899 29.60839844 32.83544922 C28.9680365 32.19493622 28.32767456 31.55442322 27.66790771 30.89450073 C26.98859192 30.20486237 26.30927612 29.515224 25.609375 28.8046875 C24.90476135 28.09724396 24.20014771 27.38980042 23.47418213 26.66091919 C21.2280461 24.40360138 18.98896991 22.13942367 16.75 19.875 C15.22702283 18.34199047 13.70359061 16.80943285 12.1796875 15.27734375 C8.44783185 11.52345427 4.72174649 7.76391086 1 4 C-3.83298806 8.02748053 -8.38110004 12.24379413 -12.80859375 16.7109375 C-13.72597069 17.63043686 -13.72597069 17.63043686 -14.66188049 18.56851196 C-16.58947559 20.50164564 -18.51353928 22.43824987 -20.4375 24.375 C-21.75432404 25.69684699 -23.07137926 27.01846372 -24.38867188 28.33984375 C-27.59512373 31.55724299 -30.79841629 34.77775681 -34 38 C-33.0542569 39.11228972 -32.107228 40.22348623 -31.15966797 41.33422852 C-30.36881302 42.26260277 -30.36881302 42.26260277 -29.5619812 43.20973206 C-27.51461082 45.5563298 -25.34333058 47.75278049 -23.125 49.9375 C-21.95324219 51.09572266 -21.95324219 51.09572266 -20.7578125 52.27734375 C-20.17773438 52.84582031 -19.59765625 53.41429687 -19 54 C-19.66 54.99 -20.32 55.98 -21 57 C-21.66 57 -22.32 57 -23 57 C-23.474375 56.360625 -23.94875 55.72125 -24.4375 55.0625 C-25.9091365 52.71627037 -25.9091365 52.71627037 -29 52 C-29.99 52 -30.98 52 -32 52 C-33.50640761 51.74347407 -35.00655896 51.44857889 -36.5 51.125 C-37.2734375 50.96257812 -38.046875 50.80015625 -38.84375 50.6328125 C-41 50 -41 50 -44 48 C-44 47.34 -44 46.68 -44 46 C-45.24716797 46.10828125 -45.24716797 46.10828125 -46.51953125 46.21875 C-48.14955078 46.35796875 -48.14955078 46.35796875 -49.8125 46.5 C-50.89144531 46.5928125 -51.97039063 46.685625 -53.08203125 46.78125 C-56.48724229 47.03652687 -58.73564235 47.08811922 -62 46 C-62.40368295 39.54107286 -61.5915262 34.93891422 -59 29 C-58.34 29.33 -57.68 29.66 -57 30 C-57.33 30.66 -57.66 31.32 -58 32 C-57.34 32 -56.68 32 -56 32 C-55.34 31.34 -54.68 30.68 -54 30 C-52 30 -52 30 -50.375 31.5 C-49.92125 31.995 -49.4675 32.49 -49 33 C-48.01 32.505 -48.01 32.505 -47 32 C-46.34 32.33 -45.68 32.66 -45 33 C-44.67 32.01 -44.34 31.02 -44 30 C-43.34 30.99 -42.68 31.98 -42 33 C-40.68 33 -39.36 33 -38 33 C-37.34 32.34 -36.68 31.68 -36 31 C-35.34 31 -34.68 31 -34 31 C-34 31.66 -34 32.32 -34 33 C-26.37000348 26.66552548 -19.4785982 19.5915987 -12.5 12.5625 C-11.28408886 11.3415631 -10.06794484 10.12085808 -8.8515625 8.90039062 C-5.89835034 5.93625987 -2.94830602 2.96901042 0 0 Z " fill="#FC5130" transform="translate(92,54)"/>
<path d="M0 0 C-3.12434511 1.04144837 -5.24250082 1.10096963 -8.515625 1.0625 C-9.60230469 1.05476563 -10.68898438 1.04703125 -11.80859375 1.0390625 C-14.0872416 1.01319817 -16.36588748 0.98715895 -18.64453125 0.9609375 C-24.2279502 0.92138554 -29.49883677 1.04844744 -35 2 C-38 2 -38 2 -40 1 C-40.61875 1.165 -41.2375 1.33 -41.875 1.5 C-44.31663556 2.07450248 -45.61023645 1.61671317 -48 1 C-48.99 1.33 -49.98 1.66 -51 2 C-51.495 1.505 -51.495 1.505 -52 1 C-55.40575878 1.15086418 -58.78852827 1.40616564 -62.18554688 1.68359375 C-67.79828088 2.10085956 -67.79828088 2.10085956 -70 1 C-70.598125 1.165 -71.19625 1.33 -71.8125 1.5 C-74.47942781 2.1095835 -76.34975923 1.55794542 -79 1 C-79.99 1.495 -79.99 1.495 -81 2 C-81 1.34 -81 0.68 -81 0 C-82.03125 0.165 -83.0625 0.33 -84.125 0.5 C-87.48244326 0.93321848 -90.62336157 1.08235703 -94 1 C-92.54473348 -1.89144757 -91.59589075 -3.67088024 -88.72265625 -5.2578125 C-87.84480469 -5.54398438 -86.96695313 -5.83015625 -86.0625 -6.125 C-85.08667969 -6.44339844 -84.11085938 -6.76179688 -83.10546875 -7.08984375 C-56.6430191 -14.84550509 -24.13133816 -15.33206568 0 0 Z " fill="#FEB2AC" transform="translate(177,33)"/>
<path d="M0 0 C0.5775 0.165 1.155 0.33 1.75 0.5 C3.96601338 1.1602671 3.96601338 1.1602671 6.04296875 0.5390625 C10.22265665 -0.22288853 14.32337519 -0.14437148 18.5625 -0.125 C19.41263672 -0.12886719 20.26277344 -0.13273438 21.13867188 -0.13671875 C21.96044922 -0.13542969 22.78222656 -0.13414062 23.62890625 -0.1328125 C24.7437439 -0.13112061 24.7437439 -0.13112061 25.88110352 -0.12939453 C28.04457269 0.00272192 29.91251681 0.43279734 32 1 C36.62294025 2.05975796 36.62294025 2.05975796 41 1 C41 1.66 41 2.32 41 3 C41.83402344 2.98839844 42.66804688 2.97679687 43.52734375 2.96484375 C50.12357009 2.91195305 56.46068121 3.15621693 63 4 C63.99 4 64.98 4 66 4 C66.99 4 67.98 4 69 4 C69.495 4.99 69.495 4.99 70 6 C70.66 5.67 71.32 5.34 72 5 C70.97431136 7.70408823 70.02736589 8.97795525 67.75 10.8125 C64.28538102 12.30858547 62.65604096 11.78855785 59 11 C57.64615069 10.97068437 56.29137729 10.9720063 54.9375 11 C51 11 51 11 48.6015625 10.5078125 C45.82045784 9.96495423 43.26880674 9.86712432 40.4375 9.875 C39.50808594 9.87242187 38.57867187 9.86984375 37.62109375 9.8671875 C35.24232182 9.9877214 33.29119788 10.40962999 31 11 C27 11 27 11 25 10 C24.01 10 23.02 10 22 10 C20.68 10 19.36 10 18 10 C17.34 10.66 16.68 11.32 16 12 C15.01 11.34 14.02 10.68 13 10 C11.65938457 10.30271961 10.32594105 10.63837971 9 11 C8.37867188 10.83628906 7.75734375 10.67257813 7.1171875 10.50390625 C4.22049799 9.81447277 1.63113465 10.4262005 -1.28515625 10.8046875 C-7.43623499 11.24721115 -14.1332712 10.95557627 -20 9 C-20.33 9.66 -20.66 10.32 -21 11 C-21.77085938 10.97679687 -22.54171875 10.95359375 -23.3359375 10.9296875 C-24.84027344 10.90261719 -24.84027344 10.90261719 -26.375 10.875 C-27.37273437 10.85179687 -28.37046875 10.82859375 -29.3984375 10.8046875 C-32.16262173 10.72783152 -32.16262173 10.72783152 -34 13 C-37.3 10.69 -40.6 8.38 -44 6 C-40 4 -40 4 -37.375 4.5 C-34.03500516 4.99481405 -32.2321436 4.73766641 -29 4 C-25.01266992 3.09652642 -22.02204071 2.94156823 -18 4 C-17.67 3.34 -17.34 2.68 -17 2 C-16.38125 2.20625 -15.7625 2.4125 -15.125 2.625 C-14.073125 2.810625 -14.073125 2.810625 -13 3 C-12.34 2.34 -11.68 1.68 -11 1 C-8.60407609 1 -6.20796347 1.01553013 -3.8125 1.0625 C-1.09589405 1.3263016 -1.09589405 1.3263016 0 0 Z " fill="#F89A32" transform="translate(113,210)"/>
<path d="M0 0 C2.9375 0.75 2.9375 0.75 6 2 C6.875 4.125 6.875 4.125 7 6 C8.32 6 9.64 6 11 6 C11.04254356 7.99954746 11.04080783 10.00041636 11 12 C10.67 12.33 10.34 12.66 10 13 C10.99 13 11.98 13 13 13 C13.33 13.66 13.66 14.32 14 15 C15.32 14.67 16.64 14.34 18 14 C22.3419851 26.50491709 24.17968164 37.80220324 24.125 51.0625 C24.13080078 52.47499023 24.13080078 52.47499023 24.13671875 53.91601562 C24.12912733 59.37045429 23.8008112 64.60405788 23 70 C22.01 70 21.02 70 20 70 C19.773125 69.443125 19.54625 68.88625 19.3125 68.3125 C16.84161038 63.95902782 13.05514968 60.85362385 9 58 C9.495 57.505 9.495 57.505 10 57 C9.50814209 56.63028076 9.01628418 56.26056152 8.50952148 55.87963867 C6.35048112 53.19122661 6.71969477 51.33666835 6.84765625 47.92578125 C6.87819092 46.70793945 6.90872559 45.49009766 6.94018555 44.23535156 C6.98054932 42.94081055 7.02091309 41.64626953 7.0625 40.3125 C7.24750604 29.09659458 6.68137953 19.60870661 3 9 C2.69191406 8.02546875 2.38382813 7.0509375 2.06640625 6.046875 C1.41619717 4.01847154 0.71641961 2.00597492 0 0 Z " fill="#FA2A02" transform="translate(220,77)"/>
<path d="M0 0 C1.6396875 0.2475 1.6396875 0.2475 3.3125 0.5 C6.65242023 0.95287054 9.16522282 1.19264089 12.4375 0.4375 C15.08883682 -0.01516726 16.46905873 0.24071762 19 1 C21.9297314 1.11242975 21.9297314 1.11242975 24.4375 0.4375 C27.08883682 -0.01516726 28.46905873 0.24071762 31 1 C33.02094072 1 35.04198 0.9787351 37.0625 0.9375 C40 1 40 1 42 2 C42.66 1.34 43.32 0.68 44 0 C44.495 1.485 44.495 1.485 45 3 C37.41 10.59 29.82 18.18 22 26 C17.99978784 23.99989392 15.91000659 22.14151829 12.796875 18.9921875 C12.3142218 18.50670441 11.8315686 18.02122131 11.33428955 17.52102661 C9.80141438 15.97700134 8.27565996 14.42615176 6.75 12.875 C5.70879639 11.82375991 4.66713459 10.77297343 3.625 9.72265625 C1.07800536 7.15366996 -1.46265177 4.57851839 -4 2 C-3.34 1.67 -2.68 1.34 -2 1 C-1.34 1.33 -0.68 1.66 0 2 C0 1.34 0 0.68 0 0 Z " fill="#FC6F58" transform="translate(107,63)"/>
<path d="M0 0 C0.556875 0.350625 1.11375 0.70125 1.6875 1.0625 C4.57197167 2.23188041 6.03169666 1.76110342 9 1 C11.66666667 1 14.33333333 1 17 1 C17 1.99 17 2.98 17 4 C17.66 4.33 18.32 4.66 19 5 C19.495 5.495 19.495 5.495 20 6 C19.72209525 10.32737393 16.65330799 12.86185289 13.75 15.75 C13.27175781 16.25660156 12.79351562 16.76320313 12.30078125 17.28515625 C9.97265941 19.62589664 8.60947903 20.94261681 5.26171875 21.2578125 C4.51535156 21.17273438 3.76898438 21.08765625 3 21 C2.360625 21.37125 1.72125 21.7425 1.0625 22.125 C-2.01272318 23.42964014 -3.95427425 22.10164548 -7 21 C-7.99 21.33 -8.98 21.66 -10 22 C-10.66 21.34 -11.32 20.68 -12 20 C-12.66 20.99 -13.32 21.98 -14 23 C-14.66 22.67 -15.32 22.34 -16 22 C-16 21.34 -16 20.68 -16 20 C-16.66 20 -17.32 20 -18 20 C-17.71769203 12.51883867 -14.81655817 7.34925886 -11 1 C-2 1 -2 1 0 2 C0 1.34 0 0.68 0 0 Z " fill="#FD644F" transform="translate(52,66)"/>
<path d="M0 0 C1.33474982 0.32761535 2.66779184 0.66219784 4 1 C5.62470745 1.07901778 7.25231005 1.10780004 8.87890625 1.09765625 C10.26045898 1.09282227 10.26045898 1.09282227 11.66992188 1.08789062 C12.62447266 1.07951172 13.57902344 1.07113281 14.5625 1.0625 C15.52091797 1.05798828 16.47933594 1.05347656 17.46679688 1.04882812 C19.24293253 1.04011548 21.01906014 1.02934905 22.79516602 1.01586914 C25.53014469 0.99618432 28.26495542 1 31 1 C31 1.66 31 2.32 31 3 C31.680625 2.79375 32.36125 2.5875 33.0625 2.375 C36.78833331 1.89936171 39.46992554 2.82330851 43 4 C34.30867958 12.69132042 14.26835199 11.36940273 2.77758789 11.37695312 C-19.16651317 10.98667516 -19.16651317 10.98667516 -25.984375 5.36328125 C-26.31953125 4.91339844 -26.6546875 4.46351563 -27 4 C-21.31954501 2.09881791 -16.09217317 1.62454442 -10.125 1.4375 C-8.41912076 1.377845 -6.71337273 1.31426269 -5.0078125 1.24609375 C-4.26160645 1.22216553 -3.51540039 1.1982373 -2.74658203 1.17358398 C-0.97230398 1.18354031 -0.97230398 1.18354031 0 0 Z " fill="#F8B051" transform="translate(121,223)"/>
<path d="M0 0 C0.66 0 1.32 0 2 0 C1.54548816 1.73017508 1.08621143 3.45909877 0.625 5.1875 C0.24214844 6.63189453 0.24214844 6.63189453 -0.1484375 8.10546875 C-1 11 -1 11 -2.0390625 13.2265625 C-3.78745944 18.27274879 -3.80775263 23.66158319 -4.2109375 28.95898438 C-4.28570313 29.83232422 -4.36046875 30.70566406 -4.4375 31.60546875 C-4.52837891 32.79885864 -4.52837891 32.79885864 -4.62109375 34.01635742 C-5 36 -5 36 -7 38 C-7.16687448 40.58354218 -7.16687448 40.58354218 -7 43 C-7.99 43 -8.98 43 -10 43 C-10.99 45.475 -10.99 45.475 -12 48 C-12.99 48 -13.98 48 -15 48 C-16.37310707 49.29233607 -17.71034824 50.62437146 -19 52 C-19.33 52 -19.66 52 -20 52 C-21.51624226 38.33332992 -21.4931792 25.41270955 -13 14 C-12.34 14 -11.68 14 -11 14 C-10.79375 13.443125 -10.5875 12.88625 -10.375 12.3125 C-8.49627846 9.15283196 -5.80993547 7.34161289 -3 5 C-1.68834743 2.88339573 -1.68834743 2.88339573 -1 1 C-0.67 0.67 -0.34 0.34 0 0 Z " fill="#FB2601" transform="translate(33,79)"/>
<path d="M0 0 C3 1 3 1 4.1328125 3.0390625 C6.06169959 8.06631941 7.53275452 12.62667696 8 18 C7.401875 17.814375 6.80375 17.62875 6.1875 17.4375 C3.83591238 16.77906313 3.83591238 16.77906313 1 18 C-0.51694936 18.37044931 -2.03821619 18.72349125 -3.5625 19.0625 C-4.34753906 19.23910156 -5.13257813 19.41570312 -5.94140625 19.59765625 C-8 20 -8 20 -10 20 C-10.495 20.66 -10.99 21.32 -11.5 22 C-11.995 22.66 -12.49 23.32 -13 24 C-13.66 24 -14.32 24 -15 24 C-15.66 23.01 -16.32 22.02 -17 21 C-20.83219177 22.56126332 -23.17361222 25.02866925 -26 28 C-27 29 -28 30 -29 31 C-29.66 30.67 -30.32 30.34 -31 30 C-29.68322266 28.78763672 -29.68322266 28.78763672 -28.33984375 27.55078125 C-27.20495508 26.47216805 -26.07088245 25.39269579 -24.9375 24.3125 C-24.35677734 23.78205078 -23.77605469 23.25160156 -23.17773438 22.70507812 C-19.81280047 19.62249452 -19.81280047 19.62249452 -18.9375 15.34375 C-20.05544859 12.87768693 -21.23063893 11.17526414 -23.0625 9.1875 C-23.61035156 8.58292969 -24.15820312 7.97835937 -24.72265625 7.35546875 C-25.14417969 6.90816406 -25.56570312 6.46085937 -26 6 C-25.29875 5.87625 -24.5975 5.7525 -23.875 5.625 C-20.82434233 4.96181355 -17.95264068 4.00658205 -15 3 C-12.69146473 3 -10.42972285 3.03719199 -8.125 3.1875 C-4.56623678 2.97397421 -2.97467494 1.84912226 0 0 Z " fill="#FC583C" transform="translate(217,75)"/>
<path d="M0 0 C7.875 6.75 7.875 6.75 10.36499023 9.25146484 C10.92504257 9.81159271 11.48509491 10.37172058 12.06211853 10.94882202 C12.92662376 11.82106918 12.92662376 11.82106918 13.80859375 12.7109375 C14.72597069 13.63043686 14.72597069 13.63043686 15.66188049 14.56851196 C17.58947559 16.50164564 19.51353928 18.43824987 21.4375 20.375 C22.75432404 21.69684699 24.07137926 23.01846372 25.38867188 24.33984375 C28.59512373 27.55724299 31.79841629 30.77775681 35 34 C37.99943905 32.65427113 40.08076179 31.16462899 42.39160156 28.83544922 C43.35214447 27.87467972 43.35214447 27.87467972 44.33209229 26.89450073 C45.01140808 26.20486237 45.69072388 25.515224 46.390625 24.8046875 C47.09523865 24.09724396 47.79985229 23.38980042 48.52581787 22.66091919 C50.7719539 20.40360138 53.01103009 18.13942367 55.25 15.875 C56.77297717 14.34199047 58.29640939 12.80943285 59.8203125 11.27734375 C63.55216815 7.52345427 67.27825351 3.76391086 71 0 C75.90473901 4.11329871 80.5219528 8.38542461 85.02734375 12.9296875 C85.97801476 13.88248093 85.97801476 13.88248093 86.94789124 14.85452271 C88.94681406 16.85898716 90.94220784 18.86692214 92.9375 20.875 C94.30250133 22.24502389 95.6677336 23.61481774 97.03320312 24.984375 C100.35814211 28.32026543 103.67992353 31.65927036 107 35 C106.01 35.99 106.01 35.99 105 37 C94.11 26.11 83.22 15.22 72 4 C66.67057281 8.50832201 66.67057281 8.50832201 61.63500977 13.25146484 C61.07495743 13.81159271 60.51490509 14.37172058 59.93788147 14.94882202 C59.36154465 15.53032013 58.78520782 16.11181824 58.19140625 16.7109375 C57.57982162 17.32393707 56.968237 17.93693665 56.33811951 18.56851196 C54.41052441 20.50164564 52.48646072 22.43824987 50.5625 24.375 C49.24567596 25.69684699 47.92862074 27.01846372 46.61132812 28.33984375 C43.40487627 31.55724299 40.20158371 34.77775681 37 38 C34.00056095 36.65427113 31.91923821 35.16462899 29.60839844 32.83544922 C28.9680365 32.19493622 28.32767456 31.55442322 27.66790771 30.89450073 C26.98859192 30.20486237 26.30927612 29.515224 25.609375 28.8046875 C24.90476135 28.09724396 24.20014771 27.38980042 23.47418213 26.66091919 C21.2280461 24.40360138 18.98896991 22.13942367 16.75 19.875 C15.22702283 18.34199047 13.70359061 16.80943285 12.1796875 15.27734375 C8.44783185 11.52345427 4.72174649 7.76391086 1 4 C-3.75085867 7.96372525 -8.23613112 12.09794782 -12.58984375 16.4921875 C-13.17923233 17.08299103 -13.76862091 17.67379456 -14.37586975 18.28250122 C-16.23213727 20.14430404 -18.08487085 22.00957745 -19.9375 23.875 C-21.20614672 25.14867011 -22.4750249 26.42210971 -23.74414062 27.6953125 C-26.83210554 30.79422043 -29.91690929 33.89624301 -33 37 C-33.66 36.34 -34.32 35.68 -35 35 C-23.45 23.45 -11.9 11.9 0 0 Z " fill="#C43135" transform="translate(92,54)"/>
<path d="M0 0 C1.7325 0.4640625 1.7325 0.4640625 3.5 0.9375 C7.1012238 1.77540851 10.42851347 2.07268316 14.125 2.0625 C15.53652344 2.06636719 15.53652344 2.06636719 16.9765625 2.0703125 C19.62677507 2.04297998 19.62677507 2.04297998 22.5 0.9375 C24.171549 1.24541692 25.83805547 1.58136903 27.5 1.9375 C29.1662553 1.9745279 30.83401319 1.98509962 32.5 1.9375 C32.995 3.4225 32.995 3.4225 33.5 4.9375 C29.21 9.2275 24.92 13.5175 20.5 17.9375 C19.18 17.2775 17.86 16.6175 16.5 15.9375 C16.5 14.2875 16.5 12.6375 16.5 10.9375 C15.18 11.9275 13.86 12.9175 12.5 13.9375 C11.51 12.9475 10.52 11.9575 9.5 10.9375 C8.84 11.5975 8.18 12.2575 7.5 12.9375 C6.51 12.2775 5.52 11.6175 4.5 10.9375 C4.17 11.5975 3.84 12.2575 3.5 12.9375 C2.51 12.2775 1.52 11.6175 0.5 10.9375 C-0.49 11.2675 -1.48 11.5975 -2.5 11.9375 C-3.16 11.6075 -3.82 11.2775 -4.5 10.9375 C-4.83 11.5975 -5.16 12.2575 -5.5 12.9375 C-6.49 12.9375 -7.48 12.9375 -8.5 12.9375 C-8.5 12.2775 -8.5 11.6175 -8.5 10.9375 C-9.16 10.9375 -9.82 10.9375 -10.5 10.9375 C-8.73490697 5.48175791 -6.32861445 -0.11301097 0 0 Z " fill="#FC6D5D" transform="translate(52.5,56.0625)"/>
<path d="M0 0 C5.36444687 1.71595661 9.99675426 3.67322551 14.765625 6.6796875 C11.64127989 7.72113587 9.52312418 7.78065713 6.25 7.7421875 C5.16332031 7.73445313 4.07664062 7.72671875 2.95703125 7.71875 C0.6783834 7.69288567 -1.60026248 7.66684645 -3.87890625 7.640625 C-9.4623252 7.60107304 -14.73321177 7.72813494 -20.234375 8.6796875 C-23.234375 8.6796875 -23.234375 8.6796875 -25.234375 7.6796875 C-25.853125 7.8446875 -26.471875 8.0096875 -27.109375 8.1796875 C-29.55101056 8.75418998 -30.84461145 8.29640067 -33.234375 7.6796875 C-34.224375 8.0096875 -35.214375 8.3396875 -36.234375 8.6796875 C-36.729375 8.1846875 -36.729375 8.1846875 -37.234375 7.6796875 C-40.64013378 7.83055168 -44.02290327 8.08585314 -47.41992188 8.36328125 C-53.03265588 8.78054706 -53.03265588 8.78054706 -55.234375 7.6796875 C-55.8325 7.8446875 -56.430625 8.0096875 -57.046875 8.1796875 C-59.71380281 8.789271 -61.58413423 8.23763292 -64.234375 7.6796875 C-65.224375 8.1746875 -65.224375 8.1746875 -66.234375 8.6796875 C-66.234375 8.0196875 -66.234375 7.3596875 -66.234375 6.6796875 C-67.78125 6.9271875 -67.78125 6.9271875 -69.359375 7.1796875 C-72.71681826 7.61290598 -75.85773657 7.76204453 -79.234375 7.6796875 C-78.046875 5.2421875 -78.046875 5.2421875 -76.234375 2.6796875 C-73.546875 1.8671875 -73.546875 1.8671875 -71.234375 1.6796875 C-70.904375 2.6696875 -70.574375 3.6596875 -70.234375 4.6796875 C-69.595 4.4940625 -68.955625 4.3084375 -68.296875 4.1171875 C-67.61625 3.9728125 -66.935625 3.8284375 -66.234375 3.6796875 C-65.904375 4.0096875 -65.574375 4.3396875 -65.234375 4.6796875 C-64.265 4.3290625 -63.295625 3.9784375 -62.296875 3.6171875 C-58.42484079 2.48620793 -55.25998554 2.87254846 -51.31640625 3.45703125 C-48.79670956 3.72649225 -46.68251785 3.27317668 -44.234375 2.6796875 C-43.574375 3.0096875 -42.914375 3.3396875 -42.234375 3.6796875 C-41.574375 3.5146875 -40.914375 3.3496875 -40.234375 3.1796875 C-38.234375 2.6796875 -38.234375 2.6796875 -36.234375 3.6796875 C-35.904375 3.0196875 -35.574375 2.3596875 -35.234375 1.6796875 C-35.234375 2.3396875 -35.234375 2.9996875 -35.234375 3.6796875 C-34.574375 3.6796875 -33.914375 3.6796875 -33.234375 3.6796875 C-32.904375 3.0196875 -32.574375 2.3596875 -32.234375 1.6796875 C-29.42095602 1.6796875 -26.61002158 1.71310781 -23.796875 1.75 C-21.60937836 1.76862832 -19.42187815 1.78684074 -17.234375 1.8046875 C-15.57535156 1.82982422 -15.57535156 1.82982422 -13.8828125 1.85546875 C-12.82320313 1.86191406 -11.76359375 1.86835938 -10.671875 1.875 C-9.70121094 1.88547363 -8.73054688 1.89594727 -7.73046875 1.90673828 C-4.48982649 1.61196155 -3.23520337 -0.4637879 0 0 Z " fill="#FEA9A4" transform="translate(162.234375,26.3203125)"/>
<path d="M0 0 C2.475 0.495 2.475 0.495 5 1 C5 1.99 5 2.98 5 4 C5.680625 3.690625 6.36125 3.38125 7.0625 3.0625 C10 3 10 3 11.890625 4.4921875 C13.65738841 6.2804968 15.35521072 8.09924927 17 10 C15.67005617 12.95265112 14.22220684 15.02350216 11.92724609 17.29980469 C11.30675385 17.92014587 10.6862616 18.54048706 10.04696655 19.17962646 C9.37920197 19.83706848 8.71143738 20.4945105 8.0234375 21.171875 C7.33819 21.8542926 6.6529425 22.53671021 5.94692993 23.23980713 C3.76094155 25.41461598 1.56809571 27.58236072 -0.625 29.75 C-2.10983255 31.2247999 -3.59421306 32.70005506 -5.078125 34.17578125 C-8.7135291 37.78915448 -12.35509824 41.39620853 -16 45 C-16.66 44.34 -17.32 43.68 -18 43 C-17.40461426 42.42032471 -16.80922852 41.84064941 -16.19580078 41.2434082 C-13.97941027 39.078305 -11.76997344 36.90640174 -9.56494141 34.72973633 C-8.14356793 33.33077515 -6.71440589 31.93974164 -5.28515625 30.54882812 C-4.38925781 29.66259766 -3.49335937 28.77636719 -2.5703125 27.86328125 C-1.74289551 27.05157471 -0.91547852 26.23986816 -0.06298828 25.40356445 C2.82236504 22.04187174 4 19.42873984 4 15 C3.01 15.495 3.01 15.495 2 16 C1.01 16 0.02 16 -1 16 C-1.33 16.66 -1.66 17.32 -2 18 C-2 17.34 -2 16.68 -2 16 C-2.66 16 -3.32 16 -4 16 C-4.33 16.66 -4.66 17.32 -5 18 C-6.33333333 14 -7.66666667 10 -9 6 C-8.01 5.67 -7.02 5.34 -6 5 C-5.34 4.34 -4.68 3.68 -4 3 C-3.34 3 -2.68 3 -2 3 C-1.34 2.01 -0.68 1.02 0 0 Z " fill="#FA5112" transform="translate(75,117)"/>
<path d="M0 0 C5.79001199 1.24071685 8.80580938 4.19738715 12 9 C12 9.66 12 10.32 12 11 C10.9275 11.144375 9.855 11.28875 8.75 11.4375 C5.23980078 11.89844989 5.23980078 11.89844989 2.8125 12.5625 C-1.79020307 13.67349729 -7.25919222 13 -12 13 C-12.86496094 13.03480469 -13.72992188 13.06960937 -14.62109375 13.10546875 C-24.05633803 13.38028169 -24.05633803 13.38028169 -28 10 C-30.06511548 8.04906158 -32.03535455 6.05602431 -34 4 C-33.67 3.34 -33.34 2.68 -33 2 C-30 2 -30 2 -26.625 2.5625 C-23.17487624 3.17026043 -23.17487624 3.17026043 -20.5 2.5 C-17.17965131 1.83593026 -14.32882849 2.50684022 -11 3 C-10.01 2.67 -9.02 2.34 -8 2 C-5.66700175 1.96045766 -3.33291811 1.95598268 -1 2 C-0.67 1.34 -0.34 0.68 0 0 Z " fill="#FD7D6F" transform="translate(198,51)"/>
<path d="M0 0 C0.66 0.33 1.32 0.66 2 1 C1.4740625 2.423125 1.4740625 2.423125 0.9375 3.875 C-0.35026777 6.87060172 -0.35026777 6.87060172 1 9 C-4.57538935 12.71692624 -10.43551846 12.75668425 -17 12 C-17.66 11.34 -18.32 10.68 -19 10 C-23.14246086 13.07725664 -25.54888314 15.85865976 -29 20 C-18.44 30.56 -7.88 41.12 3 52 C2.34 52.66 1.68 53.32 1 54 C-9.89 43.11 -20.78 32.22 -32 21 C-29.21447574 15.42895147 -25.06000872 11.69151059 -20.6875 7.3125 C-19.40456055 5.99282227 -19.40456055 5.99282227 -18.09570312 4.64648438 C-17.26361328 3.81052734 -16.43152344 2.97457031 -15.57421875 2.11328125 C-14.81713623 1.34798096 -14.06005371 0.58268066 -13.2800293 -0.20581055 C-8.3187299 -4.10993189 -5.18431139 -2.99537992 0 0 Z " fill="#FB521E" transform="translate(196,108)"/>
<path d="M0 0 C0.99 0 1.98 0 3 0 C3.66 0.99 4.32 1.98 5 3 C5.66 2.67 6.32 2.34 7 2 C7.99 2.33 8.98 2.66 10 3 C10 2.34 10 1.68 10 1 C11.74990234 1.2475 11.74990234 1.2475 13.53515625 1.5 C20.4850783 2.27327242 27.45571596 2.06980953 34.4375 2 C37.14457282 1.97341974 39.85140715 1.95352676 42.55859375 1.9375 C43.74767334 1.92589844 44.93675293 1.91429687 46.16186523 1.90234375 C49 2 49 2 51 3 C51.33 2.34 51.66 1.68 52 1 C52.5775 1.165 53.155 1.33 53.75 1.5 C56.26664369 2.14462031 56.26664369 2.14462031 60 2 C55.74257426 7.71711457 55.74257426 7.71711457 52.375 9 C50 9 50 9 47 7 C46.67 7.66 46.34 8.32 46 9 C41.53426489 9.02479481 37.0685667 9.04290486 32.6027832 9.05493164 C31.08487245 9.05994766 29.5669665 9.06676203 28.04907227 9.07543945 C25.86212984 9.08762497 23.67525154 9.09325572 21.48828125 9.09765625 C20.17384033 9.10289307 18.85939941 9.10812988 17.50512695 9.11352539 C12.3990295 8.94814716 7.71035759 8.00440748 3 6 C0.625 3.375 0.625 3.375 -1 1 C-0.67 0.67 -0.34 0.34 0 0 Z " fill="#FC7666" transform="translate(98,57)"/>
<path d="M0 0 C0.92232422 0.10828125 0.92232422 0.10828125 1.86328125 0.21875 C3.07564453 0.35796875 3.07564453 0.35796875 4.3125 0.5 C5.51326172 0.63921875 5.51326172 0.63921875 6.73828125 0.78125 C10.02604064 1.09923709 13.29894206 0.98156337 16.59765625 0.9296875 C18.41926707 0.91108608 20.24088187 0.89287152 22.0625 0.875 C22.98611328 0.85824219 23.90972656 0.84148437 24.86132812 0.82421875 C25.74369141 0.81777344 26.62605469 0.81132813 27.53515625 0.8046875 C28.343479 0.79421387 29.15180176 0.78374023 29.98461914 0.77294922 C32 1 32 1 34 3 C29.05 7.95 24.1 12.9 19 18 C15.56818694 16.28409347 13.92633696 15.17437982 11.328125 12.55859375 C10.66425781 11.89279297 10.00039062 11.22699219 9.31640625 10.54101562 C8.63449219 9.84685547 7.95257813 9.15269531 7.25 8.4375 C6.55261719 7.73947266 5.85523437 7.04144531 5.13671875 6.32226562 C0 1.14031158 0 1.14031158 0 0 Z " fill="#FB6647" transform="translate(110,71)"/>
<path d="M0 0 C5.75 1.875 5.75 1.875 8 3 C8 5.31 8 7.62 8 10 C6.1746875 9.9690625 6.1746875 9.9690625 4.3125 9.9375 C1.06993983 9.9317711 -1.83069955 10.27558847 -5 11 C-5.99 11 -6.98 11 -8 11 C-8.33 11.66 -8.66 12.32 -9 13 C-12.60963407 14.39463134 -16.19331304 15.32823171 -20 16 C-20 16.66 -20 17.32 -20 18 C-26.75 19 -26.75 19 -29 19 C-29.33 17.68 -29.66 16.36 -30 15 C-29.113125 14.278125 -28.22625 13.55625 -27.3125 12.8125 C-25.1660759 11.03142468 -23.23154926 9.23154926 -21.25 7.25 C-19 5 -19 5 -17 4 C-16.34 4.66 -15.68 5.32 -15 6 C-14.34 6.33 -13.68 6.66 -13 7 C-12.401875 6.34 -11.80375 5.68 -11.1875 5 C-7.92914784 2.02093517 -4.28665152 3 0 3 C0 2.01 0 1.02 0 0 Z " fill="#FB4F2B" transform="translate(218,90)"/>
<path d="M0 0 C0 3.90838866 -1.50567876 5.11594107 -4 8 C-3.67 8.66 -3.34 9.32 -3 10 C-0.03695075 10.75045181 -0.03695075 10.75045181 3 11 C5.33414529 11.32759934 7.66752239 11.66073053 10 12 C10 12.99 10 13.98 10 15 C10.66 15 11.32 15 12 15 C12.33 14.34 12.66 13.68 13 13 C13 13.99 13 14.98 13 16 C14.65 15.34 16.3 14.68 18 14 C18 16.87628285 17.71234806 19.22184257 17 22 C16.34 22.66 15.68 23.32 15 24 C12.75 23.6875 12.75 23.6875 10 23 C8.989375 22.855625 7.97875 22.71125 6.9375 22.5625 C4.22310301 22.04272185 2.42096103 21.25222122 0 20 C-0.99 20 -1.98 20 -3 20 C-5.01222047 19.3711811 -7.01276732 18.70381157 -9 18 C-9.99 17.67 -10.98 17.34 -12 17 C-12.66 17.33 -13.32 17.66 -14 18 C-13.75898603 12.43572085 -10.23981113 9.78146531 -6.4375 6.1875 C-5.82197266 5.59001953 -5.20644531 4.99253906 -4.57226562 4.37695312 C-3.05706751 2.9087379 -1.52969562 1.45310447 0 0 Z " fill="#F8710F" transform="translate(182,180)"/>
<path d="M0 0 C1.171875 5.859375 1.171875 5.859375 1 8 C-2.18919406 12.74775499 -7.41779977 13.76199784 -12.625 15.3125 C-13.49640625 15.58900391 -14.3678125 15.86550781 -15.265625 16.15039062 C-21.72785085 18.13607457 -21.72785085 18.13607457 -24 17 C-24.9375 14.8125 -24.9375 14.8125 -25 12 C-22.82525852 7.90144874 -21.25575209 6.48737787 -16.91015625 4.80078125 C-14.63812318 4.11329318 -12.35396346 3.46439731 -10.05859375 2.859375 C-7.07597005 2.12545937 -7.07597005 2.12545937 -4.78515625 0.890625 C-3 0 -3 0 0 0 Z " fill="#F58407" transform="translate(175,224)"/>
<path d="M0 0 C2.31 1.98 4.62 3.96 7 6 C6.67 6.99 6.34 7.98 6 9 C4.35 9 2.7 9 1 9 C0.67 10.32 0.34 11.64 0 13 C-0.928125 13.103125 -1.85625 13.20625 -2.8125 13.3125 C-5.97000997 13.67374559 -5.97000997 13.67374559 -7.41015625 15.52734375 C-9.53395105 17.49459348 -10.77841047 17.34272279 -13.625 17.25 C-14.81996094 17.22679687 -14.81996094 17.22679687 -16.0390625 17.203125 C-18 17 -18 17 -19 16 C-19.66 16.66 -20.32 17.32 -21 18 C-21.99 14.7 -22.98 11.4 -24 8 C-23.34 8 -22.68 8 -22 8 C-22 8.66 -22 9.32 -22 10 C-19.13275314 9.42655063 -18.1385485 9.1385485 -16 7 C-14.34822227 5.34822227 -12.15144042 4.82747709 -10 4 C-9.01 5.485 -9.01 5.485 -8 7 C-7.34 5.68 -6.68 4.36 -6 3 C-4.35 3.66 -2.7 4.32 -1 5 C-1.33 4.01 -1.66 3.02 -2 2 C-1.34 1.34 -0.68 0.68 0 0 Z " fill="#F8700F" transform="translate(79,186)"/>
<path d="M0 0 C0.515625 0.309375 1.03125 0.61875 1.5625 0.9375 C4.86190884 2.37570385 8.38458085 3 12 3 C17.86443202 3.2423319 21.65822632 3.65822632 26 8 C24.3125 10 24.3125 10 22 12 C19.5 12.125 19.5 12.125 17 12 C16.360625 12.37125 15.72125 12.7425 15.0625 13.125 C11.98727682 14.42964014 10.04572575 13.10164548 7 12 C6.01 12.33 5.02 12.66 4 13 C3.34 12.34 2.68 11.68 2 11 C1.01 12.485 1.01 12.485 0 14 C-0.66 13.67 -1.32 13.34 -2 13 C-2 12.34 -2 11.68 -2 11 C-2.66 11 -3.32 11 -4 11 C-3.38461538 3.49230769 -3.38461538 3.49230769 -1.4375 1 C-0.963125 0.67 -0.48875 0.34 0 0 Z " fill="#FC5A41" transform="translate(38,75)"/>
<path d="M0 0 C0.66 0.33 1.32 0.66 2 1 C1.01 2.32 0.02 3.64 -1 5 C1.24556825 7.6774083 2.58281977 8.88701369 6 9.8125 C8.73053922 9.9831587 10.43211316 9.7969304 13 9 C15.8486235 9 18.60102534 9.18733602 21.4375 9.4375 C22.85869141 9.55931641 22.85869141 9.55931641 24.30859375 9.68359375 C26.62652096 9.95609317 28.75774697 10.36920068 31 11 C29.33842317 13.34912586 28.44707259 14.59944143 26 16 C21.60820281 16.23414481 16.97686556 15.98843278 13 14 C11.37749566 14.23661522 9.75543077 14.47697973 8.13671875 14.73828125 C2.67532579 15.40722701 -2.67789296 15.38837575 -8 14 C-8.99 14 -9.98 14 -11 14 C-10.52590352 9.68269587 -7.96603297 7.66352539 -4.9375 4.75 C-4.01839844 3.85796875 -3.09929688 2.9659375 -2.15234375 2.046875 C-1.44207031 1.37140625 -0.73179688 0.6959375 0 0 Z " fill="#FD7D71" transform="translate(61,44)"/>
<path d="M0 0 C0.99 0.33 1.98 0.66 3 1 C3 3 3 5 3 7 C3.66 7.33 4.32 7.66 5 8 C4.34 8.66 3.68 9.32 3 10 C3 10.66 3 11.32 3 12 C0.37785672 13.50519387 -2.24744208 15.00431319 -4.875 16.5 C-5.62136719 16.92925781 -6.36773437 17.35851562 -7.13671875 17.80078125 C-7.85214844 18.20683594 -8.56757813 18.61289063 -9.3046875 19.03125 C-9.96452637 19.40830078 -10.62436523 19.78535156 -11.30419922 20.17382812 C-13 21 -13 21 -15 21 C-15.6905807 17.14251385 -15.94272654 13.8275728 -15 10 C-11.71558461 6.89342097 -7.99559253 5.05360063 -4 3 C-3.28328125 2.4225 -2.5665625 1.845 -1.828125 1.25 C-1.22484375 0.8375 -0.6215625 0.425 0 0 Z " fill="#F47405" transform="translate(190,213)"/>
<path d="M0 0 C1.175625 0.5259375 1.175625 0.5259375 2.375 1.0625 C3.674375 1.5265625 3.674375 1.5265625 5 2 C5.66 1.67 6.32 1.34 7 1 C7.99 1.33 8.98 1.66 10 2 C10.33 1.34 10.66 0.68 11 0 C11 0.66 11 1.32 11 2 C11.66 2 12.32 2 13 2 C13.33 1.34 13.66 0.68 14 0 C14 0.66 14 1.32 14 2 C14.66 2 15.32 2 16 2 C16.33 1.34 16.66 0.68 17 0 C17.66 0.66 18.32 1.32 19 2 C20.0725 1.835 21.145 1.67 22.25 1.5 C26 1 26 1 29.125 2.0625 C31.99402703 3.30202428 31.99402703 3.30202428 34.875 2.125 C35.926875 1.568125 35.926875 1.568125 37 1 C37.495 3.97 37.495 3.97 38 7 C37.113125 6.979375 36.22625 6.95875 35.3125 6.9375 C32.33905166 6.9936028 29.8884115 7.36595845 27 8 C23.27518561 8.56819203 19.75710701 9 16 9 C15.67 9.66 15.34 10.32 15 11 C15 10.34 15 9.68 15 9 C14.11054688 9.25523438 13.22109375 9.51046875 12.3046875 9.7734375 C9 10 9 10 6.4453125 8.1640625 C5.67960938 7.32617188 4.91390625 6.48828125 4.125 5.625 C3.34382812 4.79226562 2.56265625 3.95953125 1.7578125 3.1015625 C0 1 0 1 0 0 Z " fill="#FC624B" transform="translate(181,71)"/>
<path d="M0 0 C1.155 0 2.31 0 3.5 0 C6.53460795 0 9.06710459 0.28899505 12 1 C5.78569075 7.21430925 -10.24495959 5.31163536 -18.56542969 5.31298828 C-26.05557547 5.20236382 -32.83689132 4.3097932 -40 2 C-38 0 -38 0 -35.2421875 -0.16015625 C-33.57542969 -0.11181641 -33.57542969 -0.11181641 -31.875 -0.0625 C-26.38625303 0.0320926 -26.38625303 0.0320926 -20.9375 -0.5 C-13.88181389 -1.39596014 -6.96601836 -1.45558593 0 0 Z " fill="#F9B75A" transform="translate(142,229)"/>
<path d="M0 0 C1.875 0.1875 1.875 0.1875 4 1 C5.25 3.5625 5.25 3.5625 6 6 C4.9275 6.144375 3.855 6.28875 2.75 6.4375 C-0.76019922 6.89844989 -0.76019922 6.89844989 -3.1875 7.5625 C-7.79020307 8.67349729 -13.25919222 8 -18 8 C-18.86496094 8.03480469 -19.72992188 8.06960937 -20.62109375 8.10546875 C-30.35983264 8.38912134 -30.35983264 8.38912134 -34 5 C-34 4.01 -34 3.02 -34 2 C-33.01 2.33 -32.02 2.66 -31 3 C-30.01 2.34 -29.02 1.68 -28 1 C-25.64379883 1.36889648 -25.64379883 1.36889648 -23 2 C-21.23447202 2.07747197 -19.46641544 2.10799073 -17.69921875 2.09765625 C-16.72275391 2.09443359 -15.74628906 2.09121094 -14.74023438 2.08789062 C-13.22913086 2.07532227 -13.22913086 2.07532227 -11.6875 2.0625 C-10.66076172 2.05798828 -9.63402344 2.05347656 -8.57617188 2.04882812 C-6.05072118 2.03708184 -3.52539095 2.02065565 -1 2 C-0.67 1.34 -0.34 0.68 0 0 Z " fill="#FC7566" transform="translate(204,56)"/>
<path d="M0 0 C2.5479086 -0.07279739 4.82492646 -0.03736864 7.32421875 0.49609375 C10.15024414 1.02829415 12.75163058 1.13291562 15.625 1.125 C17.03652344 1.12886719 17.03652344 1.12886719 18.4765625 1.1328125 C21.12677507 1.10547998 21.12677507 1.10547998 24 0 C25.671549 0.30791692 27.33805547 0.64386903 29 1 C30.6662553 1.0370279 32.33401319 1.04759962 34 1 C34.495 2.485 34.495 2.485 35 4 C29.77010031 7.7589904 24.65467645 8.3260129 18.4375 7.5625 C17.303125 7.376875 16.16875 7.19125 15 7 C12.66699067 6.96111651 10.33290199 6.9551365 8 7 C4.58862243 7 1.37286428 6.49059844 -2 6 C-2.66 6 -3.32 6 -4 6 C-4 5.01 -4 4.02 -4 3 C-2.68 3 -1.36 3 0 3 C0 2.01 0 1.02 0 0 Z " fill="#FC7666" transform="translate(51,57)"/>
<path d="M0 0 C0.95648438 0.01353516 1.91296875 0.02707031 2.8984375 0.04101562 C5.2245811 0.07590778 7.5494653 0.12491661 9.875 0.1875 C9.215 0.8475 8.555 1.5075 7.875 2.1875 C6.905625 2.166875 5.93625 2.14625 4.9375 2.125 C3.926875 2.145625 2.91625 2.16625 1.875 2.1875 C1.42253906 2.66832031 0.97007813 3.14914063 0.50390625 3.64453125 C-1.6903715 5.72304375 -3.27348613 5.71187504 -6.25 5.9375 C-7.13945313 6.01484375 -8.02890625 6.0921875 -8.9453125 6.171875 C-9.66460937 6.17703125 -10.38390625 6.1821875 -11.125 6.1875 C-11.455 5.8575 -11.785 5.5275 -12.125 5.1875 C-14.46444736 5.47480055 -16.7989143 5.80686779 -19.125 6.1875 C-19.785 5.1975 -20.445 4.2075 -21.125 3.1875 C-13.92812325 0.58476977 -7.62304072 -0.2087771 0 0 Z " fill="#FEB2AE" transform="translate(120.125,21.8125)"/>
<path d="M0 0 C2.95265112 1.32994383 5.02350216 2.77779316 7.29980469 5.07275391 C8.23031647 6.00349228 8.23031647 6.00349228 9.17962646 6.95303345 C10.16578949 7.95468033 10.16578949 7.95468033 11.171875 8.9765625 C11.8542926 9.66181 12.53671021 10.3470575 13.23980713 11.05307007 C15.41461598 13.23905845 17.58236072 15.43190429 19.75 17.625 C21.2247999 19.10983255 22.70005506 20.59421306 24.17578125 22.078125 C27.78915448 25.7135291 31.39620853 29.35509824 35 33 C34.34 33.66 33.68 34.32 33 35 C28.29333458 30.34389581 23.59441048 25.68008529 18.90087891 21.01074219 C17.30208228 19.42202543 15.70149831 17.83510531 14.09912109 16.25 C11.80097749 13.97601746 9.50926378 11.69572688 7.21875 9.4140625 C6.49691528 8.70255035 5.77508057 7.99103821 5.03137207 7.25796509 C4.37068726 6.59743134 3.71000244 5.93689758 3.02929688 5.25634766 C2.44305542 4.67454742 1.85681396 4.09274719 1.25280762 3.49331665 C0 2 0 2 0 0 Z " fill="#C43339" transform="translate(164,127)"/>
<path d="M0 0 C-1.32994383 2.95265112 -2.77779316 5.02350216 -5.07275391 7.29980469 C-5.69324615 7.92014587 -6.3137384 8.54048706 -6.95303345 9.17962646 C-7.62079803 9.83706848 -8.28856262 10.4945105 -8.9765625 11.171875 C-9.66181 11.8542926 -10.3470575 12.53671021 -11.05307007 13.23980713 C-13.23905845 15.41461598 -15.43190429 17.58236072 -17.625 19.75 C-19.10983255 21.2247999 -20.59421306 22.70005506 -22.078125 24.17578125 C-25.7135291 27.78915448 -29.35509824 31.39620853 -33 35 C-33.66 34.34 -34.32 33.68 -35 33 C-30.34389581 28.29333458 -25.68008529 23.59441048 -21.01074219 18.90087891 C-19.42202543 17.30208228 -17.83510531 15.70149831 -16.25 14.09912109 C-13.97601746 11.80097749 -11.69572688 9.50926378 -9.4140625 7.21875 C-8.70255035 6.49691528 -7.99103821 5.77508057 -7.25796509 5.03137207 C-6.59743134 4.37068726 -5.93689758 3.71000244 -5.25634766 3.02929688 C-4.67454742 2.44305542 -4.09274719 1.85681396 -3.49331665 1.25280762 C-2 0 -2 0 0 0 Z " fill="#C43439" transform="translate(92,127)"/>
<path d="M0 0 C0.66 0.33 1.32 0.66 2 1 C1.525625 1.763125 1.05125 2.52625 0.5625 3.3125 C-1.10106097 5.96410548 -1.10106097 5.96410548 -2 9 C-2.99 9 -3.98 9 -5 9 C-5.226875 9.5775 -5.45375 10.155 -5.6875 10.75 C-7.34848222 13.59739809 -9.31524561 15.12067193 -12 17 C-12.66 17 -13.32 17 -14 17 C-12.34355005 12.90351 -9.42035825 9.97868372 -6.4375 6.8125 C-5.93025391 6.26658203 -5.42300781 5.72066406 -4.90039062 5.15820312 C-1.44294085 1.44294085 -1.44294085 1.44294085 0 0 Z " fill="#F30E00" transform="translate(50,41)"/>
<path d="M0 0 C1.5 1.3125 1.5 1.3125 3 3 C3 3.99 3 4.98 3 6 C2.01 6.33 1.02 6.66 0 7 C-0.33 7.99 -0.66 8.98 -1 10 C-0.34 10 0.32 10 1 10 C1 10.66 1 11.32 1 12 C0.34 12 -0.32 12 -1 12 C-1.268125 12.78375 -1.53625 13.5675 -1.8125 14.375 C-3 17 -3 17 -6 19 C-4.3186083 12.51292846 -2.46937673 6.2322365 0 0 Z " fill="#E81B00" transform="translate(21,81)"/>
<path d="M0 0 C4.95 0 9.9 0 15 0 C14.34 0.66 13.68 1.32 13 2 C12.030625 1.979375 11.06125 1.95875 10.0625 1.9375 C6.99278613 1.64652021 6.99278613 1.64652021 5.4375 3.5625 C4.963125 4.036875 4.48875 4.51125 4 5 C1.3125 4.6875 1.3125 4.6875 -1 4 C-0.67 2.68 -0.34 1.36 0 0 Z " fill="#FEBFB8" transform="translate(115,22)"/>
<path d="M0 0 C1.13199353 0.9080162 2.25532363 1.82683826 3.375 2.75 C4.00148437 3.26046875 4.62796875 3.7709375 5.2734375 4.296875 C7.08312318 6.08199481 8.00117455 7.67949644 9 10 C7.68 10 6.36 10 5 10 C4.34 9.34 3.68 8.68 3 8 C3 7.01 3 6.02 3 5 C2.34 5 1.68 5 1 5 C0.67 3.35 0.34 1.7 0 0 Z " fill="#EC0800" transform="translate(208,44)"/>
<path d="M0 0 C0.66 0.33 1.32 0.66 2 1 C0.38731308 3.71224618 -1.24901874 6.37352812 -3 9 C-6 9 -6 9 -8 8 C-5.36 5.36 -2.72 2.72 0 0 Z " fill="#E30900" transform="translate(50,41)"/>
<path d="M0 0 C2.0625 0.4375 2.0625 0.4375 4 1 C1.03 3.475 1.03 3.475 -2 6 C-1.125 1.125 -1.125 1.125 0 0 Z " fill="#FD1A0F" transform="translate(54,47)"/>
</svg>
