<?xml version="1.0" encoding="UTF-8"?>
<!DOCTYPE svg PUBLIC "-//W3C//DTD SVG 1.1//EN" "http://www.w3.org/Graphics/SVG/1.1/DTD/svg11.dtd">
<svg xmlns="http://www.w3.org/2000/svg" version="1.1" width="800px" height="800px" style="shape-rendering:geometricPrecision; text-rendering:geometricPrecision; image-rendering:optimizeQuality; fill-rule:evenodd; clip-rule:evenodd" xmlns:xlink="http://www.w3.org/1999/xlink">
<g><path style="opacity:1" fill="#050505" d="M 311.5,-0.5 C 327.167,-0.5 342.833,-0.5 358.5,-0.5C 427.015,8.11689 491.015,30.1169 550.5,65.5C 550.821,67.0481 551.821,67.7148 553.5,67.5C 555.062,67.7329 556.395,68.3995 557.5,69.5C 557.821,71.0481 558.821,71.7148 560.5,71.5C 561.167,71.8333 561.833,72.1667 562.5,72.5C 562.821,74.0481 563.821,74.7148 565.5,74.5C 567.996,75.5804 570.33,76.9138 572.5,78.5C 572.821,80.0481 573.821,80.7148 575.5,80.5C 577.332,81.2485 578.999,82.2485 580.5,83.5C 581.035,85.4456 582.368,86.4456 584.5,86.5C 586.606,87.7829 588.94,88.6162 591.5,89C 622.167,93.6667 652.833,98.3333 683.5,103C 689.926,104.086 695.926,106.252 701.5,109.5C 701.821,111.048 702.821,111.715 704.5,111.5C 708.238,113.697 711.571,116.364 714.5,119.5C 714.738,121.404 715.738,122.738 717.5,123.5C 719.9,125.296 721.567,127.63 722.5,130.5C 722.427,132.027 723.094,133.027 724.5,133.5C 726.996,138.143 728.829,143.143 730,148.5C 730.667,246.833 730.667,345.167 730,443.5C 728.672,449.822 726.005,455.489 722,460.5C 717.425,465.746 712.258,470.246 706.5,474C 663.077,500.765 620.744,529.099 579.5,559C 562.609,573.969 548.442,591.136 537,610.5C 516.826,645.511 497.16,680.844 478,716.5C 469.728,730.434 461.062,744.101 452,757.5C 434.587,779.784 412.087,793.784 384.5,799.5C 375.167,799.5 365.833,799.5 356.5,799.5C 354.626,798.715 352.626,798.048 350.5,797.5C 348.485,796.076 346.152,795.41 343.5,795.5C 334.694,793.428 326.694,789.761 319.5,784.5C 318.738,782.738 317.404,781.738 315.5,781.5C 313.596,781.262 312.262,780.262 311.5,778.5C 311.027,777.094 310.027,776.427 308.5,776.5C 300.506,770.163 294.173,762.496 289.5,753.5C 289.715,751.821 289.048,750.821 287.5,750.5C 274.072,724.123 271.406,696.79 279.5,668.5C 280.924,666.485 281.59,664.152 281.5,661.5C 281.595,659.214 282.262,657.214 283.5,655.5C 284.924,653.485 285.59,651.152 285.5,648.5C 285.5,648.167 285.5,647.833 285.5,647.5C 287.213,646.365 287.88,644.698 287.5,642.5C 287.5,642.167 287.5,641.833 287.5,641.5C 289.213,640.365 289.88,638.698 289.5,636.5C 289.5,636.167 289.5,635.833 289.5,635.5C 291.213,634.365 291.88,632.698 291.5,630.5C 292.637,626.421 293.971,622.421 295.5,618.5C 297.213,617.365 297.88,615.698 297.5,613.5C 301.503,601.661 306.003,589.994 311,578.5C 318.141,563.89 324.974,549.224 331.5,534.5C 274.166,534.667 216.832,534.5 159.5,534C 153.025,533.851 146.692,533.018 140.5,531.5C 138.485,530.076 136.152,529.41 133.5,529.5C 126.533,528.179 120.2,525.512 114.5,521.5C 114.027,520.094 113.027,519.427 111.5,519.5C 111.027,518.094 110.027,517.427 108.5,517.5C 106.596,517.262 105.262,516.262 104.5,514.5C 104.027,513.094 103.027,512.427 101.5,512.5C 82.503,495.508 71.6696,474.175 69,448.5C 68.3333,437.833 68.3333,427.167 69,416.5C 69.692,409.525 71.192,402.858 73.5,396.5C 74.9238,394.485 75.5905,392.152 75.5,389.5C 77.4408,382.29 80.4408,375.624 84.5,369.5C 85.9063,369.027 86.573,368.027 86.5,366.5C 87.9063,366.027 88.573,365.027 88.5,363.5C 89.9941,361.15 91.3274,358.65 92.5,356C 86.0981,329.717 87.5981,303.884 97,278.5C 99.2742,273.613 101.774,268.946 104.5,264.5C 105.906,264.027 106.573,263.027 106.5,261.5C 108.262,260.738 109.262,259.404 109.5,257.5C 110.08,255.251 111.413,253.585 113.5,252.5C 115.797,250.706 117.963,248.706 120,246.5C 120.74,245.251 120.573,244.251 119.5,243.5C 111.657,210.224 116.49,178.89 134,149.5C 135.719,146.712 137.885,144.379 140.5,142.5C 141.906,142.027 142.573,141.027 142.5,139.5C 142.833,138.5 143.5,137.833 144.5,137.5C 147.089,136.581 149.089,134.914 150.5,132.5C 151.585,130.413 153.251,129.08 155.5,128.5C 157.404,128.262 158.738,127.262 159.5,125.5C 159.842,124.662 160.508,124.328 161.5,124.5C 163.027,124.573 164.027,123.906 164.5,122.5C 164.398,114.883 165.398,107.55 167.5,100.5C 168.924,98.4855 169.59,96.1522 169.5,93.5C 171.441,84.3197 175.108,75.9864 180.5,68.5C 181.906,68.0269 182.573,67.0269 182.5,65.5C 183.906,65.0269 184.573,64.0269 184.5,62.5C 184.738,60.5956 185.738,59.2623 187.5,58.5C 188.906,58.0269 189.573,57.0269 189.5,55.5C 190.167,54.1667 191.167,53.1667 192.5,52.5C 194.587,51.4154 195.92,49.7488 196.5,47.5C 199.427,46.2427 201.761,44.2427 203.5,41.5C 206.089,40.5806 208.089,38.914 209.5,36.5C 212.275,33.3954 215.608,31.0621 219.5,29.5C 221.027,29.573 222.027,28.9063 222.5,27.5C 232.343,20.9138 243.01,15.9138 254.5,12.5C 258.162,12.2766 261.495,11.2766 264.5,9.5C 279.853,4.6296 295.519,1.29627 311.5,-0.5 Z"/></g>
<g><path style="opacity:0.886" fill="#686868" d="M 264.5,9.5 C 261.495,11.2766 258.162,12.2766 254.5,12.5C 257.505,10.7234 260.838,9.7234 264.5,9.5 Z"/></g>
<g><path style="opacity:0.82" fill="#767676" d="M 222.5,27.5 C 222.027,28.9063 221.027,29.573 219.5,29.5C 219.973,28.0937 220.973,27.427 222.5,27.5 Z"/></g>
<g><path style="opacity:0.933" fill="#595959" d="M 209.5,36.5 C 208.089,38.914 206.089,40.5806 203.5,41.5C 204.911,39.086 206.911,37.4194 209.5,36.5 Z"/></g>
<g><path style="opacity:1" fill="#fed3c3" d="M 318.5,40.5 C 356.486,39.5393 393.486,45.0393 429.5,57C 480.596,74.0486 528.263,97.7153 572.5,128C 606.462,133.625 640.462,138.958 674.5,144C 681.79,145.288 686.623,149.455 689,156.5C 689.667,249.167 689.667,341.833 689,434.5C 651.167,459.667 613.333,484.833 575.5,510C 560.456,520.704 546.29,532.537 533,545.5C 520.106,560.953 508.44,577.286 498,594.5C 481.746,623.339 465.746,652.339 450,681.5C 440.731,697.763 431.064,713.763 421,729.5C 406.758,749.871 387.258,759.371 362.5,758C 336.241,751.74 321.075,735.24 317,708.5C 316.213,700.119 316.546,691.786 318,683.5C 330.639,638.243 347.972,594.909 370,553.5C 378.339,529.379 371.839,510.546 350.5,497C 346.317,495.204 341.984,493.871 337.5,493C 276.167,492.667 214.833,492.333 153.5,492C 133.696,488.679 120.53,477.512 114,458.5C 105.416,430.241 109.749,404.241 127,380.5C 135.476,375.548 139.142,368.215 138,358.5C 134.235,351.972 131.902,344.972 131,337.5C 125.643,305.902 136.309,281.568 163,264.5C 165.665,260.514 166.665,256.181 166,251.5C 154.41,225.983 154.743,200.65 167,175.5C 175.054,163.377 186.22,155.543 200.5,152C 204.72,148.513 206.72,144.013 206.5,138.5C 203.296,103.071 217.296,76.9047 248.5,60C 270.734,49.1113 294.067,42.6113 318.5,40.5 Z"/></g>
<g><path style="opacity:0.714" fill="#838383" d="M 203.5,41.5 C 201.761,44.2427 199.427,46.2427 196.5,47.5C 198.239,44.7573 200.573,42.7573 203.5,41.5 Z"/></g>
<g><path style="opacity:0.635" fill="#919191" d="M 196.5,47.5 C 195.92,49.7488 194.587,51.4154 192.5,52.5C 193.08,50.2512 194.413,48.5846 196.5,47.5 Z"/></g>
<g><path style="opacity:0.737" fill="#8e8e8e" d="M 189.5,55.5 C 189.573,57.0269 188.906,58.0269 187.5,58.5C 187.427,56.9731 188.094,55.9731 189.5,55.5 Z"/></g>
<g><path style="opacity:0.525" fill="#868686" d="M 184.5,62.5 C 184.573,64.0269 183.906,65.0269 182.5,65.5C 182.427,63.9731 183.094,62.9731 184.5,62.5 Z"/></g>
<g><path style="opacity:0.957" fill="#757575" d="M 550.5,65.5 C 551.71,65.9321 552.71,66.5987 553.5,67.5C 551.821,67.7148 550.821,67.0481 550.5,65.5 Z"/></g>
<g><path style="opacity:0.471" fill="#929292" d="M 182.5,65.5 C 182.573,67.0269 181.906,68.0269 180.5,68.5C 180.427,66.9731 181.094,65.9731 182.5,65.5 Z"/></g>
<g><path style="opacity:0.937" fill="#7c7c7c" d="M 557.5,69.5 C 558.71,69.9321 559.71,70.5987 560.5,71.5C 558.821,71.7148 557.821,71.0481 557.5,69.5 Z"/></g>
<g><path style="opacity:0.953" fill="#787878" d="M 562.5,72.5 C 563.71,72.9321 564.71,73.5987 565.5,74.5C 563.821,74.7148 562.821,74.0481 562.5,72.5 Z"/></g>
<g><path style="opacity:0.945" fill="#7c7c7c" d="M 572.5,78.5 C 573.71,78.9321 574.71,79.5987 575.5,80.5C 573.821,80.7148 572.821,80.0481 572.5,78.5 Z"/></g>
<g><path style="opacity:0.925" fill="#838383" d="M 580.5,83.5 C 582.23,84.0256 583.564,85.0256 584.5,86.5C 582.368,86.4456 581.035,85.4456 580.5,83.5 Z"/></g>
<g><path style="opacity:0.702" fill="#727272" d="M 169.5,93.5 C 169.59,96.1522 168.924,98.4855 167.5,100.5C 167.41,97.8478 168.076,95.5145 169.5,93.5 Z"/></g>
<g><path style="opacity:0.957" fill="#777777" d="M 701.5,109.5 C 702.71,109.932 703.71,110.599 704.5,111.5C 702.821,111.715 701.821,111.048 701.5,109.5 Z"/></g>
<g><path style="opacity:0.749" fill="#8f8f8f" d="M 714.5,119.5 C 716.262,120.262 717.262,121.596 717.5,123.5C 715.738,122.738 714.738,121.404 714.5,119.5 Z"/></g>
<g><path style="opacity:0.812" fill="#797979" d="M 164.5,122.5 C 164.027,123.906 163.027,124.573 161.5,124.5C 161.973,123.094 162.973,122.427 164.5,122.5 Z"/></g>
<g><path style="opacity:0.714" fill="#7b7b7b" d="M 159.5,125.5 C 158.738,127.262 157.404,128.262 155.5,128.5C 156.262,126.738 157.596,125.738 159.5,125.5 Z"/></g>
<g><path style="opacity:0.333" fill="#a2a2a2" d="M 722.5,130.5 C 723.906,130.973 724.573,131.973 724.5,133.5C 723.094,133.027 722.427,132.027 722.5,130.5 Z"/></g>
<g><path style="opacity:0.816" fill="#717171" d="M 150.5,132.5 C 149.089,134.914 147.089,136.581 144.5,137.5C 145.911,135.086 147.911,133.419 150.5,132.5 Z"/></g>
<g><path style="opacity:0.714" fill="#939393" d="M 142.5,139.5 C 142.573,141.027 141.906,142.027 140.5,142.5C 140.427,140.973 141.094,139.973 142.5,139.5 Z"/></g>
<g><path style="opacity:0.635" fill="#8b8b8b" d="M 119.5,243.5 C 120.573,244.251 120.74,245.251 120,246.5C 117.963,248.706 115.797,250.706 113.5,252.5C 115.5,249.5 117.5,246.5 119.5,243.5 Z"/></g>
<g><path style="opacity:0.737" fill="#767676" d="M 109.5,257.5 C 109.262,259.404 108.262,260.738 106.5,261.5C 106.738,259.596 107.738,258.262 109.5,257.5 Z"/></g>
<g><path style="opacity:0.357" fill="#a6a6a6" d="M 106.5,261.5 C 106.573,263.027 105.906,264.027 104.5,264.5C 104.427,262.973 105.094,261.973 106.5,261.5 Z"/></g>
<g><path style="opacity:0.486" fill="#8c8c8c" d="M 88.5,363.5 C 88.573,365.027 87.9063,366.027 86.5,366.5C 86.427,364.973 87.0937,363.973 88.5,363.5 Z"/></g>
<g><path style="opacity:0.369" fill="#a3a3a3" d="M 86.5,366.5 C 86.573,368.027 85.9063,369.027 84.5,369.5C 84.427,367.973 85.0937,366.973 86.5,366.5 Z"/></g>
<g><path style="opacity:0.875" fill="#777777" d="M 75.5,389.5 C 75.5905,392.152 74.9238,394.485 73.5,396.5C 73.4095,393.848 74.0762,391.515 75.5,389.5 Z"/></g>
<g><path style="opacity:0.486" fill="#9b9b9b" d="M 101.5,512.5 C 103.027,512.427 104.027,513.094 104.5,514.5C 102.973,514.573 101.973,513.906 101.5,512.5 Z"/></g>
<g><path style="opacity:0.545" fill="#828282" d="M 108.5,517.5 C 110.027,517.427 111.027,518.094 111.5,519.5C 109.973,519.573 108.973,518.906 108.5,517.5 Z"/></g>
<g><path style="opacity:0.478" fill="#8f8f8f" d="M 111.5,519.5 C 113.027,519.427 114.027,520.094 114.5,521.5C 112.973,521.573 111.973,520.906 111.5,519.5 Z"/></g>
<g><path style="opacity:0.714" fill="#727272" d="M 133.5,529.5 C 136.152,529.41 138.485,530.076 140.5,531.5C 137.848,531.59 135.515,530.924 133.5,529.5 Z"/></g>
<g><path style="opacity:0.945" fill="#757575" d="M 297.5,613.5 C 297.88,615.698 297.213,617.365 295.5,618.5C 295.796,616.597 296.463,614.93 297.5,613.5 Z"/></g>
<g><path style="opacity:0.925" fill="#787878" d="M 291.5,630.5 C 291.88,632.698 291.213,634.365 289.5,635.5C 289.796,633.597 290.463,631.93 291.5,630.5 Z"/></g>
<g><path style="opacity:0.922" fill="#787878" d="M 289.5,636.5 C 289.88,638.698 289.213,640.365 287.5,641.5C 287.796,639.597 288.463,637.93 289.5,636.5 Z"/></g>
<g><path style="opacity:0.922" fill="#797979" d="M 287.5,642.5 C 287.88,644.698 287.213,646.365 285.5,647.5C 285.796,645.597 286.463,643.93 287.5,642.5 Z"/></g>
<g><path style="opacity:0.878" fill="#767676" d="M 285.5,648.5 C 285.59,651.152 284.924,653.485 283.5,655.5C 283.41,652.848 284.076,650.515 285.5,648.5 Z"/></g>
<g><path style="opacity:0.945" fill="#666666" d="M 281.5,661.5 C 281.59,664.152 280.924,666.485 279.5,668.5C 279.41,665.848 280.076,663.515 281.5,661.5 Z"/></g>
<g><path style="opacity:0.961" fill="#767676" d="M 287.5,750.5 C 289.048,750.821 289.715,751.821 289.5,753.5C 288.599,752.71 287.932,751.71 287.5,750.5 Z"/></g>
<g><path style="opacity:0.663" fill="#9e9e9e" d="M 308.5,776.5 C 310.027,776.427 311.027,777.094 311.5,778.5C 309.973,778.573 308.973,777.906 308.5,776.5 Z"/></g>
<g><path style="opacity:0.737" fill="#777777" d="M 315.5,781.5 C 317.404,781.738 318.738,782.738 319.5,784.5C 317.596,784.262 316.262,783.262 315.5,781.5 Z"/></g>
<g><path style="opacity:0.686" fill="#747474" d="M 343.5,795.5 C 346.152,795.41 348.485,796.076 350.5,797.5C 347.848,797.59 345.515,796.924 343.5,795.5 Z"/></g>
</svg>
